<svg width="209" height="24" viewBox="0 0 209 24" fill="none" xmlns="http://www.w3.org/2000/svg">
<g clip-path="url(#clip0_1_2327)">
<path d="M17.9856 16.2555C17.8044 17.4496 17.4111 18.6018 16.8245 19.6575C16.3231 20.5754 15.6535 21.3908 14.8506 22.061C14.0715 22.7142 13.1665 23.2004 12.1917 23.4892C11.1645 23.8042 10.0962 23.9646 9.02183 23.9653C7.75394 23.9852 6.49477 23.7523 5.31789 23.2802C4.22922 22.8208 3.24256 22.1499 2.41511 21.3063C1.82551 20.7385 1.34188 20.0701 0.986945 19.3324C0.653508 18.5905 0.411762 17.8107 0.267056 17.0102C0.118441 16.209 0.0291798 15.3979 0 14.5835C0 13.7127 0 12.8534 0 11.9826C0 11.1118 0 10.2293 0 9.39332C0.0148576 8.57796 0.104248 7.76567 0.267056 6.9666C0.407167 6.16503 0.649088 5.38464 0.986945 4.64438C1.33336 3.8983 1.81796 3.2246 2.41511 2.65888C3.24256 1.81532 4.22922 1.1444 5.31789 0.684988C6.49477 0.212851 7.75394 -0.0200352 9.02183 -6.77897e-05C10.0973 -0.0141352 11.1678 0.146645 12.1917 0.475988C13.1665 0.764837 14.0715 1.25095 14.8506 1.90415C15.6618 2.57689 16.3393 3.39616 16.8477 4.31927C17.4344 5.37505 17.8276 6.52718 18.0088 7.72132H12.0756C11.907 7.06893 11.589 6.4647 11.1467 5.95643C10.8759 5.68253 10.5486 5.47101 10.1876 5.33665C9.8266 5.20229 9.44066 5.14831 9.05667 5.17849C8.58595 5.16651 8.11831 5.25766 7.68656 5.44554C7.32405 5.60817 7.0056 5.85497 6.75767 6.16543C6.62056 6.35189 6.50011 6.55004 6.39772 6.7576C6.25358 7.05686 6.16318 7.37914 6.13067 7.70971C6.02826 8.2498 5.97002 8.79733 5.9565 9.34688C5.9565 10.0319 5.89845 10.9028 5.89845 12.0058C5.89845 13.1089 5.89845 13.9797 5.9565 14.6648C5.98496 15.2132 6.0431 15.7598 6.13067 16.3019C6.19177 16.6265 6.28113 16.9451 6.39772 17.254C6.51383 17.463 6.64156 17.672 6.75767 17.8462C7.00045 18.1618 7.32033 18.4097 7.68656 18.5661C8.11831 18.754 8.58595 18.8451 9.05667 18.8332C9.44066 18.8633 9.8266 18.8094 10.1876 18.675C10.5486 18.5406 10.8759 18.3291 11.1467 18.0552C11.589 17.5469 11.907 16.9427 12.0756 16.2903H17.9972L17.9856 16.2555Z" fill="#FFD5FB"/>
<path d="M17.9858 23.1293V18.7287L27.1818 5.07406H18.3806V0H34.2646V4.40061L25.0338 18.0553H34.2646V23.1293H17.9858Z" fill="#FFD5FB"/>
<path d="M35.1235 23.0945V0H51.3907V5.07406H41.0104V8.94056H49.8813V14.0146H41.0104V18.0553H51.3907V23.1293H35.1235V23.0945Z" fill="#FFD5FB"/>
<path d="M71.0951 16.2555C70.9138 17.4496 70.5206 18.6018 69.934 19.6575C69.4326 20.5754 68.763 21.3908 67.9601 22.061C67.181 22.7142 66.276 23.2004 65.3012 23.4892C64.274 23.8042 63.2057 23.9646 62.1313 23.9653C60.8634 23.9852 59.6043 23.7523 58.4274 23.2802C57.3387 22.8208 56.352 22.1499 55.5246 21.3063C54.9286 20.7325 54.4409 20.056 54.0848 19.3092C53.7514 18.5673 53.5096 17.7874 53.3649 16.987C53.2218 16.1699 53.1403 15.3431 53.1211 14.5138C53.1211 13.643 53.1211 12.7838 53.1211 11.9129C53.1211 11.0421 53.1211 10.148 53.1211 9.31204C53.1485 8.52319 53.2456 7.73831 53.4114 6.96659C53.5515 6.16503 53.7934 5.38464 54.1313 4.64437C54.4799 3.8932 54.9685 3.21539 55.571 2.64726C56.3985 1.80371 57.3851 1.13278 58.4738 0.673372C59.637 0.211238 60.8798 -0.0175868 62.1313 -7.25763e-05C63.2067 -0.01414 64.2773 0.14664 65.3012 0.475983C66.276 0.764832 67.181 1.25094 67.9601 1.90415C68.7713 2.57689 69.4488 3.39616 69.9572 4.31926C70.5438 5.37505 70.9371 6.52718 71.1183 7.72132H65.1967C65.0281 7.06892 64.7101 6.46469 64.2678 5.95643C63.997 5.68252 63.6696 5.47101 63.3087 5.33664C62.9477 5.20228 62.5617 5.1483 62.1778 5.17848C61.707 5.1665 61.2394 5.25765 60.8076 5.44554C60.4451 5.60816 60.1267 5.85497 59.8788 6.16543C59.7417 6.35188 59.6212 6.55004 59.5188 6.75759C59.3747 7.05686 59.2843 7.37913 59.2518 7.70971C59.1494 8.24979 59.0911 8.79733 59.0776 9.34687C59.0776 10.0319 59.0195 10.9028 59.0195 12.0058C59.0195 13.1089 59.0195 13.9797 59.0776 14.6648C59.0941 15.2165 59.1406 15.7669 59.2169 16.3135C59.278 16.6381 59.3674 16.9567 59.484 17.2656C59.6001 17.4746 59.7278 17.6836 59.8439 17.8578C60.0867 18.1735 60.4066 18.4214 60.7728 18.5777C61.2046 18.7656 61.6722 18.8567 62.1429 18.8448C62.5269 18.8749 62.9129 18.821 63.2738 18.6866C63.6348 18.5522 63.9621 18.3407 64.2329 18.0668C64.6753 17.5586 64.9933 16.9543 65.1618 16.3019H71.0835L71.0951 16.2555Z" fill="#FFD5FB"/>
<path d="M84.065 23.1293V13.9682H77.8298V23.1293H71.9546V0H77.8298V8.89411H84.065V0H89.9402V23.1293H84.065Z" fill="#FFD5FB"/>
<path d="M110.492 16.2555C110.31 17.4496 109.917 18.6018 109.33 19.6576C108.829 20.5754 108.159 21.3908 107.357 22.0611C106.577 22.7143 105.672 23.2004 104.698 23.4892C103.67 23.8042 102.602 23.9647 101.528 23.9653C100.26 23.9852 99.0007 23.7524 97.8239 23.2802C96.7352 22.8208 95.7485 22.1499 94.9211 21.3063C94.3251 20.7325 93.8373 20.056 93.4813 19.3092C93.1479 18.5673 92.9061 17.7875 92.7614 16.987C92.6183 16.1699 92.5368 15.3432 92.5176 14.5138C92.5176 13.643 92.5176 12.7838 92.5176 11.9129C92.5176 11.0421 92.5176 10.1481 92.5176 9.31205C92.5335 8.52424 92.619 7.73937 92.773 6.96661C92.9131 6.16504 93.1551 5.38465 93.4929 4.64439C93.8415 3.89321 94.3302 3.2154 94.9327 2.64728C95.7601 1.80372 96.7468 1.13279 97.8355 0.673386C99.0095 0.206735 100.265 -0.0221721 101.528 -5.81103e-05C102.603 -0.0141255 103.674 0.146655 104.698 0.475998C105.672 0.764846 106.577 1.25096 107.357 1.90416C108.168 2.5769 108.845 3.39617 109.354 4.31928C109.94 5.37506 110.334 6.52719 110.515 7.72133H104.593C104.425 7.06894 104.107 6.46471 103.664 5.95644C103.393 5.68254 103.066 5.47102 102.705 5.33666C102.344 5.2023 101.958 5.14832 101.574 5.1785C101.104 5.16652 100.636 5.25767 100.204 5.44555C99.8416 5.60818 99.5232 5.85498 99.2752 6.16544C99.1381 6.3519 99.0177 6.55005 98.9153 6.75761C98.7712 7.05687 98.6808 7.37915 98.6482 7.70972C98.5458 8.24981 98.4876 8.79734 98.4741 9.34689C98.4741 10.0319 98.416 10.9028 98.416 12.0058C98.416 13.1089 98.416 13.9797 98.4741 14.6648C98.5025 15.2132 98.5607 15.7598 98.6482 16.3019C98.7093 16.6265 98.7987 16.9451 98.9153 17.2541C99.0314 17.4631 99.1591 17.6721 99.2752 17.8462C99.518 18.1619 99.8379 18.4098 100.204 18.5661C100.636 18.754 101.104 18.8451 101.574 18.8332C101.958 18.8633 102.344 18.8094 102.705 18.675C103.066 18.5406 103.393 18.3291 103.664 18.0552C104.107 17.547 104.425 16.9427 104.593 16.2903H110.515L110.492 16.2555ZM123.38 23.0712L119.177 14.4906H117.191V23.0712H111.386V-5.81103e-05H120.756C121.949 -0.0306973 123.135 0.186767 124.239 0.638553C125.198 1.02407 126.07 1.59637 126.805 2.32216C127.473 2.9848 128.002 3.77435 128.361 4.64439C128.715 5.52644 128.892 6.46919 128.884 7.41944C128.89 8.15101 128.768 8.87808 128.524 9.5675C128.294 10.1828 127.99 10.7677 127.618 11.3092C127.262 11.7947 126.849 12.2353 126.387 12.6212C125.954 12.9526 125.491 13.244 125.005 13.4921L130.172 23.1177H123.357L123.38 23.0712ZM123.078 7.38461C123.079 6.77704 122.841 6.19346 122.416 5.75905C122.174 5.51585 121.883 5.32536 121.564 5.19949C121.244 5.07362 120.902 5.01509 120.558 5.02755H117.272V9.672H120.57C120.915 9.6959 121.26 9.64264 121.582 9.5161C121.903 9.38956 122.192 9.19291 122.428 8.9405C122.635 8.73802 122.799 8.49593 122.911 8.22864C123.023 7.96134 123.08 7.6743 123.078 7.38461ZM149.029 15.4311C149.067 17.1711 148.551 18.8781 147.555 20.3056C146.56 21.7331 145.136 22.8073 143.49 23.3731C142.372 23.7707 141.194 23.9749 140.007 23.9769C138.819 23.9829 137.64 23.7785 136.524 23.3731C135.47 23.0016 134.503 22.4211 133.679 21.6663C132.817 20.8774 132.136 19.9121 131.681 18.8362C131.226 17.7602 131.009 16.5988 131.043 15.4311V-5.81103e-05H136.849V15.2918C136.779 16.2234 137.07 17.1461 137.662 17.8694C137.96 18.1787 138.323 18.4189 138.724 18.5734C139.125 18.7278 139.555 18.7927 139.984 18.7635C140.411 18.7809 140.838 18.7105 141.237 18.5567C141.637 18.403 142 18.1691 142.306 17.8694C142.913 17.1538 143.214 16.2276 143.142 15.2918V-5.81103e-05H148.948V15.4427L149.029 15.4311Z" fill="#FFD5FB"/>
<path d="M164.657 23.1293L157.272 11.495V23.1293H151.606V0H156.552L163.937 11.6343V0H169.603V23.1293H164.657Z" fill="#FFD5FB"/>
<path d="M190.155 16.2556C189.974 17.4497 189.581 18.6019 188.994 19.6576C188.493 20.5755 187.823 21.3909 187.02 22.0611C186.241 22.7143 185.336 23.2005 184.361 23.4893C183.334 23.8043 182.266 23.9647 181.191 23.9654C179.923 23.9853 178.664 23.7524 177.487 23.2803C176.399 22.8209 175.412 22.15 174.585 21.3064C173.989 20.7326 173.501 20.0561 173.145 19.3093C172.811 18.5674 172.57 17.7875 172.425 16.9871C172.282 16.17 172.2 15.3433 172.181 14.5139C172.181 13.6431 172.181 12.7839 172.181 11.913C172.181 11.0422 172.181 10.1481 172.181 9.31214C172.197 8.52433 172.283 7.73946 172.437 6.9667C172.577 6.16513 172.819 5.38474 173.156 4.64447C173.505 3.8933 173.994 3.21549 174.596 2.64736C175.424 1.80381 176.41 1.13288 177.499 0.673472C178.673 0.206821 179.928 -0.022086 181.191 2.79264e-05C182.267 -0.0140395 183.337 0.146741 184.361 0.476084C185.336 0.764932 186.241 1.25104 187.02 1.90425C187.831 2.57699 188.509 3.39626 189.017 4.31936C189.604 5.37515 189.997 6.52728 190.178 7.72142H184.257C184.088 7.06902 183.77 6.46479 183.328 5.95653C183.057 5.68262 182.73 5.47111 182.369 5.33675C182.008 5.20238 181.622 5.14841 181.238 5.17858C180.767 5.1666 180.299 5.25775 179.868 5.44564C179.505 5.60826 179.187 5.85507 178.939 6.16553C178.802 6.35198 178.681 6.55014 178.579 6.7577C178.435 7.05696 178.344 7.37923 178.312 7.70981C178.209 8.2499 178.151 8.79743 178.138 9.34697C178.138 10.032 178.08 10.9029 178.08 12.0059C178.08 13.109 178.08 13.9798 178.138 14.6649C178.166 15.2133 178.224 15.7599 178.312 16.302C178.373 16.6266 178.462 16.9452 178.579 17.2541C178.695 17.4631 178.823 17.6721 178.939 17.8463C179.182 18.1619 179.501 18.4098 179.868 18.5662C180.299 18.7541 180.767 18.8452 181.238 18.8333C181.622 18.8634 182.008 18.8095 182.369 18.6751C182.73 18.5407 183.057 18.3292 183.328 18.0553C183.77 17.547 184.088 16.9428 184.257 16.2904H190.178L190.155 16.2556Z" fill="#FFD5FB"/>
<path d="M203.125 23.1293V13.9682H196.889V23.1293H191.014V0H196.889V8.89411H203.125V0H209V23.1293H203.125Z" fill="#FFD5FB"/>
</g>
<defs>
<clipPath id="clip0_1_2327">
<rect width="209" height="23.9886" fill="white"/>
</clipPath>
</defs>
</svg>
