<svg width="306" height="31" viewBox="0 0 306 31" fill="none" xmlns="http://www.w3.org/2000/svg">
<g clip-path="url(#clip0_1_2341)">
<path d="M26.333 21.0064C26.0676 22.5495 25.4919 24.0384 24.633 25.4028C23.8989 26.5889 22.9185 27.6426 21.743 28.5088C20.6023 29.3529 19.2772 29.9811 17.85 30.3544C16.3461 30.7614 14.782 30.9688 13.209 30.9696C11.3527 30.9954 9.50909 30.6944 7.786 30.0843C6.19206 29.4906 4.74748 28.6236 3.536 27.5335C2.67275 26.7997 1.96467 25.9359 1.445 24.9826C0.956811 24.0238 0.602867 23.0161 0.391 21.9817C0.173411 20.9462 0.0427226 19.8981 0 18.8457C0 17.7203 0 16.6099 0 15.4846C0 14.3592 0 13.2188 0 12.1385C0.0217533 11.0848 0.152632 10.0351 0.391 9.00248C0.59614 7.96663 0.950339 6.95815 1.445 6.00151C1.9522 5.03738 2.6617 4.16676 3.536 3.43568C4.74748 2.34557 6.19206 1.47855 7.786 0.884862C9.50909 0.274728 11.3527 -0.0262273 13.209 -0.000423797C14.7835 -0.0186029 16.351 0.189171 17.85 0.614775C19.2772 0.988049 20.6023 1.61624 21.743 2.46037C22.9307 3.32974 23.9226 4.38847 24.667 5.58138C25.5259 6.94575 26.1016 8.43463 26.367 9.97779H17.68C17.4333 9.13472 16.9677 8.35388 16.32 7.69706C15.9235 7.3431 15.4443 7.06976 14.9158 6.89612C14.3873 6.72249 13.8222 6.65274 13.26 6.69173C12.5708 6.67625 11.8861 6.79404 11.254 7.03685C10.7233 7.247 10.257 7.56594 9.894 7.96715C9.69326 8.2081 9.51691 8.46417 9.367 8.73239C9.15596 9.11912 9.02361 9.5356 8.976 9.96279C8.82607 10.6607 8.74079 11.3683 8.721 12.0785C8.721 12.9638 8.636 14.0891 8.636 15.5146C8.636 16.94 8.636 18.0654 8.721 18.9507C8.76266 19.6595 8.84779 20.3657 8.976 21.0664C9.06546 21.4858 9.19629 21.8975 9.367 22.2968C9.537 22.5669 9.724 22.8369 9.894 23.062C10.2495 23.4699 10.7178 23.7903 11.254 23.9923C11.8861 24.2351 12.5708 24.3529 13.26 24.3374C13.8222 24.3764 14.3873 24.3067 14.9158 24.133C15.4443 23.9594 15.9235 23.6861 16.32 23.3321C16.9677 22.6753 17.4333 21.8944 17.68 21.0514H26.35L26.333 21.0064Z" fill="white"/>
<path d="M26.3335 29.8896V24.2028L39.7975 6.55712H26.9115V0H50.1675V5.68683L36.6525 23.3325H50.1675V29.8896H26.3335Z" fill="white"/>
<path d="M51.4248 29.8446V0H75.2418V6.55712H60.0438V11.5537H73.0318V18.1108H60.0438V23.3325H75.2418V29.8896H51.4248V29.8446Z" fill="white"/>
<path d="M104.091 21.0065C103.826 22.5497 103.25 24.0386 102.391 25.4029C101.657 26.5891 100.677 27.6428 99.5014 28.5089C98.3607 29.3531 97.0356 29.9813 95.6084 30.3545C94.1045 30.7616 92.5404 30.9689 90.9674 30.9697C89.111 30.9955 87.2675 30.6946 85.5444 30.0844C83.9505 29.4908 82.5059 28.6237 81.2944 27.5336C80.4218 26.7921 79.7077 25.9179 79.1864 24.9528C78.6982 23.994 78.3443 22.9862 78.1324 21.9518C77.9228 20.8959 77.8035 19.8275 77.7754 18.7558C77.7754 17.6304 77.7754 16.5201 77.7754 15.3947C77.7754 14.2693 77.7754 13.114 77.7754 12.0336C77.8155 11.0142 77.9577 9.99992 78.2004 9.00265C78.4055 7.96679 78.7597 6.95831 79.2544 6.00168C79.7648 5.03095 80.4802 4.15503 81.3624 3.42085C82.5739 2.33074 84.0185 1.46371 85.6124 0.870023C87.3155 0.272816 89.135 -0.0228905 90.9674 -0.000257201C92.5419 -0.0184363 94.1094 0.189338 95.6084 0.614941C97.0356 0.988216 98.3607 1.61641 99.5014 2.46054C100.689 3.3299 101.681 4.38863 102.425 5.58154C103.284 6.94592 103.86 8.4348 104.125 9.97796H95.4554C95.2087 9.13488 94.7431 8.35405 94.0954 7.69723C93.6989 7.34326 93.2197 7.06993 92.6912 6.89629C92.1627 6.72265 91.5976 6.6529 91.0354 6.6919C90.3462 6.67642 89.6615 6.79421 89.0294 7.03701C88.4986 7.24717 88.0324 7.56611 87.6694 7.96731C87.4686 8.20827 87.2923 8.46434 87.1424 8.73256C86.9313 9.11929 86.799 9.53576 86.7514 9.96296C86.6015 10.6609 86.5162 11.3685 86.4964 12.0786C86.4964 12.9639 86.4114 14.0893 86.4114 15.5147C86.4114 16.9402 86.4114 18.0656 86.4964 18.9509C86.5205 19.6638 86.5886 20.3751 86.7004 21.0815C86.7899 21.5009 86.9207 21.9126 87.0914 22.3119C87.2614 22.582 87.4484 22.8521 87.6184 23.0772C87.9739 23.4851 88.4422 23.8054 88.9784 24.0075C89.6105 24.2503 90.2952 24.3681 90.9844 24.3526C91.5466 24.3916 92.1117 24.3218 92.6402 24.1482C93.1687 23.9746 93.6479 23.7012 94.0444 23.3473C94.6921 22.6905 95.1577 21.9096 95.4044 21.0665H104.074L104.091 21.0065Z" fill="white"/>
<path d="M123.081 29.8896V18.0508H113.952V29.8896H105.35V0H113.952V11.4937H123.081V0H131.683V29.8896H123.081Z" fill="white"/>
<path d="M161.773 21.0065C161.507 22.5497 160.931 24.0386 160.073 25.403C159.338 26.5891 158.358 27.6428 157.183 28.509C156.042 29.3531 154.717 29.9813 153.29 30.3546C151.786 30.7616 150.222 30.969 148.649 30.9698C146.792 30.9956 144.949 30.6946 143.226 30.0845C141.632 29.4908 140.187 28.6238 138.976 27.5336C138.103 26.7921 137.389 25.9179 136.868 24.9528C136.379 23.994 136.025 22.9863 135.814 21.9518C135.604 20.8959 135.485 19.8276 135.457 18.7558C135.457 17.6305 135.457 16.5201 135.457 15.3947C135.457 14.2694 135.457 13.114 135.457 12.0336C135.48 11.0156 135.605 10.0013 135.831 9.00267C136.036 7.96682 136.39 6.95833 136.885 6.0017C137.395 5.03097 138.11 4.15505 138.993 3.42087C140.204 2.33076 141.649 1.46373 143.243 0.870046C144.962 0.267 146.799 -0.0288123 148.649 -0.000234797C150.223 -0.0184139 151.791 0.18936 153.29 0.614964C154.717 0.988238 156.042 1.61643 157.183 2.46056C158.37 3.32993 159.362 4.38866 160.107 5.58157C160.965 6.94594 161.541 8.43482 161.807 9.97798H153.137C152.89 9.13491 152.424 8.35407 151.777 7.69725C151.38 7.34329 150.901 7.06995 150.372 6.89631C149.844 6.72268 149.279 6.65293 148.717 6.69192C148.027 6.67644 147.343 6.79423 146.711 7.03704C146.18 7.24719 145.714 7.56613 145.351 7.96734C145.15 8.20829 144.973 8.46436 144.824 8.73258C144.613 9.11931 144.48 9.53579 144.433 9.96298C144.283 10.6609 144.197 11.3685 144.178 12.0787C144.178 12.9639 144.093 14.0893 144.093 15.5148C144.093 16.9402 144.093 18.0656 144.178 18.9509C144.219 19.6597 144.304 20.3659 144.433 21.0666C144.522 21.486 144.653 21.8977 144.824 22.297C144.994 22.567 145.181 22.8371 145.351 23.0622C145.706 23.4701 146.174 23.7905 146.711 23.9925C147.343 24.2353 148.027 24.3531 148.717 24.3376C149.279 24.3766 149.844 24.3069 150.372 24.1332C150.901 23.9596 151.38 23.6863 151.777 23.3323C152.424 22.6755 152.89 21.8946 153.137 21.0516H161.807L161.773 21.0065ZM180.643 29.8144L174.489 18.7258H171.582V29.8144H163.082V-0.000234797H176.801C178.547 -0.0398293 180.284 0.241196 181.901 0.825031C183.304 1.32323 184.581 2.06281 185.658 3.00073C186.636 3.85704 187.41 4.87736 187.936 6.0017C188.453 7.14156 188.713 8.35986 188.701 9.58786C188.71 10.5333 188.532 11.4728 188.174 12.3638C187.837 13.1589 187.392 13.9147 186.848 14.6145C186.327 15.242 185.722 15.8113 185.046 16.31C184.411 16.7382 183.734 17.1149 183.023 17.4354L190.588 29.8744H180.609L180.643 29.8144ZM180.201 9.54284C180.201 8.7577 179.853 8.00355 179.232 7.44217C178.876 7.12788 178.451 6.88171 177.983 6.71905C177.515 6.55639 177.014 6.48075 176.512 6.49686H171.701V12.4988H176.529C177.033 12.5297 177.539 12.4609 178.01 12.2973C178.48 12.1338 178.903 11.8797 179.249 11.5535C179.552 11.2918 179.793 10.979 179.956 10.6336C180.12 10.2881 180.203 9.91721 180.201 9.54284ZM218.196 19.9412C218.251 22.1897 217.495 24.3956 216.038 26.2404C214.58 28.0852 212.496 29.4734 210.087 30.2045C208.449 30.7184 206.724 30.9822 204.987 30.9848C203.248 30.9926 201.521 30.7284 199.887 30.2045C198.344 29.7245 196.927 28.9742 195.722 27.9988C194.46 26.9794 193.462 25.732 192.796 24.3415C192.13 22.951 191.812 21.4501 191.863 19.9412V-0.000234797H200.363V19.7611C200.261 20.9651 200.687 22.1574 201.553 23.0922C201.99 23.4919 202.52 23.8023 203.108 24.0019C203.695 24.2015 204.325 24.2853 204.953 24.2476C205.579 24.27 206.203 24.1791 206.788 23.9804C207.373 23.7817 207.905 23.4794 208.353 23.0922C209.241 22.1674 209.681 20.9704 209.577 19.7611V-0.000234797H218.077V19.9562L218.196 19.9412Z" fill="white"/>
<path d="M241.077 29.8896L230.265 14.8548V29.8896H221.969V0H229.211L240.023 15.0349V0H248.319V29.8896H241.077Z" fill="white"/>
<path d="M278.409 21.0067C278.143 22.5499 277.568 24.0388 276.709 25.4031C275.975 26.5893 274.994 27.643 273.819 28.5091C272.678 29.3533 271.353 29.9815 269.926 30.3547C268.422 30.7618 266.858 30.9691 265.285 30.9699C263.428 30.9957 261.585 30.6948 259.862 30.0846C258.268 29.491 256.823 28.6239 255.612 27.5338C254.739 26.7923 254.025 25.9181 253.504 24.953C253.016 23.9942 252.662 22.9864 252.45 21.952C252.24 20.8961 252.121 19.8277 252.093 18.756C252.093 17.6306 252.093 16.5203 252.093 15.3949C252.093 14.2695 252.093 13.1142 252.093 12.0338C252.116 11.0157 252.241 10.0015 252.467 9.00284C252.672 7.96699 253.026 6.95851 253.521 6.00187C254.031 5.03114 254.747 4.15522 255.629 3.42104C256.84 2.33093 258.285 1.4639 259.879 0.870217C261.598 0.267171 263.435 -0.028641 265.285 -6.34809e-05C266.859 -0.0182426 268.427 0.189531 269.926 0.615135C271.353 0.988409 272.678 1.6166 273.819 2.46073C275.006 3.3301 275.998 4.38883 276.743 5.58174C277.602 6.94611 278.177 8.43499 278.443 9.97816H269.773C269.526 9.13508 269.06 8.35424 268.413 7.69742C268.016 7.34346 267.537 7.07012 267.009 6.89649C266.48 6.72285 265.915 6.6531 265.353 6.6921C264.664 6.67662 263.979 6.79441 263.347 7.03721C262.816 7.24737 262.35 7.5663 261.987 7.96751C261.786 8.20846 261.61 8.46453 261.46 8.73275C261.249 9.11948 261.116 9.53596 261.069 9.96315C260.919 10.6611 260.834 11.3687 260.814 12.0788C260.814 12.9641 260.729 14.0895 260.729 15.5149C260.729 16.9404 260.729 18.0658 260.814 18.9511C260.855 19.6598 260.941 20.3661 261.069 21.0667C261.158 21.4861 261.289 21.8978 261.46 22.2971C261.63 22.5672 261.817 22.8373 261.987 23.0624C262.342 23.4703 262.811 23.7906 263.347 23.9927C263.979 24.2355 264.664 24.3533 265.353 24.3378C265.915 24.3768 266.48 24.307 267.009 24.1334C267.537 23.9598 268.016 23.6864 268.413 23.3325C269.06 22.6756 269.526 21.8948 269.773 21.0517H278.443L278.409 21.0067Z" fill="white"/>
<path d="M297.398 29.8896V18.0508H288.269V29.8896H279.667V0H288.269V11.4937H297.398V0H306V29.8896H297.398Z" fill="white"/>
</g>
<defs>
<clipPath id="clip0_1_2341">
<rect width="306" height="31" fill="white"/>
</clipPath>
</defs>
</svg>
