<svg width="97" height="57" viewBox="0 0 97 57" fill="none" xmlns="http://www.w3.org/2000/svg">
<mask id="mask0_1_2139" style="mask-type:luminance" maskUnits="userSpaceOnUse" x="0" y="0" width="97" height="57">
<path d="M96.2953 0H0V56.4175H96.2953V0Z" fill="white"/>
</mask>
<g mask="url(#mask0_1_2139)">
<mask id="mask1_1_2139" style="mask-type:luminance" maskUnits="userSpaceOnUse" x="4" y="0" width="59" height="57">
<path d="M4.69482 0.134216H62.5704V56.2867H4.69482V0.134216Z" fill="white"/>
</mask>
<g mask="url(#mask1_1_2139)">
<path d="M60.0758 1.13677V2.13294H57.6671V3.12848H56.0577V4.12401H54.5643V3.12848H52.9549V2.13294H50.5462V1.13677H46.5286V0.141235H41.6075V1.13677H35.9917V2.13294H32.7847V3.12848H31.1753V4.12401H28.7666V5.11955H27.1572V6.11509H26.3584V7.11126H24.749V8.10679H23.1396V9.10233H22.3408V10.0979H21.542V11.094H20.7427V12.0896H19.9439V13.0851H19.1451V14.1386H18.3462V15.1341H17.5469V16.1297H16.7369V18.1354H15.9263V20.1418H15.127V27.2697H15.9263V29.2755H16.7251V30.2716H18.3345V31.2672H19.9439V32.2627H23.2669V31.2672H26.4744V30.2716H28.0838V29.2755H29.6932V28.2799H30.492V27.2844H31.2908V26.2889H32.0902V25.2933H32.889V24.2971H33.6878V23.3016H34.4866V22.3061H35.2854V21.3105H36.0847V19.3048H36.8836V17.2985H37.6824V14.2826H38.4812V7.13992H37.5669V10.1412H36.7675V13.1431H35.9687V15.1488H35.1699V16.1443H34.3711V18.15H33.5718V19.1456H32.773V21.1513H31.9741V22.1475H31.1753V23.143H30.3765V24.1385H29.5772V25.1341H28.7784V26.1303H27.9678V27.1258H27.169V28.1213H25.5596V29.1169H23.9502V30.1124H18.4387V29.1462H17.6399V28.15H16.8406V20.2857H17.6399V18.28H18.4387V16.2743H19.2376V15.2787H20.0364V14.2826H20.8357V13.273H21.6345V12.2768H22.4333V11.2813H23.2321V10.2858H24.031V9.29023H25.6409V8.29405H26.4397V7.29852H28.0491V6.30298H29.6584V5.30745H32.0666V4.31191H34.4754V3.31574H37.6824V2.3202H48.0108V3.31574H52.0518V4.31191H53.6612V5.17751H52.8619V6.17305H52.0518V7.16858H50.442V8.16475H49.6431V9.16029H48.8443V10.1558H47.2349V11.1514H46.4361V12.1469H45.6368V13.1431H44.838V14.1386H44.0392V15.1341H42.4298V16.1297H41.631V17.1258H40.8316V18.1214H40.0098V19.1169H39.211V20.1125H38.4117V21.108H37.6129V23.1143H36.814V24.1099H36.0152V25.1054H35.2164V26.101H34.4171V27.0965H33.6183V29.1462H32.8195V30.1417H32.0206V32.1474H31.2213V33.143H30.4225V34.1385H29.6237V36.1442H28.8249V37.1404H27.9678V38.1359H27.169V40.1416H26.3702V41.1372H25.5714V42.1327H24.772V43.1289H23.9732V45.1346H23.1744V46.1301H22.3756V47.1257H21.5763V48.1212H20.7774V49.1174H19.9786V50.1129H19.1798V51.1084H18.381V52.104H16.7369V53.0995H15.127V54.0957H8.81667V53.0995H7.20728V51.2384H8.81667V50.2428H9.61549V49.2467H10.4148V48.1072H9.61549V47.111H6.30421V48.1072H5.49364V49.1027H4.69482V51.2384H5.49364V53.2441H6.29245V54.2396H7.09178V55.2352H9.49998V56.2313H13.6218V55.2352H16.8294V54.2396H18.4387V53.2441H20.0481V52.2486H21.6575V51.253H22.4563V50.2569H24.0657V49.2613H24.865V48.2658H25.6639V47.2703H26.4627V46.2741H27.2615V45.2785H28.0608V44.283H28.8596V43.2875H29.6584V42.2919H30.4573V41.2958H31.2561V40.3002H32.0554V39.3047H32.8542V38.3092H33.653V37.313H34.4518V35.3073H35.2512V34.3117H36.05V33.3162H36.8488V31.3105H37.6476V30.3149H38.4464V29.3188H39.2458V27.313H40.0446V26.3175H40.8434V25.322H41.6422V23.3163H42.4415V22.3207H43.2403V20.3144H44.0392V19.3188H44.838V18.3233H45.6368V17.3278H46.4361V16.3322H47.2349V15.3361H48.0338V13.273H48.8326V12.2768H49.6319V11.2813H51.3568V10.2858H52.1556V9.29023H52.9549V8.29405H53.7537V7.29852H55.3631V6.30298H56.0577V8.3087H56.857V16.173H56.0577V19.1749H55.2589V20.1704H54.46V22.1761H53.6612V23.1717H52.8619V24.1672H52.0518V25.1634H51.2413V26.1589H50.442V27.1545H49.6431V28.15H48.8443V29.1462H47.2349V30.1417H45.7411V29.1462H40.8204V30.1417H40.0098V31.2818H40.8086V32.2774H45.6255V35.1487H44.8267V36.1442H44.0274V37.1404H43.2286V38.1359H42.4298V39.1315H41.631V40.127H40.8316V42.1327H40.0098V43.1289H39.211V45.1346H38.4117V47.1403H37.6129V52.2772H38.4117V54.283H40.0098V55.2785H41.6192V56.2747H44.9422V55.2785H47.3504V54.283H48.9603V53.2874H50.5462V52.2919H51.3455V51.2963H52.1444V50.3002H52.9432V49.3046H53.742V48.3091H54.5408V47.3136H55.3401V46.3174H56.1389V45.3219H56.9378V43.2875H57.7366V41.2818H58.5359V35.1487H57.6211V37.1544H56.8223V40.1563H56.0229V42.162H55.2241V44.1531H54.4253V45.1486H53.6265V47.1543H52.8272V48.1505H52.0518V49.146H51.2413V50.1416H50.442V51.1371H48.8326V52.1333H48.0338V53.1288H46.4244V54.1244H40.9129V52.1186H40.1141V51.253H40.9129V49.2473H41.7117V48.2511H42.5105V47.2556H43.3099V46.2601H44.1087V44.2543H44.9075V43.2875H45.7063V42.2919H46.5056V41.2958H47.3044V39.29H48.1033V36.2888H48.9021V33.1576H48.1033V31.2958H48.9021V30.3003H51.3568V29.3048H52.9662V28.2799H53.7655V27.2844H54.5643V26.2889H56.1737V25.2933H56.9725V24.2971H57.7713V22.2914H58.5707V21.2959H59.3695V19.2902H60.1683V11.1373H59.3695V9.14564H58.5707V7.13992H57.7713V6.14438H56.9725V5.27815H57.7713V4.28261H59.3807V3.28708H61.7894V2.29154H62.5882V1.13677H60.0758ZM44.0162 30.2856V31.1519H41.7117V30.2856H44.0162Z" fill="#FFD5FB"/>
</g>
<mask id="mask2_1_2139" style="mask-type:luminance" maskUnits="userSpaceOnUse" x="45" y="23" width="46" height="34">
<path d="M45.4473 23.4387H90.8397V56.25H45.4473V23.4387Z" fill="white"/>
</mask>
<g mask="url(#mask2_1_2139)">
<path d="M89.5625 37.0233V37.8176H88.9252V39.4061H88.2879V40.2004H87.6506V40.9946H87.0133V41.7889H86.376V42.5825H85.7391V43.3768H85.1018V44.171H84.4645V45.7596H83.8272V46.5538H82.5526V47.3481H81.9153V48.1417H81.2785V48.936H80.6411V49.7302H80.0038V50.5245H79.3665V51.3188H78.0919V52.113H76.8178V52.9073H76.1805V53.7009H74.2593V54.4952H69.2707V53.7009H68.6334V53.0544H69.2707V52.2602H69.908V51.4659H70.5453V49.878H71.1826V49.0838H71.8199V48.2895H72.4572V47.4952H73.094V46.701H73.7314V45.9067H74.3687V45.1124H75.006V44.3188H75.6433V43.5246H76.2806V41.936H76.9179V41.1418H77.5547V40.3475H78.1921V39.5539H78.8294V37.9654H79.4667V37.1711H80.104V35.5826H80.7413V33.9947H81.3786V32.4061H82.0154V30.0011H82.6527V25.8712H82.0154V25.0769H81.3786V24.2712H80.7413V23.4775H75.5068V24.2712H73.5765V25.0654H72.3024V25.8597H71.6651V26.654H71.0278V27.4482H69.7531V28.2425H69.1158V29.0367H68.479V29.8304H67.8417V30.6246H67.2044V31.4189H66.5671V32.2132H65.9298V33.0074H65.2924V33.8017H64.6551V34.5959H64.0183V35.3896H63.381V36.1838H62.7437V36.9781H62.1064V37.7724H61.4691V38.5666H60.8317V39.3609H60.1944V40.1551H59.5576V40.9488H58.9203V41.743H58.283V42.5373H57.6457V43.3316H57.1269V41.8908H57.7643V41.0965H58.4011V39.508H59.0384V38.7138H59.6757V37.9201H60.313V36.3316H60.9503V35.5373H61.5876V34.7431H62.2249V33.1546H62.8617V32.3609H63.4991V30.7724H64.1364V29.9781H64.7737V24.2712H64.1364V23.4775H60.1765V24.2712H58.9019V25.0654H58.2646V25.8597H57.6273V26.654H56.9905V27.4482H56.3532V28.2425H55.7159V29.0367H55.0785V29.8304H54.4412V30.6246H53.8039V31.4189H53.1666V33.0074H52.5298V33.8017H51.8925V34.5959H51.2552V35.3896H50.6178V37.1373H52.0197V35.5488H52.657V34.7545H53.2944V33.9603H53.9317V33.166H54.5685V31.5781H55.2058V30.7839H55.8431V29.9896H56.4804V29.1953H57.1177V28.4011H57.7551V27.6068H58.3924V26.8126H59.0292V26.0189H59.6665V25.2247H61.4599V27.4597H60.8225V28.2539H60.1857V29.8418H59.5484V30.6361H58.9111V32.2246H58.2738V33.0189H57.6365V34.6068H56.9992V35.401H56.3619V36.1953H55.7251V37.7838H55.0877V38.5781H54.4504V40.166H53.8131V40.9602H53.1758V42.5488H52.5385V43.343H51.9017V44.1373H51.2644V45.7252H50.627V46.5194H49.9897V48.108H49.3524V48.9022H48.7151V50.4908H48.0778V51.2844H47.441V52.0786H46.8037V53.6672H46.0841V54.4614H45.4473V55.4143H46.8492V54.62H51.965V53.8258H52.6024V53.0315H53.2397V51.4436H53.877V50.6493H54.5143V49.8551H55.1511V49.0608H55.7884V47.4723H56.4257V46.6787H57.0631V45.8844H57.7004V45.0901H58.3377V44.2959H58.975V42.7074H59.6118V41.9131H60.2491V41.1195H60.8864V40.3252H61.5237V39.5309H62.1611V38.7367H62.7984V37.9424H63.4357V37.1482H64.0725V36.3539H64.7098V35.5603H65.3471V34.766H65.9844V33.9717H66.6218V33.1775H67.2591V32.3832H67.8964V31.589H68.5332V30.7947H69.1705V30.0011H70.4451V29.2068H71.0824V28.4125H71.7198V27.6183H72.9939V26.824H73.6312V26.0298H74.9058V25.2355H76.1805V24.4419H78.6198V25.2355H79.2571V28.2762H78.6198V29.8648H77.983V30.659H77.3457V31.4533H76.7084V33.0412H76.0711V33.8354H75.4338V34.6297H74.7964V35.424H74.1591V36.2182H73.5223V37.0125H72.885V38.6004H72.2477V39.3946H71.6104V40.1889H70.9731V40.9832H70.3358V41.7774H69.6984V43.3653H69.0616V44.1596H68.4243V44.9538H67.787V46.5424H67.1497V48.1309H66.5124V50.5245H65.8751V53.8602H66.5124V54.6544H67.1497V55.448H69.0703V56.2423H73.668V55.448H75.5886V54.6544H76.8633V53.8602H78.1374V53.0659H78.7747V52.2716H80.0493V51.4774H80.6866V50.6831H81.3239V49.8888H82.5981V49.0952H83.2354V48.301H83.8727V47.5067H84.51V46.7124H85.1473V45.9182H85.7846V45.1239H86.4214V44.3296H87.0588V43.536H87.6961V41.9475H88.3334V41.1532H88.9707V40.359H89.608V39.5647H90.2453V38.7704H90.8821V37.0233H89.5625ZM55.6796 45.1468V45.7933H55.1603V45.1468H55.6796ZM56.3164 44.3411V44.9882H55.7976V44.3411H56.3164ZM56.4349 44.194V43.5468H56.9537V44.194H56.4349Z" fill="#FFD5FB"/>
</g>
<mask id="mask3_1_2139" style="mask-type:luminance" maskUnits="userSpaceOnUse" x="86" y="30" width="10" height="12">
<path d="M86.2207 30.1654H95.5101V41.7424H86.2207V30.1654Z" fill="white"/>
</mask>
<g mask="url(#mask3_1_2139)">
<mask id="mask4_1_2139" style="mask-type:luminance" maskUnits="userSpaceOnUse" x="85" y="29" width="12" height="14">
<path d="M85.5742 31.175L94.7527 29.2661L96.2844 40.7055L87.1059 42.6144L85.5742 31.175Z" fill="white"/>
</mask>
<g mask="url(#mask4_1_2139)">
<mask id="mask5_1_2139" style="mask-type:luminance" maskUnits="userSpaceOnUse" x="85" y="29" width="12" height="14">
<path d="M85.5742 31.175L94.7527 29.2661L96.2844 40.7055L87.1059 42.6144L85.5742 31.175Z" fill="white"/>
</mask>
<g mask="url(#mask5_1_2139)">
<path d="M89.9781 30.2597L90.2709 30.1985L90.369 30.931L90.6624 30.8705L90.8581 32.3335L91.1515 32.2724L91.2491 33.003L91.542 32.9418L91.6401 33.6749L91.9335 33.6138L91.9825 33.9794L92.2754 33.9182L92.3244 34.2832L92.9157 34.1603L92.9648 34.5259L93.5525 34.4036L93.6016 34.7686L94.1894 34.6463L94.2384 35.0119L95.4108 34.7679L95.4599 35.1329L94.8716 35.2552L94.9207 35.6208L94.0396 35.8036L94.0887 36.1692L93.2091 36.352L93.2582 36.7169L92.9653 36.7781L93.0139 37.1431L92.4261 37.2654L92.5243 37.9985L92.2309 38.0596L92.281 38.4316L91.9881 38.4921L92.1348 39.5902L91.842 39.6513L91.9886 40.7494L91.6958 40.8106L91.7934 41.5405L91.5006 41.6016L91.3048 40.1386L91.0115 40.1991L90.8765 39.1921L90.5837 39.2532L90.5224 38.7972L90.2295 38.8583L90.1314 38.1252L89.838 38.1864L89.7895 37.8208L89.4961 37.8819L89.4476 37.5169L88.8537 37.6399L88.8051 37.2749L88.2189 37.3966L88.1699 37.0316L86.9959 37.2755L86.9469 36.9106L86.3591 37.0329L86.3101 36.6673L87.484 36.4233L87.4355 36.0584L88.3166 35.8749L88.2675 35.5093L88.8552 35.387L88.8067 35.0221L89.0995 34.9609L89.0505 34.5959L89.3438 34.5348L89.2948 34.1698L89.5881 34.1087L89.5391 33.7437L89.8319 33.6826L89.7338 32.9495L90.0271 32.8889L89.8789 31.7839L90.1723 31.7233L89.976 30.2597H89.9781Z" fill="#FFD5FB"/>
</g>
</g>
</g>
<mask id="mask6_1_2139" style="mask-type:luminance" maskUnits="userSpaceOnUse" x="18" y="2" width="11" height="14">
<path d="M18.3232 2.77832H28.9148V15.9795H18.3232V2.77832Z" fill="white"/>
</mask>
<g mask="url(#mask6_1_2139)">
<path d="M23.4325 2.77832H23.7729V3.62863H24.1127V5.32671H24.4531V6.17448H24.793V7.02415H25.1329V7.44836H25.4732V7.87192H26.1596V8.29612H26.8419V8.71969H27.5242V9.14325H28.8842V9.56745H28.2019V9.99102H27.1797V10.4146H26.1596V10.8388H25.8197V11.2623H25.1374V12.1127H24.7971V12.5445H24.4572V13.8184H24.1168V15.0923H23.777V15.94H23.4371V14.2426H23.0967V13.0738H22.7568V12.5445H22.417V11.6942H22.0766V11.2706H21.7367V10.8464H21.0483V10.4229H20.3681V9.99866H19.0055V9.57509H18.3232V9.15153H19.6858V8.72733H20.7079V8.30376H21.3902V7.8802H21.7301V7.456H22.0705V7.03243H22.4103V6.60823H22.7507V5.75856H23.0906V4.4764H23.4304V2.77832H23.4325Z" fill="#FFD5FB"/>
</g>
<mask id="mask7_1_2139" style="mask-type:luminance" maskUnits="userSpaceOnUse" x="0" y="42" width="5" height="7">
<path d="M0.130859 42.7208H4.57929V48.1016H0.130859V42.7208Z" fill="white"/>
</mask>
<g mask="url(#mask7_1_2139)">
<mask id="mask8_1_2139" style="mask-type:luminance" maskUnits="userSpaceOnUse" x="0" y="42" width="5" height="7">
<path d="M0.0581055 43.0099L4.35167 42.5131L4.75083 47.8647L0.456747 48.3615L0.0581055 43.0099Z" fill="white"/>
</mask>
<g mask="url(#mask8_1_2139)">
<mask id="mask9_1_2139" style="mask-type:luminance" maskUnits="userSpaceOnUse" x="0" y="42" width="5" height="7">
<path d="M0.0581055 43.0099L4.35167 42.5131L4.75083 47.8647L0.456747 48.3615L0.0581055 43.0099Z" fill="white"/>
</mask>
<g mask="url(#mask9_1_2139)">
<path d="M2.10986 42.773L2.24683 42.7571L2.27187 43.0985L2.40884 43.0826L2.45944 43.7647L2.5959 43.7488L2.62145 44.0889L2.75791 44.073L2.78346 44.4144L2.91992 44.3991L2.9327 44.5692L3.06915 44.5532L3.08193 44.7233L3.3574 44.6915L3.37018 44.8615L3.64412 44.8297L3.65689 45.0004L3.93083 44.9685L3.94361 45.1386L4.48944 45.0755L4.50222 45.2456L4.22828 45.2774L4.24106 45.4475L3.83066 45.4953L3.84344 45.6653L3.43355 45.7125L3.44633 45.8825L3.30987 45.8985L3.32214 46.0685L3.0482 46.1004L3.07375 46.4418L2.9373 46.4577L2.95007 46.6309L2.81361 46.6469L2.85195 47.1583L2.71498 47.1743L2.75331 47.6857L2.61685 47.7016L2.64189 48.0418L2.50543 48.0577L2.45484 47.3762L2.31838 47.3921L2.28312 46.9227L2.14666 46.9386L2.13081 46.7258L1.99436 46.7418L1.9688 46.4004L1.83234 46.4163L1.81957 46.2456L1.68311 46.2615L1.67033 46.0915L1.39384 46.1233L1.38106 45.9532L1.10815 45.9851L1.09537 45.8144L0.548515 45.8781L0.535738 45.708L0.2618 45.7392L0.249023 45.5692L0.795877 45.5061L0.783611 45.336L1.19401 45.2883L1.18123 45.1182L1.45517 45.0864L1.44239 44.9163L1.57885 44.9004L1.56658 44.7303L1.70304 44.7144L1.69026 44.5443L1.82672 44.5284L1.81395 44.3583L1.95091 44.3424L1.92536 44.001L2.06182 43.9851L2.02349 43.4705L2.15995 43.4545L2.10935 42.773H2.10986Z" fill="#FFD5FB"/>
</g>
</g>
</g>
</g>
</svg>
