<svg width="120" height="90" viewBox="0 0 120 90" fill="none" xmlns="http://www.w3.org/2000/svg">
<mask id="mask0_1_2138" style="mask-type:luminance" maskUnits="userSpaceOnUse" x="14" y="14" width="97" height="58">
<path d="M110.844 14.923H14.5483V71.3405H110.844V14.923Z" fill="white"/>
</mask>
<g mask="url(#mask0_1_2138)">
<mask id="mask1_1_2138" style="mask-type:luminance" maskUnits="userSpaceOnUse" x="19" y="15" width="59" height="57">
<path d="M19.2432 15.0572H77.1187V71.2097H19.2432V15.0572Z" fill="white"/>
</mask>
<g mask="url(#mask1_1_2138)">
<path d="M74.6241 16.0597V17.0559H72.2154V18.0515H70.606V19.047H69.1126V18.0515H67.5033V17.0559H65.0946V16.0597H61.077V15.0642H56.1558V16.0597H50.5401V17.0559H47.333V18.0515H45.7237V19.047H43.315V20.0425H41.7056V21.0381H40.9067V22.0342H39.2974V23.0298H37.688V24.0253H36.8892V25.0208H36.0903V26.017H35.291V27.0125H34.4922V28.0081H33.6934V29.0616H32.8946V30.0571H32.0952V31.0526H31.2852V33.0584H30.4746V35.0647H29.6753V42.1927H30.4746V44.1984H31.2734V45.1946H32.8828V46.1901H34.4922V47.1857H37.8152V46.1901H41.0228V45.1946H42.6322V44.1984H44.2415V43.2029H45.0404V42.2074H45.8392V41.2118H46.6385V40.2163H47.4373V39.2201H48.2361V38.2246H49.0349V37.229H49.8338V36.2335H50.6331V34.2278H51.4319V32.2214H52.2307V29.2055H53.0295V22.0629H52.1152V25.0641H51.3159V28.066H50.5171V30.0718H49.7183V31.0673H48.9194V33.073H48.1201V34.0686H47.3213V36.0743H46.5225V37.0704H45.7237V38.066H44.9248V39.0615H44.1255V40.0571H43.3267V41.0532H42.5161V42.0488H41.7173V43.0443H40.1079V44.0398H38.4985V45.0354H32.9871V44.0691H32.1883V43.073H31.3889V35.2087H32.1883V33.203H32.9871V31.1972H33.7859V30.2017H34.5847V29.2055H35.384V28.196H36.1829V27.1998H36.9817V26.2043H37.7805V25.2087H38.5793V24.2132H40.1892V23.217H40.988V22.2215H42.5974V21.226H44.2068V20.2304H46.615V19.2349H49.0237V18.2387H52.2307V17.2432H62.5591V18.2387H66.6002V19.2349H68.2096V20.1005H67.4102V21.096H66.6002V22.0916H64.9903V23.0877H64.1915V24.0833H63.3927V25.0788H61.7833V26.0743H60.9845V27.0699H60.1851V28.066H59.3863V29.0616H58.5875V30.0571H56.9781V31.0526H56.1793V32.0488H55.38V33.0444H54.5582V34.0399H53.7593V35.0354H52.96V36.031H52.1612V38.0373H51.3624V39.0329H50.5636V40.0284H49.7648V41.0239H48.9654V42.0195H48.1666V44.0691H47.3678V45.0647H46.569V47.0704H45.7697V48.0659H44.9708V49.0615H44.172V51.0672H43.3732V52.0634H42.5161V53.0589H41.7173V55.0646H40.9185V56.0601H40.1197V57.0557H39.3204V58.0519H38.5215V60.0576H37.7227V61.0531H36.9239V62.0486H36.1246V63.0442H35.3258V64.0404H34.527V65.0359H33.7281V66.0314H32.9293V67.027H31.2852V68.0225H29.6753V69.0187H23.365V68.0225H21.7556V66.1614H23.365V65.1658H24.1638V64.1697H24.9632V63.0302H24.1638V62.034H20.8525V63.0302H20.042V64.0257H19.2432V66.1614H20.042V68.1671H20.8408V69.1626H21.6401V70.1581H24.0483V71.1543H28.1702V70.1581H31.3777V69.1626H32.9871V68.1671H34.5965V67.1715H36.2059V66.176H37.0047V65.1798H38.6141V64.1843H39.4134V63.1888H40.2122V62.1932H41.011V61.1971H41.8098V60.2015H42.6092V59.206H43.408V58.2104H44.2068V57.2149H45.0056V56.2187H45.8044V55.2232H46.6037V54.2277H47.4026V53.2321H48.2014V52.236H49.0002V50.2302H49.7995V49.2347H50.5983V48.2392H51.3971V46.2335H52.196V45.2379H52.9948V44.2417H53.7941V42.236H54.5929V41.2405H55.3917V40.245H56.1905V38.2392H56.9899V37.2437H57.7887V35.2373H58.5875V34.2418H59.3863V33.2463H60.1851V32.2507H60.9845V31.2552H61.7833V30.259H62.5821V28.196H63.3809V27.1998H64.1802V26.2043H65.9051V25.2087H66.7039V24.2132H67.5033V23.217H68.3021V22.2215H69.9115V21.226H70.606V23.2317H71.4053V31.096H70.606V34.0979H69.8072V35.0934H69.0084V37.0991H68.2096V38.0946H67.4102V39.0902H66.6002V40.0864H65.7896V41.0819H64.9903V42.0774H64.1915V43.073H63.3927V44.0691H61.7833V45.0647H60.2894V44.0691H55.3687V45.0647H54.5582V46.2048H55.357V47.2003H60.1739V50.0716H59.3751V51.0672H58.5757V52.0634H57.7769V53.0589H56.9781V54.0544H56.1793V55.05H55.38V57.0557H54.5582V58.0519H53.7593V60.0576H52.96V62.0633H52.1612V67.2002H52.96V69.2059H54.5582V70.2015H56.1675V71.1976H59.4906V70.2015H61.8988V69.2059H63.5087V68.2104H65.0946V67.2149H65.8939V66.2193H66.6927V65.2231H67.4915V64.2276H68.2903V63.2321H69.0891V62.2365H69.8885V61.2404H70.6873V60.2448H71.4861V58.2104H72.2849V56.2047H73.0842V50.0716H72.1694V52.0774H71.3706V55.0793H70.5713V57.085H69.7725V59.076H68.9736V60.0716H68.1748V62.0773H67.3755V63.0735H66.6002V64.069H65.7896V65.0645H64.9903V66.0601H63.3809V67.0563H62.5821V68.0518H60.9727V69.0473H55.4612V67.0416H54.6624V66.176H55.4612V64.1703H56.2601V63.1741H57.0589V62.1786H57.8582V61.183H58.657V59.1773H59.4558V58.2104H60.2546V57.2149H61.054V56.2187H61.8528V54.213H62.6516V51.2118H63.4504V48.0806H62.6516V46.2188H63.4504V45.2233H65.9051V44.2277H67.5145V43.2029H68.3138V42.2074H69.1126V41.2118H70.722V40.2163H71.5209V39.2201H72.3197V37.2144H73.119V36.2189H73.9178V34.2131H74.7166V26.0603H73.9178V24.0686H73.119V22.0629H72.3197V21.0674H71.5209V20.2011H72.3197V19.2056H73.9291V18.2101H76.3378V17.2145H77.1366V16.0597H74.6241ZM58.5645 45.2086V46.0749H56.2601V45.2086H58.5645Z" fill="#FFD5FB"/>
</g>
<mask id="mask2_1_2138" style="mask-type:luminance" maskUnits="userSpaceOnUse" x="59" y="38" width="47" height="34">
<path d="M59.9956 38.3617H105.388V71.173H59.9956V38.3617Z" fill="white"/>
</mask>
<g mask="url(#mask2_1_2138)">
<path d="M104.111 51.9463V52.7406H103.474V54.3291H102.836V55.1233H102.199V55.9176H101.562V56.7119H100.924V57.5055H100.287V58.2998H99.6502V59.094H99.0129V60.6825H98.3755V61.4768H97.1009V62.2711H96.4636V63.0647H95.8268V63.859H95.1895V64.6532H94.5522V65.4475H93.9149V66.2417H92.6402V67.036H91.3661V67.8303H90.7288V68.6239H88.8076V69.4182H83.819V68.6239H83.1817V67.9774H83.819V67.1831H84.4563V66.3889H85.0936V64.801H85.731V64.0067H86.3683V63.2125H87.0056V62.4182H87.6424V61.6239H88.2797V60.8297H88.917V60.0354H89.5543V59.2418H90.1916V58.4475H90.829V56.859H91.4663V56.0647H92.1031V55.2705H92.7404V54.4768H93.3777V52.8883H94.015V52.0941H94.6523V50.5055H95.2897V48.9176H95.927V47.3291H96.5638V44.924H97.2011V40.7941H96.5638V39.9999H95.927V39.1941H95.2897V38.4005H90.0552V39.1941H88.1248V39.9884H86.8507V40.7827H86.2134V41.5769H85.5761V42.3712H84.3015V43.1655H83.6642V43.9597H83.0274V44.7533H82.39V45.5476H81.7527V46.3419H81.1154V47.1361H80.4781V47.9304H79.8408V48.7247H79.2035V49.5189H78.5667V50.3125H77.9293V51.1068H77.292V51.9011H76.6547V52.6953H76.0174V53.4896H75.3801V54.2839H74.7428V55.0781H74.106V55.8717H73.4687V56.666H72.8313V57.4603H72.194V58.2545H71.6753V56.8138H72.3126V56.0195H72.9494V54.431H73.5867V53.6367H74.224V52.8431H74.8613V51.2546H75.4987V50.4603H76.136V49.666H76.7733V48.0775H77.4101V47.2839H78.0474V45.6954H78.6847V44.9011H79.322V39.1941H78.6847V38.4005H74.7249V39.1941H73.4503V39.9884H72.8129V40.7827H72.1756V41.5769H71.5388V42.3712H70.9015V43.1655H70.2642V43.9597H69.6269V44.7533H68.9896V45.5476H68.3522V46.3419H67.7149V47.9304H67.0781V48.7247H66.4408V49.5189H65.8035V50.3125H65.1662V52.0603H66.5681V50.4718H67.2054V49.6775H67.8427V48.8833H68.48V48.089H69.1168V46.5011H69.7541V45.7068H70.3914V44.9126H71.0288V44.1183H71.6661V43.324H72.3034V42.5298H72.9407V41.7355H73.5775V40.9419H74.2148V40.1476H76.0082V42.3827H75.3709V43.1769H74.7341V44.7648H74.0968V45.5591H73.4595V47.1476H72.8221V47.9419H72.1848V49.5297H71.5475V50.324H70.9102V51.1183H70.2734V52.7068H69.6361V53.5011H68.9988V55.0889H68.3614V55.8832H67.7241V57.4717H67.0868V58.266H66.45V59.0603H65.8127V60.6481H65.1754V61.4424H64.5381V63.0309H63.9008V63.8252H63.2634V65.4137H62.6261V66.2074H61.9893V67.0016H61.352V68.5901H60.6324V69.3844H59.9956V70.3373H61.3975V69.543H66.5134V68.7487H67.1507V67.9545H67.788V66.3666H68.4253V65.5723H69.0626V64.7781H69.6994V63.9838H70.3368V62.3953H70.9741V61.6016H71.6114V60.8074H72.2487V60.0131H72.886V59.2189H73.5233V57.6303H74.1601V56.8361H74.7975V56.0424H75.4348V55.2482H76.0721V54.4539H76.7094V53.6597H77.3467V52.8654H77.984V52.0711H78.6208V51.2769H79.2581V50.4832H79.8955V49.689H80.5328V48.8947H81.1701V48.1005H81.8074V47.3062H82.4447V46.5119H83.0815V45.7177H83.7188V44.924H84.9935V44.1298H85.6308V43.3355H86.2681V42.5413H87.5422V41.747H88.1795V40.9527H89.4542V40.1585H90.7288V39.3648H93.1682V40.1585H93.8055V43.1992H93.1682V44.7877H92.5314V45.582H91.894V46.3763H91.2567V47.9641H90.6194V48.7584H89.9821V49.5527H89.3448V50.3469H88.7075V51.1412H88.0707V51.9355H87.4334V53.5234H86.796V54.3176H86.1587V55.1119H85.5214V55.9061H84.8841V56.7004H84.2468V58.2883H83.61V59.0826H82.9727V59.8768H82.3354V61.4653H81.698V63.0539H81.0607V65.4475H80.4234V68.7831H81.0607V69.5774H81.698V70.371H83.6187V71.1653H88.2163V70.371H90.137V69.5774H91.4116V68.7831H92.6857V67.9889H93.323V67.1946H94.5977V66.4003H95.235V65.6061H95.8723V64.8118H97.1464V64.0182H97.7837V63.2239H98.421V62.4297H99.0583V61.6354H99.6957V60.8411H100.333V60.0469H100.97V59.2526H101.607V58.459H102.244V56.8705H102.882V56.0762H103.519V55.2819H104.156V54.4877H104.794V53.6934H105.43V51.9463H104.111ZM70.2279 60.0698V60.7163H69.7086V60.0698H70.2279ZM70.8647 59.2641V59.9112H70.346V59.2641H70.8647ZM70.9833 59.1169V58.4698H71.502V59.1169H70.9833Z" fill="#FFD5FB"/>
</g>
<mask id="mask3_1_2138" style="mask-type:luminance" maskUnits="userSpaceOnUse" x="100" y="45" width="11" height="12">
<path d="M100.769 45.0884H110.058V56.6654H100.769V45.0884Z" fill="white"/>
</mask>
<g mask="url(#mask3_1_2138)">
<mask id="mask4_1_2138" style="mask-type:luminance" maskUnits="userSpaceOnUse" x="100" y="44" width="11" height="14">
<path d="M100.123 46.0979L109.301 44.189L110.833 55.6284L101.654 57.5374L100.123 46.0979Z" fill="white"/>
</mask>
<g mask="url(#mask4_1_2138)">
<mask id="mask5_1_2138" style="mask-type:luminance" maskUnits="userSpaceOnUse" x="100" y="44" width="11" height="14">
<path d="M100.123 46.0979L109.301 44.189L110.833 55.6284L101.654 57.5374L100.123 46.0979Z" fill="white"/>
</mask>
<g mask="url(#mask5_1_2138)">
<path d="M104.526 45.1826L104.819 45.1215L104.917 45.854L105.211 45.7935L105.406 47.2565L105.7 47.1954L105.797 47.9259L106.09 47.8648L106.188 48.5979L106.482 48.5368L106.531 48.9024L106.824 48.8412L106.873 49.2062L107.464 49.0833L107.513 49.4489L108.101 49.3266L108.15 49.6915L108.738 49.5692L108.787 49.9348L109.959 49.6909L110.008 50.0559L109.42 50.1781L109.469 50.5438L108.588 50.7266L108.637 51.0922L107.757 51.275L107.807 51.6399L107.514 51.7011L107.562 52.066L106.974 52.1883L107.073 52.9214L106.779 52.9826L106.829 53.3546L106.536 53.4151L106.683 54.5132L106.39 54.5743L106.537 55.6724L106.244 55.7335L106.342 56.4635L106.049 56.5246L105.853 55.0616L105.56 55.1221L105.425 54.1151L105.132 54.1762L105.071 53.7202L104.778 53.7813L104.68 53.0482L104.386 53.1093L104.338 52.7437L104.044 52.8049L103.996 52.4399L103.402 52.5628L103.353 52.1979L102.767 52.3195L102.718 51.9546L101.544 52.1985L101.495 51.8336L100.907 51.9558L100.858 51.5902L102.032 51.3463L101.984 50.9813L102.865 50.7979L102.816 50.4323L103.404 50.31L103.355 49.945L103.648 49.8839L103.599 49.5189L103.892 49.4578L103.843 49.0928L104.136 49.0317L104.087 48.6667L104.38 48.6055L104.282 47.8724L104.575 47.8119L104.427 46.7068L104.721 46.6463L104.524 45.1826H104.526Z" fill="#FFD5FB"/>
</g>
</g>
</g>
<mask id="mask6_1_2138" style="mask-type:luminance" maskUnits="userSpaceOnUse" x="32" y="17" width="12" height="14">
<path d="M32.8716 17.7013H43.4632V30.9025H32.8716V17.7013Z" fill="white"/>
</mask>
<g mask="url(#mask6_1_2138)">
<path d="M37.9808 17.7013H38.3212V18.5516H38.6611V20.2497H39.0015V21.0975H39.3413V21.9471H39.6812V22.3713H40.0216V22.7949H40.7079V23.2191H41.3902V23.6427H42.0725V24.0662H43.4325V24.4904H42.7502V24.914H41.7281V25.3376H40.7079V25.7618H40.3681V26.1853H39.6858V27.0356H39.3454V27.4675H39.0055V28.7414H38.6652V30.0152H38.3253V30.863H37.9854V29.1656H37.6451V27.9968H37.3052V27.4675H36.9653V26.6172H36.6249V26.1936H36.2851V25.7694H35.5967V25.3458H34.9164V24.9216H33.5539V24.4981H32.8716V24.0745H34.2341V23.6503H35.2563V23.2267H35.9386V22.8032H36.2784V22.379H36.6188V21.9554H36.9587V21.5312H37.2991V20.6815H37.6389V19.3994H37.9788V17.7013H37.9808Z" fill="#FFD5FB"/>
</g>
<mask id="mask7_1_2138" style="mask-type:luminance" maskUnits="userSpaceOnUse" x="14" y="57" width="6" height="7">
<path d="M14.6792 57.6437H19.1276V63.0246H14.6792V57.6437Z" fill="white"/>
</mask>
<g mask="url(#mask7_1_2138)">
<mask id="mask8_1_2138" style="mask-type:luminance" maskUnits="userSpaceOnUse" x="14" y="57" width="6" height="7">
<path d="M14.6064 57.9329L18.9 57.4361L19.2992 62.7877L15.0051 63.2845L14.6064 57.9329Z" fill="white"/>
</mask>
<g mask="url(#mask8_1_2138)">
<mask id="mask9_1_2138" style="mask-type:luminance" maskUnits="userSpaceOnUse" x="14" y="57" width="6" height="7">
<path d="M14.6064 57.9329L18.9 57.4361L19.2992 62.7877L15.0051 63.2845L14.6064 57.9329Z" fill="white"/>
</mask>
<g mask="url(#mask9_1_2138)">
<path d="M16.6582 57.696L16.7952 57.6801L16.8202 58.0215L16.9572 58.0055L17.0078 58.6877L17.1442 58.6718L17.1698 59.0119L17.3062 58.996L17.3318 59.3374L17.4683 59.3221L17.481 59.4921L17.6175 59.4762L17.6303 59.6463L17.9057 59.6144L17.9185 59.7845L18.1925 59.7527L18.2052 59.9234L18.4792 59.8915L18.4919 60.0616L19.0378 59.9985L19.0506 60.1686L18.7766 60.2004L18.7894 60.3705L18.379 60.4183L18.3918 60.5883L17.9819 60.6355L17.9947 60.8055L17.8582 60.8214L17.8705 60.9915L17.5965 61.0233L17.6221 61.3647L17.4856 61.3807L17.4984 61.5539L17.362 61.5698L17.4003 62.0813L17.2633 62.0972L17.3016 62.6087L17.1652 62.6246L17.1902 62.9647L17.0538 62.9807L17.0032 62.2991L16.8667 62.3151L16.8315 61.8456L16.695 61.8616L16.6792 61.6488L16.5427 61.6647L16.5171 61.3233L16.3807 61.3393L16.3679 61.1686L16.2314 61.1845L16.2187 61.0144L15.9422 61.0463L15.9294 60.8762L15.6565 60.9081L15.6437 60.7374L15.0969 60.8011L15.0841 60.631L14.8101 60.6622L14.7974 60.4921L15.3442 60.4291L15.332 60.259L15.7423 60.2112L15.7296 60.0412L16.0035 60.0093L15.9907 59.8393L16.1272 59.8234L16.1149 59.6533L16.2514 59.6374L16.2386 59.4673L16.3751 59.4514L16.3623 59.2813L16.4993 59.2654L16.4737 58.924L16.6102 58.9081L16.5718 58.3934L16.7083 58.3775L16.6577 57.696H16.6582Z" fill="#FFD5FB"/>
</g>
</g>
</g>
</g>
</svg>
