<svg width="587" height="333" viewBox="0 0 587 333" fill="none" xmlns="http://www.w3.org/2000/svg">
<mask id="mask0_1_1641" style="mask-type:luminance" maskUnits="userSpaceOnUse" x="0" y="0" width="587" height="333">
<path d="M586.337 0H0V332.121H586.337V0Z" fill="white"/>
</mask>
<g mask="url(#mask0_1_1641)">
<mask id="mask1_1_1641" style="mask-type:luminance" maskUnits="userSpaceOnUse" x="226" y="139" width="318" height="168">
<path d="M226.78 139.986H543.169V306.811H226.78V139.986Z" fill="white"/>
</mask>
<g mask="url(#mask1_1_1641)">
<path d="M538.905 148.751V144.386H534.6V140.082H494.919V144.386H486.25V148.691H477.581V152.991H468.908V157.295H464.607V161.6H460.303V166.029H455.999V170.333H447.329V174.638H443.025V178.938H438.721V183.242H434.42V187.547H430.116V191.976H425.811V196.28H421.507V200.584H417.206V204.885H412.902V209.189H408.409V213.494H404.105V222.163H399.8V226.467H395.5V230.772H391.195V235.072H386.891V239.377H382.462V243.681H378.158V252.35H373.853V256.655H370.309V248.807H374.614V240.138H378.918V227.164H383.219V218.495H387.523V205.522H391.828V192.736H396.132V175.458H400.433V162.485H404.737V153.816H409.042V148.691H399.612V157.36H395.307V161.664H391.764V157.36H382.462V161.664H373.793V166.029H361.576V161.724H352.907V157.424H339.934V153.119H331.265V148.815H318.291V144.386H287.343V148.691H274.37V152.991H265.701V157.295H261.396V161.6H257.092V166.029H252.727V179.002H248.423V188.432H252.727V201.405H257.028V205.71H261.332V210.014H265.637V214.315H301.013V210.014H309.682V205.71H313.987V201.405H318.291V192.736H322.592V179.002H318.291V170.333H300.189V179.763H313.162V196.28H308.862V200.584H304.621V204.885H300.317V209.189H270.826V204.885H266.522V200.584H262.217V196.28H257.917V175.458H262.217V166.789H266.522V162.485H270.826V158.18H279.495V153.88H308.986V158.18H321.959V162.485H326.264V166.789H339.237V171.094H352.211V175.394H370.309V171.094H382.462V178.938H378.158V183.242H373.853V187.547H369.553V191.976H365.248V196.28H360.944V204.949H356.515V209.253H352.211V213.558H347.906V217.858H343.606V222.163H339.301V226.467H334.997V235.136H330.568V239.441H326.264V243.745H321.959V248.046H317.659V252.35H313.354V256.655H309.05V260.959H304.621V265.26H300.317V269.564H296.012V273.869H291.712V278.173H287.407V282.474H278.674V286.778H274.37V291.083H270.065V295.387H257.028V299.687H240.511V295.763H236.21V292.22H244.879V278.489H231.081V282.79H226.78V296.524H231.081V300.829H235.385V305.133H266.458V300.829H275.131V296.524H279.431V292.22H288.104V287.919H292.404V283.615H296.709V279.31H301.013V274.882H305.318V270.577H309.618V266.273H313.923V261.972H318.227V257.668H322.532V253.363H326.832V249.059H331.137V244.758H335.441V240.454H339.742V236.149H344.046V231.845H348.351V223.176H352.655V218.871H356.956V214.571H361.26V210.267H365.565V205.962H369.108V213.81H364.804V222.479H360.503V235.453H356.515V243.869H352.211V256.843H347.906V269.816H343.606V287.094H339.301V295.763H334.997V300.068H330.568V309.498H335.693V305.193H339.998V300.829H344.298V296.524H348.603V292.22H352.907V287.919H357.212V283.615H361.512V274.882H365.817V270.577H370.121V266.273H374.426V261.972H378.726V257.668H383.031V248.999H387.335V244.694H391.64V240.39H395.94V236.085H400.245V231.785H404.549V227.48H408.85V223.176H413.154V218.871H417.458V210.202H421.763V205.898H426.063V201.598H430.368V197.293H434.672V192.989H438.977V188.684H443.277V184.384H447.582V180.079H451.886V175.775H460.555V171.47H464.86V167.17H469.164V162.865H473.465V158.561H482.138V154.256H491.311V149.956H499.984V145.207H525.106V149.511H529.411V153.816H533.715V166.029H529.411V174.698H525.106V183.371H520.802V187.671H516.501V191.976H507.828V196.28H503.528V200.584H494.855V205.71H508.589V201.405H512.894V197.101H521.563V192.8H525.867V188.496H530.172V184.191H534.472V179.887H538.777V171.154H543.081V148.751H538.905ZM365.12 261.908V265.452H361.576V261.908H365.12ZM365.945 261.147V257.604H369.489V261.147H365.945ZM373.793 197.101V204.949H370.245V197.101H373.793ZM374.55 196.28V192.736H378.094V196.28H374.55ZM391.067 166.029H387.523V162.485H391.067V166.029ZM383.219 166.789H386.767V170.333H383.219V166.789Z" fill="#FFD5FB"/>
</g>
<mask id="mask2_1_1641" style="mask-type:luminance" maskUnits="userSpaceOnUse" x="0" y="14" width="322" height="249">
<path d="M0 14.9395H321.871V262.301H0V14.9395Z" fill="white"/>
</mask>
<g mask="url(#mask2_1_1641)">
<path d="M307.387 19.4044V23.8371H294.022V28.2737H285.088V32.7063H276.8V28.2737H267.866V23.8371H254.496V19.4044H232.197V14.9678H204.885V19.4044H173.713V23.8371H155.91V28.2737H146.977V32.7063H133.611V37.1429H124.678V41.5755H120.245V46.0121H111.312V50.4447H102.378V54.8773H97.9418V59.3139H93.5092V63.7465H89.0726V68.1831H84.64V72.6158H80.2034V77.3086H75.7707V81.7412H71.3381V86.1778H66.8375V95.1111H62.3408V104.044H57.9042V135.789H62.3408V144.723H66.7734V149.159H75.7067V153.592H84.64V158.029H103.083V153.592H120.886V149.159H129.819V144.723H138.752V140.29H143.189V135.857H147.621V131.421H152.054V126.988H156.491V122.552H160.923V118.119H165.36V113.682H169.792V109.25H174.229V100.317H178.662V91.3833H183.098V77.9493H187.531V46.1402H182.454V59.5061H178.021V72.872H173.584V81.8053H169.152V86.2419H164.715V95.1752H160.283V99.6078H155.846V108.541H151.413V112.978H146.977V117.41H142.544V121.847H138.112V126.28H133.675V130.716H129.178V135.149H124.742V139.581H115.808V144.018H106.875V148.451H76.2833V144.146H71.8507V139.713H67.4181V104.685H71.8507V95.7518H76.2833V86.8185H80.7199V82.3859H85.1525V77.9493H89.5891V73.4526H94.0217V69.016H98.4583V64.5834H102.891V60.1508H107.328V55.7142H116.261V51.2816H120.693V46.845H129.627V42.4124H138.56V37.9757H151.926V33.5431H165.296V29.1065H183.098V24.6739H240.422V29.1065H262.853V33.5431H271.786V37.3991H267.35V41.8318H262.853V46.2684H253.92V50.701H249.483V55.1376H245.051V59.5702H236.117V64.0068H231.681V68.4394H227.248V72.872H222.816V77.3086H218.379V81.7412H209.446V86.1778H205.013V90.6105H200.576V95.0471H196.016V99.4797H191.579V103.916H187.146V108.349H182.71V117.282H178.277V121.719H173.841V126.151H169.408V130.584H164.971V135.021H160.539V144.146H156.106V148.579H151.67V157.512H147.237V161.949H142.8V166.381H138.368V175.314H133.931V179.751H129.178V184.184H124.742V193.117H120.309V197.554H115.872V201.986H111.44V206.419H107.003V215.352H102.571V219.789H98.134V224.221H93.7014V228.658H89.2688V233.091H84.8322V237.527H80.3996V241.96H75.9629V246.396H66.8375V250.829H57.9042V255.266H22.8798V250.829H13.9465V242.54H22.8798V238.104H27.3124V233.671H31.749V228.594H27.3124V224.157H8.93328V228.594H4.43261V233.026H0V242.54H4.43261V251.474H8.86922V255.906H13.3018V260.339H26.6717V264.775H49.5515V260.339H67.35V255.906H76.2833V251.474H85.2166V247.037H94.1498V242.604H98.5865V238.168H107.52V233.735H111.952V229.299H116.389V224.866H120.822V220.429H125.258V215.997H129.691V211.564H134.123V207.128H138.56V202.695H142.993V198.258H147.429V193.826H151.862V189.389H156.298V184.957H160.731V180.52H165.168V171.587H169.6V167.154H174.037V162.717H178.469V153.788H182.902V149.352H187.339V144.919H191.771V135.986H196.208V131.549H200.641V127.116H205.077V118.183H209.51V113.747H213.946V104.813H218.379V100.381H222.816V95.944H227.248V91.5114H231.681V87.0788H236.117V82.6422H240.55V73.4526H244.987V69.016H249.419V64.5834H258.997V60.1508H263.43V55.7142H267.866V51.2816H272.299V46.845H281.232V42.4124H285.088V51.3456H289.521V86.37H285.088V99.7359H280.656V104.173H276.219V113.106H271.786V117.538H267.35V121.975H262.853V126.408H258.353V130.844H253.92V135.277H249.483V139.713H245.051V144.146H236.117V148.579H227.825V144.146H200.512V148.579H196.016V153.656H200.448V158.093H227.184V170.882H222.747V175.314H218.315V179.751H213.882V184.184H209.446V188.62H205.013V193.053H200.576V201.986H196.016V206.419H191.579V215.352H187.146V224.285H182.71V247.165H187.146V256.098H196.016V260.535H204.949V264.968H223.392V260.535H236.758V256.098H245.691V251.666H254.496V247.229H258.933V242.797H263.366V238.36H267.802V233.927H272.235V229.491H276.668V225.058H281.104V220.626H285.537V216.189H289.973V207.128H294.406V198.194H298.843V170.882H293.765V179.815H289.329V193.181H284.896V202.114H280.459V210.984H276.027V215.42H271.594V224.349H267.158V228.786H262.853V233.219H258.353V237.655H253.92V242.088H244.987V246.525H240.55V250.957H231.617V255.394H201.029V246.46H196.592V242.604H201.029V233.671H205.462V229.235H209.894V224.802H214.331V220.365H218.763V211.432H223.2V207.128H227.633V202.695H232.069V198.258H236.502V189.325H240.938V175.959H245.371V162.013H240.938V153.72H245.371V149.287H258.997V144.855H267.93V140.29H272.363V135.857H276.8V131.421H285.733V126.988H290.166V122.552H294.598V113.618H299.035V109.186H303.467V100.252H307.904V63.9427H303.467V55.0735H299.035V46.1402H294.598V41.7036H290.166V37.8476H294.598V33.415H303.531V28.9784H316.901V24.5458H321.334V19.4044H307.387ZM218.251 149.223V153.079H205.462V149.223H218.251Z" fill="#FFD5FB"/>
</g>
<mask id="mask3_1_1641" style="mask-type:luminance" maskUnits="userSpaceOnUse" x="303" y="0" width="224" height="157">
<path d="M303.42 0.380432H526.884V156.835H303.42V0.380432Z" fill="white"/>
</mask>
<g mask="url(#mask3_1_1641)">
<mask id="mask4_1_1641" style="mask-type:luminance" maskUnits="userSpaceOnUse" x="303" y="0" width="224" height="157">
<path d="M526.884 0H303.42V156.835H526.884V0Z" fill="white"/>
</mask>
<g mask="url(#mask4_1_1641)">
<path d="M318.844 114.013H322.496V117.665H318.844V114.013ZM318.844 110.377H322.496V114.029H318.844V110.377ZM318.844 106.725H322.496V110.377H318.844V106.725ZM318.844 103.09H322.496V106.741H318.844V103.09ZM318.844 99.4377H322.496V103.09H318.844V99.4377ZM318.844 95.8019H322.496V99.4537H318.844V95.8019ZM318.844 92.1502H322.496V95.8019H318.844V92.1502ZM318.844 88.5144H322.496V92.1662H318.844V88.5144ZM318.844 84.8626H322.496V88.5144H318.844V84.8626ZM318.844 81.2268H322.496V84.8786H318.844V81.2268ZM322.496 81.2268H326.147V84.8786H322.496V81.2268ZM326.131 81.2268H329.783V84.8786H326.131V81.2268ZM315.208 81.2268H318.86V84.8786H315.208V81.2268ZM315.208 84.8626H318.86V88.5144H315.208V84.8626ZM315.208 88.5144H318.86V92.1662H315.208V88.5144ZM315.208 92.1502H318.86V95.8019H315.208V92.1502ZM315.208 95.8019H318.86V99.4537H315.208V95.8019ZM315.208 99.4377H318.86V103.09H315.208V99.4377ZM315.208 103.09H318.86V106.741H315.208V103.09ZM315.208 106.725H318.86V110.377H315.208V106.725ZM315.208 110.377H318.86V114.029H315.208V110.377ZM322.496 110.377H326.147V114.029H322.496V110.377ZM326.131 110.377H329.783V114.029H326.131V110.377ZM326.131 106.725H329.783V110.377H326.131V106.725ZM326.131 103.09H329.783V106.741H326.131V103.09ZM326.131 99.4377H329.783V103.09H326.131V99.4377ZM326.131 95.8019H329.783V99.4537H326.131V95.8019ZM326.131 92.1502H329.783V95.8019H326.131V92.1502ZM326.131 88.5144H329.783V92.1662H326.131V88.5144ZM326.131 84.8626H329.783V88.5144H326.131V84.8626ZM322.496 84.8626H326.147V88.5144H322.496V84.8626ZM322.496 88.5144H326.147V92.1662H322.496V88.5144ZM322.496 92.1502H326.147V95.8019H322.496V92.1502ZM322.496 95.8019H326.147V99.4537H322.496V95.8019ZM322.496 99.4377H326.147V103.09H322.496V99.4377ZM322.496 103.09H326.147V106.741H322.496V103.09ZM322.496 106.725H326.147V110.377H322.496V106.725ZM322.496 114.013H326.147V117.665H322.496V114.013ZM326.131 114.013H329.783V117.665H326.131V114.013ZM326.131 117.665H329.783V121.316H326.131V117.665ZM322.496 117.665H326.147V121.316H322.496V117.665ZM329.783 110.377H333.435V114.029H329.783V110.377ZM333.419 110.377H337.071V114.029H333.419V110.377ZM337.071 110.377H340.723V114.029H337.071V110.377ZM326.131 77.575H329.783V81.2268H326.131V77.575ZM326.131 73.9392H329.783V77.591H326.131V73.9392ZM326.131 70.2874H329.783V73.9392H326.131V70.2874ZM326.131 66.6516H329.783V70.3034H326.131V66.6516ZM315.208 73.9392H318.86V77.591H315.208V73.9392ZM315.208 77.575H318.86V81.2268H315.208V77.575ZM318.844 77.575H322.496V81.2268H318.844V77.575ZM318.844 73.9392H322.496V77.591H318.844V73.9392ZM322.496 73.9392H326.147V77.591H322.496V73.9392ZM322.496 70.2874H326.147V73.9392H322.496V70.2874ZM322.496 66.6516H326.147V70.3034H322.496V66.6516ZM322.496 77.575H326.147V81.2268H322.496V77.575ZM333.419 59.3481H337.071V62.9998H333.419V59.3481ZM333.419 62.9998H337.071V66.6516H333.419V62.9998ZM329.783 62.9998H333.435V66.6516H329.783V62.9998ZM337.071 59.3481H340.723V62.9998H337.071V59.3481ZM340.706 59.3481H344.358V62.9998H340.706V59.3481ZM340.706 62.9998H344.358V66.6516H340.706V62.9998ZM337.071 62.9998H340.723V66.6516H337.071V62.9998ZM340.706 66.6516H344.358V70.3034H340.706V66.6516ZM347.994 66.6516H351.646V70.3034H347.994V66.6516ZM347.994 70.2874H351.646V73.9392H347.994V70.2874ZM344.358 70.2874H348.01V73.9392H344.358V70.2874ZM344.358 66.6516H348.01V70.3034H344.358V66.6516ZM318.844 70.2874H322.496V73.9392H318.844V70.2874ZM311.556 110.377H315.208V114.029H311.556V110.377ZM307.92 110.377H311.572V114.029H307.92V110.377ZM307.92 106.725H311.572V110.377H307.92V106.725ZM311.556 106.725H315.208V110.377H311.556V106.725ZM329.783 106.725H333.435V110.377H329.783V106.725ZM333.419 106.725H337.071V110.377H333.419V106.725ZM337.071 106.725H340.723V110.377H337.071V106.725ZM340.706 106.725H344.358V110.377H340.706V106.725ZM329.783 117.665H333.435V121.316H329.783V117.665ZM329.783 114.013H333.435V117.665H329.783V114.013ZM333.419 114.013H337.071V117.665H333.419V114.013ZM337.071 66.6516H340.723V70.3034H337.071V66.6516ZM340.706 70.2874H344.358V73.9392H340.706V70.2874ZM347.994 73.9392H351.646V77.591H347.994V73.9392ZM344.358 73.9392H348.01V77.591H344.358V73.9392ZM347.994 77.575H351.646V81.2268H347.994V77.575ZM344.358 59.3481H348.01V62.9998H344.358V59.3481ZM347.994 62.9998H351.646V66.6516H347.994V62.9998ZM344.358 62.9998H348.01V66.6516H344.358V62.9998ZM351.646 66.6516H355.298V70.3034H351.646V66.6516ZM351.646 70.2874H355.298V73.9392H351.646V70.2874ZM351.646 73.9392H355.298V77.591H351.646V73.9392ZM340.706 81.2268H344.358V84.8786H340.706V81.2268ZM337.071 81.2268H340.723V84.8786H337.071V81.2268ZM333.419 81.2268H337.071V84.8786H333.419V81.2268ZM329.783 81.2268H333.435V84.8786H329.783V81.2268ZM329.783 84.8626H333.435V88.5144H329.783V84.8626ZM333.419 84.8626H337.071V88.5144H333.419V84.8626ZM337.071 84.8626H340.723V88.5144H337.071V84.8626ZM340.706 84.8626H344.358V88.5144H340.706V84.8626ZM344.358 81.2268H348.01V84.8786H344.358V81.2268ZM344.358 84.8626H348.01V88.5144H344.358V84.8626ZM351.646 77.575H355.298V81.2268H351.646V77.575ZM329.783 66.6516H333.435V70.3034H329.783V66.6516ZM326.131 62.9998H329.783V66.6516H326.131V62.9998ZM329.783 59.3481H333.435V62.9998H329.783V59.3481Z" fill="#FFD5FB"/>
<path d="M351.597 117.665H355.232V121.316H351.597V117.665ZM351.597 114.029H355.232V117.665H351.597V114.029ZM355.232 114.029H358.884V117.665H355.232V114.029ZM358.884 110.377H362.52V114.029H358.884V110.377ZM358.884 106.741H362.52V110.377H358.884V106.741ZM362.52 106.741H366.172V110.377H362.52V106.741ZM369.808 99.4537H373.459V103.09H369.808V99.4537ZM366.172 99.4537H369.808V103.09H366.172V99.4537ZM373.459 92.1661H377.095V95.8019H373.459V92.1661ZM377.095 92.1661H380.747V95.8019H377.095V92.1661ZM384.383 84.8786H388.034V88.5144H384.383V84.8786ZM380.747 84.8786H384.383V88.5144H380.747V84.8786ZM388.034 77.591H391.67V81.2268H388.034V77.591ZM391.67 77.591H395.322V81.2268H391.67V77.591ZM395.322 70.3034H398.958V73.9392H395.322V70.3034ZM398.958 70.3034H402.61V73.9392H398.958V70.3034ZM402.61 62.9998H406.261V66.6516H402.61V62.9998ZM406.261 62.9998H409.897V66.6516H406.261V62.9998ZM406.261 59.3641H409.897V62.9998H406.261V59.3641ZM402.61 59.3641H406.261V62.9998H402.61V59.3641ZM398.958 66.6516H402.61V70.3034H398.958V66.6516ZM395.322 66.6516H398.958V70.3034H395.322V66.6516ZM388.034 73.9392H391.67V77.591H388.034V73.9392ZM391.67 73.9392H395.322V77.591H391.67V73.9392ZM380.747 81.2268H384.383V84.8786H380.747V81.2268ZM384.383 81.2268H388.034V84.8786H384.383V81.2268ZM373.459 88.5144H377.095V92.1661H373.459V88.5144ZM377.095 88.5144H380.747V92.1661H377.095V88.5144ZM369.808 95.8019H373.459V99.4537H369.808V95.8019ZM362.52 103.09H366.172V106.741H362.52V103.09ZM366.172 103.09H369.808V106.741H366.172V103.09ZM369.808 103.09H373.459V106.741H369.808V103.09ZM373.459 103.09H377.095V106.741H373.459V103.09ZM373.459 106.741H377.095V110.377H373.459V106.741ZM369.808 106.741H373.459V110.377H369.808V106.741ZM366.172 106.741H369.808V110.377H366.172V106.741ZM369.808 110.377H373.459V114.029H369.808V110.377ZM373.459 110.377H377.095V114.029H373.459V110.377ZM373.459 114.029H377.095V117.665H373.459V114.029ZM373.459 117.665H377.095V121.316H373.459V117.665ZM377.095 117.665H380.747V121.316H377.095V117.665ZM377.095 114.029H380.747V117.665H377.095V114.029ZM380.747 114.029H384.383V117.665H380.747V114.029ZM380.747 117.665H384.383V121.316H380.747V117.665ZM384.383 117.665H388.034V121.316H384.383V117.665ZM384.383 114.029H388.034V117.665H384.383V114.029ZM388.034 114.029H391.67V117.665H388.034V114.029ZM391.67 114.029H395.322V117.665H391.67V114.029ZM391.67 117.665H395.322V121.316H391.67V117.665ZM388.034 117.665H391.67V121.316H388.034V117.665ZM395.322 114.029H398.958V117.665H395.322V114.029ZM398.958 114.029H402.61V117.665H398.958V114.029ZM395.322 117.665H398.958V121.316H395.322V117.665ZM380.747 106.741H384.383V110.377H380.747V106.741ZM384.383 106.741H388.034V110.377H384.383V106.741ZM388.034 106.741H391.67V110.377H388.034V106.741ZM391.67 106.741H395.322V110.377H391.67V106.741ZM398.958 110.377H402.61V114.029H398.958V110.377ZM395.322 110.377H398.958V114.029H395.322V110.377ZM391.67 110.377H395.322V114.029H391.67V110.377ZM388.034 110.377H391.67V114.029H388.034V110.377ZM384.383 110.377H388.034V114.029H384.383V110.377ZM380.747 110.377H384.383V114.029H380.747V110.377ZM377.095 110.377H380.747V114.029H377.095V110.377ZM402.61 106.741H406.261V110.377H402.61V106.741ZM406.261 106.741H409.897V110.377H406.261V106.741ZM402.61 110.377H406.261V114.029H402.61V110.377ZM406.261 103.09H409.897V106.741H406.261V103.09ZM406.261 99.4537H409.897V103.09H406.261V99.4537ZM402.61 103.09H406.261V106.741H402.61V103.09ZM391.67 66.6516H395.322V70.3034H391.67V66.6516ZM388.034 66.6516H391.67V70.3034H388.034V66.6516ZM384.383 66.6516H388.034V70.3034H384.383V66.6516ZM380.747 66.6516H384.383V70.3034H380.747V66.6516ZM377.095 66.6516H380.747V70.3034H377.095V66.6516ZM373.459 66.6516H377.095V70.3034H373.459V66.6516ZM369.808 66.6516H373.459V70.3034H369.808V66.6516ZM366.172 66.6516H369.808V70.3034H366.172V66.6516ZM362.52 66.6516H366.172V70.3034H362.52V66.6516ZM362.52 70.3034H366.172V73.9392H362.52V70.3034ZM366.172 70.3034H369.808V73.9392H366.172V70.3034ZM369.808 70.3034H373.459V73.9392H369.808V70.3034ZM373.459 70.3034H377.095V73.9392H373.459V70.3034ZM377.095 70.3034H380.747V73.9392H377.095V70.3034ZM380.747 70.3034H384.383V73.9392H380.747V70.3034ZM384.383 70.3034H388.034V73.9392H384.383V70.3034ZM388.034 70.3034H391.67V73.9392H388.034V70.3034ZM391.67 70.3034H395.322V73.9392H391.67V70.3034ZM358.884 70.3034H362.52V73.9392H358.884V70.3034ZM355.232 70.3034H358.884V73.9392H355.232V70.3034ZM351.597 70.3034H355.232V73.9392H351.597V70.3034ZM355.232 66.6516H358.884V70.3034H355.232V66.6516ZM358.884 66.6516H362.52V70.3034H358.884V66.6516ZM358.884 62.9998H362.52V66.6516H358.884V62.9998ZM362.52 59.3641H366.172V62.9998H362.52V59.3641ZM362.52 62.9998H366.172V66.6516H362.52V62.9998ZM366.172 62.9998H369.808V66.6516H366.172V62.9998ZM366.172 59.3641H369.808V62.9998H366.172V59.3641ZM369.808 59.3641H373.459V62.9998H369.808V59.3641ZM369.808 62.9998H373.459V66.6516H369.808V62.9998ZM373.459 59.3641H377.095V62.9998H373.459V59.3641ZM377.095 59.3641H380.747V62.9998H377.095V59.3641ZM377.095 62.9998H380.747V66.6516H377.095V62.9998ZM373.459 62.9998H377.095V66.6516H373.459V62.9998ZM380.747 59.3641H384.383V62.9998H380.747V59.3641ZM384.383 59.3641H388.034V62.9998H384.383V59.3641ZM384.383 62.9998H388.034V66.6516H384.383V62.9998ZM380.747 62.9998H384.383V66.6516H380.747V62.9998ZM351.597 73.9392H355.232V77.591H351.597V73.9392ZM355.232 73.9392H358.884V77.591H355.232V73.9392ZM355.232 77.591H358.884V81.2268H355.232V77.591ZM351.597 77.591H355.232V81.2268H351.597V77.591ZM366.172 110.377H369.808V114.029H366.172V110.377ZM377.095 106.741H380.747V110.377H377.095V106.741ZM395.322 106.741H398.958V110.377H395.322V106.741ZM398.958 106.741H402.61V110.377H398.958V106.741ZM369.808 114.029H373.459V117.665H369.808V114.029ZM355.232 110.377H358.884V114.029H355.232V110.377ZM369.808 92.1661H373.459V95.8019H369.808V92.1661ZM373.459 95.8019H377.095V99.4537H373.459V95.8019ZM377.095 84.8786H380.747V88.5144H377.095V84.8786ZM380.747 88.5144H384.383V92.1661H380.747V88.5144ZM384.383 77.591H388.034V81.2268H384.383V77.591ZM388.034 81.2268H391.67V84.8786H388.034V81.2268ZM395.322 73.9392H398.958V77.591H395.322V73.9392ZM398.958 62.9998H402.61V66.6516H398.958V62.9998ZM402.61 66.6516H406.261V70.3034H402.61V66.6516ZM358.884 73.9392H362.52V77.591H358.884V73.9392ZM388.034 62.9998H391.67V66.6516H388.034V62.9998ZM366.172 95.8019H369.808V99.4537H366.172V95.8019ZM362.52 99.4537H366.172V103.09H362.52V99.4537ZM358.884 103.09H362.52V106.741H358.884V103.09ZM355.232 106.741H358.884V110.377H355.232V106.741ZM351.597 110.377H355.232V114.029H351.597V110.377ZM347.945 114.029H351.597V117.665H347.945V114.029ZM347.945 117.665H351.597V121.316H347.945V117.665ZM380.747 33.8495V30.2138H384.383V33.8495H380.747ZM377.095 33.8495V30.2138H380.747V33.8495H377.095ZM377.095 37.5013V33.8495H380.747V37.5013H377.095ZM380.747 37.5013V33.8495H384.383V37.5013H380.747ZM373.459 33.8495V30.2138H377.095V33.8495H373.459ZM369.808 30.2138V26.562H373.459V30.2138H369.808ZM373.459 30.2138V26.562H377.095V30.2138H373.459ZM369.808 26.562V22.9262H373.459V26.562H369.808ZM384.383 37.5013V33.8495H388.034V37.5013H384.383ZM384.383 33.8495V30.2138H388.034V33.8495H384.383ZM388.034 33.8495V30.2138H391.67V33.8495H388.034ZM388.034 30.2138V26.562H391.67V30.2138H388.034ZM384.383 30.2138V26.562H388.034V30.2138H384.383ZM391.67 30.2138V26.562H395.322V30.2138H391.67ZM391.67 26.562V22.9262H395.322V26.562H391.67ZM388.034 26.562V22.9262H391.67V26.562H388.034ZM373.459 37.5013V33.8495H377.095V37.5013H373.459ZM369.808 33.8495V30.2138H373.459V33.8495H369.808ZM366.172 26.562V22.9262H369.808V26.562H366.172ZM366.172 30.2138V26.562H369.808V30.2138H366.172ZM377.095 41.1371V37.5013H380.747V41.1371H377.095ZM380.747 41.1371V37.5013H384.383V41.1371H380.747ZM391.67 33.8495V30.2138H395.322V33.8495H391.67ZM388.034 37.5013V33.8495H391.67V37.5013H388.034ZM384.383 41.1371V37.5013H388.034V41.1371H384.383ZM373.459 41.1371V37.5013H377.095V41.1371H373.459ZM369.808 37.5013V33.8495H373.459V37.5013H369.808ZM366.172 33.8495V30.2138H369.808V33.8495H366.172ZM362.52 30.2138V26.562H366.172V30.2138H362.52ZM362.52 26.562V22.9262H366.172V26.562H362.52ZM395.322 30.2138V26.562H398.958V30.2138H395.322ZM395.322 26.562V22.9262H398.958V26.562H395.322ZM377.095 44.7889V41.1371H380.747V44.7889H377.095ZM380.747 44.7889V41.1371H384.383V44.7889H380.747Z" fill="#FFD5FB"/>
<path d="M417.126 117.665H420.778V121.316H417.126V117.665ZM420.778 117.665H424.43V121.316H420.778V117.665ZM413.49 114.013H417.142V117.665H413.49V114.013ZM417.126 114.013H420.778V117.665H417.126V114.013ZM420.778 114.013H424.43V117.665H420.778V114.013ZM424.414 114.013H428.065V117.665H424.414V114.013ZM409.838 110.377H413.49V114.029H409.838V110.377ZM413.49 110.377H417.142V114.029H413.49V110.377ZM413.49 106.725H417.142V110.377H413.49V106.725ZM417.126 106.725H420.778V110.377H417.126V106.725ZM417.126 110.377H420.778V114.029H417.126V110.377ZM420.778 110.377H424.43V114.029H420.778V110.377ZM424.414 110.377H428.065V114.029H424.414V110.377ZM424.414 106.725H428.065V110.377H424.414V106.725ZM420.778 106.725H424.43V110.377H420.778V106.725ZM417.126 103.089H420.778V106.741H417.126V103.089ZM420.778 103.089H424.43V106.741H420.778V103.089ZM424.414 103.089H428.065V106.741H424.414V103.089ZM424.414 99.4377H428.065V103.089H424.414V99.4377ZM420.778 99.4377H424.43V103.089H420.778V99.4377ZM417.126 99.4377H420.778V103.089H417.126V99.4377ZM417.126 95.8019H420.778V99.4537H417.126V95.8019ZM417.126 92.1501H420.778V95.8019H417.126V92.1501ZM417.126 88.5143H420.778V92.1661H417.126V88.5143ZM417.126 84.8625H420.778V88.5143H417.126V84.8625ZM417.126 81.2268H420.778V84.8786H417.126V81.2268ZM420.778 81.2268H424.43V84.8786H420.778V81.2268ZM424.414 81.2268H428.065V84.8786H424.414V81.2268ZM424.414 84.8625H428.065V88.5143H424.414V84.8625ZM424.414 88.5143H428.065V92.1661H424.414V88.5143ZM424.414 92.1501H428.065V95.8019H424.414V92.1501ZM420.778 92.1501H424.43V95.8019H420.778V92.1501ZM420.778 95.8019H424.43V99.4537H420.778V95.8019ZM420.778 88.5143H424.43V92.1661H420.778V88.5143ZM420.778 84.8625H424.43V88.5143H420.778V84.8625ZM424.414 95.8019H428.065V99.4537H424.414V95.8019ZM424.414 77.575H428.065V81.2268H424.414V77.575ZM424.414 73.9392H428.065V77.591H424.414V73.9392ZM424.414 70.2874H428.065V73.9392H424.414V70.2874ZM424.414 66.6516H428.065V70.3034H424.414V66.6516ZM424.414 62.9998H428.065V66.6516H424.414V62.9998ZM417.126 62.9998H420.778V66.6516H417.126V62.9998ZM420.778 66.6516H424.43V70.3034H420.778V66.6516ZM420.778 70.2874H424.43V73.9392H420.778V70.2874ZM420.778 73.9392H424.43V77.591H420.778V73.9392ZM420.778 77.575H424.43V81.2268H420.778V77.575ZM417.126 77.575H420.778V81.2268H417.126V77.575ZM417.126 73.9392H420.778V77.591H417.126V73.9392ZM417.126 70.2874H420.778V73.9392H417.126V70.2874ZM417.126 66.6516H420.778V70.3034H417.126V66.6516ZM420.778 62.9998H424.43V66.6516H420.778V62.9998ZM413.49 103.089H417.142V106.741H413.49V103.089ZM413.49 99.4377H417.142V103.089H413.49V99.4377ZM413.49 95.8019H417.142V99.4537H413.49V95.8019ZM413.49 92.1501H417.142V95.8019H413.49V92.1501ZM413.49 88.5143H417.142V92.1661H413.49V88.5143ZM413.49 84.8625H417.142V88.5143H413.49V84.8625ZM413.49 81.2268H417.142V84.8786H413.49V81.2268ZM413.49 77.575H417.142V81.2268H413.49V77.575ZM413.49 73.9392H417.142V77.591H413.49V73.9392ZM413.49 70.2874H417.142V73.9392H413.49V70.2874ZM413.49 62.9998H417.142V66.6516H413.49V62.9998ZM413.49 66.6516H417.142V70.3034H413.49V66.6516ZM431.701 106.725H435.353V110.377H431.701V106.725ZM417.126 59.348H420.778V62.9998H417.126V59.348ZM420.778 59.348H424.43V62.9998H420.778V59.348ZM413.49 44.7729H417.142V48.4247H413.49V44.7729ZM417.126 44.7729H420.778V48.4247H417.126V44.7729ZM420.778 44.7729H424.43V48.4247H420.778V44.7729ZM424.414 44.7729H428.065V48.4247H424.414V44.7729ZM424.414 41.1371H428.065V44.7889H424.414V41.1371ZM424.414 37.4853H428.065V41.1371H424.414V37.4853ZM424.414 33.8495H428.065V37.5013H424.414V33.8495ZM420.778 33.8495H424.43V37.5013H420.778V33.8495ZM417.126 33.8495H420.778V37.5013H417.126V33.8495ZM413.49 33.8495H417.142V37.5013H413.49V33.8495ZM413.49 37.4853H417.142V41.1371H413.49V37.4853ZM413.49 41.1371H417.142V44.7889H413.49V41.1371ZM417.126 41.1371H420.778V44.7889H417.126V41.1371ZM420.778 41.1371H424.43V44.7889H420.778V41.1371ZM420.778 37.4853H424.43V41.1371H420.778V37.4853ZM417.126 37.4853H420.778V41.1371H417.126V37.4853ZM428.065 110.377H431.717V114.029H428.065V110.377ZM409.838 66.6516H413.49V70.3034H409.838V66.6516ZM406.203 66.6516H409.854V70.3034H406.203V66.6516ZM406.203 70.2874H409.854V73.9392H406.203V70.2874ZM409.838 70.2874H413.49V73.9392H409.838V70.2874ZM428.065 66.6516H431.717V70.3034H428.065V66.6516ZM431.701 66.6516H435.353V70.3034H431.701V66.6516ZM431.701 70.2874H435.353V73.9392H431.701V70.2874ZM428.065 70.2874H431.717V73.9392H428.065V70.2874ZM406.203 106.725H409.854V110.377H406.203V106.725ZM409.838 106.725H413.49V110.377H409.838V106.725ZM428.065 106.725H431.717V110.377H428.065V106.725ZM406.203 110.377H409.854V114.029H406.203V110.377ZM413.49 117.665H417.142V121.316H413.49V117.665Z" fill="#FFD5FB"/>
<path d="M442.586 117.665H446.238V121.316H442.586V117.665ZM446.238 117.665H449.89V121.316H446.238V117.665ZM438.951 114.013H442.602V117.665H438.951V114.013ZM442.586 114.013H446.238V117.665H442.586V114.013ZM446.238 114.013H449.89V117.665H446.238V114.013ZM449.874 114.013H453.526V117.665H449.874V114.013ZM435.299 110.377H438.951V114.029H435.299V110.377ZM438.951 110.377H442.602V114.029H438.951V110.377ZM438.951 106.725H442.602V110.377H438.951V106.725ZM442.586 106.725H446.238V110.377H442.586V106.725ZM442.586 110.377H446.238V114.029H442.586V110.377ZM446.238 110.377H449.89V114.029H446.238V110.377ZM449.874 110.377H453.526V114.029H449.874V110.377ZM449.874 106.725H453.526V110.377H449.874V106.725ZM453.526 110.377H457.178V114.029H453.526V110.377ZM446.238 106.725H449.89V110.377H446.238V106.725ZM442.586 103.09H446.238V106.741H442.586V103.09ZM446.238 103.09H449.89V106.741H446.238V103.09ZM449.874 103.09H453.526V106.741H449.874V103.09ZM449.874 99.4377H453.526V103.09H449.874V99.4377ZM446.238 99.4377H449.89V103.09H446.238V99.4377ZM442.586 99.4377H446.238V103.09H442.586V99.4377ZM442.586 95.8019H446.238V99.4537H442.586V95.8019ZM442.586 92.1502H446.238V95.8019H442.586V92.1502ZM442.586 88.5144H446.238V92.1662H442.586V88.5144ZM442.586 84.8626H446.238V88.5144H442.586V84.8626ZM442.586 81.2268H446.238V84.8786H442.586V81.2268ZM446.238 81.2268H449.89V84.8786H446.238V81.2268ZM449.874 81.2268H453.526V84.8786H449.874V81.2268ZM449.874 84.8626H453.526V88.5144H449.874V84.8626ZM449.874 88.5144H453.526V92.1662H449.874V88.5144ZM449.874 92.1502H453.526V95.8019H449.874V92.1502ZM446.238 92.1502H449.89V95.8019H446.238V92.1502ZM446.238 95.8019H449.89V99.4537H446.238V95.8019ZM446.238 88.5144H449.89V92.1662H446.238V88.5144ZM446.238 84.8626H449.89V88.5144H446.238V84.8626ZM449.874 95.8019H453.526V99.4537H449.874V95.8019ZM449.874 77.575H453.526V81.2268H449.874V77.575ZM449.874 73.9392H453.526V77.591H449.874V73.9392ZM449.874 70.2874H453.526V73.9392H449.874V70.2874ZM449.874 66.6516H453.526V70.3034H449.874V66.6516ZM449.874 62.9998H453.526V66.6516H449.874V62.9998ZM442.586 62.9998H446.238V66.6516H442.586V62.9998ZM446.238 66.6516H449.89V70.3034H446.238V66.6516ZM446.238 70.2874H449.89V73.9392H446.238V70.2874ZM446.238 73.9392H449.89V77.591H446.238V73.9392ZM446.238 77.575H449.89V81.2268H446.238V77.575ZM442.586 77.575H446.238V81.2268H442.586V77.575ZM442.586 73.9392H446.238V77.591H442.586V73.9392ZM442.586 70.2874H446.238V73.9392H442.586V70.2874ZM442.586 66.6516H446.238V70.3034H442.586V66.6516ZM446.238 62.9998H449.89V66.6516H446.238V62.9998ZM438.951 103.09H442.602V106.741H438.951V103.09ZM438.951 99.4377H442.602V103.09H438.951V99.4377ZM438.951 95.8019H442.602V99.4537H438.951V95.8019ZM438.951 92.1502H442.602V95.8019H438.951V92.1502ZM438.951 88.5144H442.602V92.1662H438.951V88.5144ZM438.951 84.8626H442.602V88.5144H438.951V84.8626ZM438.951 81.2268H442.602V84.8786H438.951V81.2268ZM438.951 77.575H442.602V81.2268H438.951V77.575ZM438.951 73.9392H442.602V77.591H438.951V73.9392ZM438.951 70.2874H442.602V73.9392H438.951V70.2874ZM438.951 62.9998H442.602V66.6516H438.951V62.9998ZM438.951 66.6516H442.602V70.3034H438.951V66.6516ZM446.238 59.3481H449.89V62.9998H446.238V59.3481ZM435.299 66.6516H438.951V70.3034H435.299V66.6516ZM471.737 117.665H475.389V121.316H471.737V117.665ZM475.389 117.665H479.04V121.316H475.389V117.665ZM468.101 114.013H471.753V117.665H468.101V114.013ZM471.737 114.013H475.389V117.665H471.737V114.013ZM475.389 114.013H479.04V117.665H475.389V114.013ZM479.024 114.013H482.676V117.665H479.024V114.013ZM464.449 110.377H468.101V114.029H464.449V110.377ZM468.101 110.377H471.753V114.029H468.101V110.377ZM468.101 106.725H471.753V110.377H468.101V106.725ZM471.737 106.725H475.389V110.377H471.737V106.725ZM471.737 110.377H475.389V114.029H471.737V110.377ZM475.389 110.377H479.04V114.029H475.389V110.377ZM479.024 110.377H482.676V114.029H479.024V110.377ZM479.024 106.725H482.676V110.377H479.024V106.725ZM482.676 110.377H486.328V114.029H482.676V110.377ZM475.389 106.725H479.04V110.377H475.389V106.725ZM471.737 103.09H475.389V106.741H471.737V103.09ZM475.389 103.09H479.04V106.741H475.389V103.09ZM479.024 103.09H482.676V106.741H479.024V103.09ZM479.024 99.4377H482.676V103.09H479.024V99.4377ZM475.389 99.4377H479.04V103.09H475.389V99.4377ZM471.737 99.4377H475.389V103.09H471.737V99.4377ZM471.737 95.8019H475.389V99.4537H471.737V95.8019ZM471.737 92.1502H475.389V95.8019H471.737V92.1502ZM471.737 88.5144H475.389V92.1662H471.737V88.5144ZM471.737 84.8626H475.389V88.5144H471.737V84.8626ZM471.737 81.2268H475.389V84.8786H471.737V81.2268ZM475.389 81.2268H479.04V84.8786H475.389V81.2268ZM479.024 81.2268H482.676V84.8786H479.024V81.2268ZM479.024 84.8626H482.676V88.5144H479.024V84.8626ZM479.024 88.5144H482.676V92.1662H479.024V88.5144ZM479.024 92.1502H482.676V95.8019H479.024V92.1502ZM475.389 92.1502H479.04V95.8019H475.389V92.1502ZM475.389 95.8019H479.04V99.4537H475.389V95.8019ZM475.389 88.5144H479.04V92.1662H475.389V88.5144ZM475.389 84.8626H479.04V88.5144H475.389V84.8626ZM479.024 95.8019H482.676V99.4537H479.024V95.8019ZM479.024 77.575H482.676V81.2268H479.024V77.575ZM479.024 73.9392H482.676V77.591H479.024V73.9392ZM479.024 70.2874H482.676V73.9392H479.024V70.2874ZM479.024 66.6516H482.676V70.3034H479.024V66.6516ZM479.024 62.9998H482.676V66.6516H479.024V62.9998ZM471.737 62.9998H475.389V66.6516H471.737V62.9998ZM475.389 66.6516H479.04V70.3034H475.389V66.6516ZM475.389 70.2874H479.04V73.9392H475.389V70.2874ZM475.389 73.9392H479.04V77.591H475.389V73.9392ZM475.389 77.575H479.04V81.2268H475.389V77.575ZM471.737 77.575H475.389V81.2268H471.737V77.575ZM471.737 73.9392H475.389V77.591H471.737V73.9392ZM471.737 70.2874H475.389V73.9392H471.737V70.2874ZM471.737 66.6516H475.389V70.3034H471.737V66.6516ZM475.389 62.9998H479.04V66.6516H475.389V62.9998ZM468.101 103.09H471.753V106.741H468.101V103.09ZM468.101 99.4377H471.753V103.09H468.101V99.4377ZM468.101 95.8019H471.753V99.4537H468.101V95.8019ZM468.101 92.1502H471.753V95.8019H468.101V92.1502ZM468.101 88.5144H471.753V92.1662H468.101V88.5144ZM468.101 84.8626H471.753V88.5144H468.101V84.8626ZM468.101 81.2268H471.753V84.8786H468.101V81.2268ZM468.101 77.575H471.753V81.2268H468.101V77.575ZM468.101 73.9392H471.753V77.591H468.101V73.9392ZM468.101 70.2874H471.753V73.9392H468.101V70.2874ZM468.101 62.9998H471.753V66.6516H468.101V62.9998ZM468.101 66.6516H471.753V70.3034H468.101V66.6516ZM471.737 59.3481H475.389V62.9998H471.737V59.3481ZM475.389 59.3481H479.04V62.9998H475.389V59.3481ZM464.449 66.6516H468.101V70.3034H464.449V66.6516ZM431.663 70.2874H435.315V73.9392H431.663V70.2874ZM435.299 70.2874H438.951V73.9392H435.299V70.2874ZM457.162 66.6516H460.813V70.3034H457.162V66.6516ZM460.813 66.6516H464.465V70.3034H460.813V66.6516ZM460.813 62.9998H464.465V66.6516H460.813V62.9998ZM464.449 62.9998H468.101V66.6516H464.449V62.9998ZM464.449 59.3481H468.101V62.9998H464.449V59.3481ZM468.101 59.3481H471.753V62.9998H468.101V59.3481ZM453.526 66.6516H457.178V70.3034H453.526V66.6516ZM464.449 70.2874H468.101V73.9392H464.449V70.2874ZM431.663 106.725H435.315V110.377H431.663V106.725ZM435.299 106.725H438.951V110.377H435.299V106.725ZM460.813 106.725H464.465V110.377H460.813V106.725ZM464.449 106.725H468.101V110.377H464.449V106.725ZM482.676 106.725H486.328V110.377H482.676V106.725ZM431.663 66.6516H435.315V70.3034H431.663V66.6516ZM453.526 106.725H457.178V110.377H453.526V106.725ZM460.813 70.2874H464.465V73.9392H460.813V70.2874ZM457.162 70.2874H460.813V73.9392H457.162V70.2874ZM453.526 70.2874H457.178V73.9392H453.526V70.2874ZM500.903 117.665H504.555V121.316H500.903V117.665ZM504.539 117.665H508.191V121.316H504.539V117.665ZM497.251 114.013H500.903V117.665H497.251V114.013ZM500.903 114.013H504.555V117.665H500.903V114.013ZM504.539 114.013H508.191V117.665H504.539V114.013ZM508.191 114.013H511.842V117.665H508.191V114.013ZM493.615 110.377H497.267V114.029H493.615V110.377ZM497.251 110.377H500.903V114.029H497.251V110.377ZM497.251 106.725H500.903V110.377H497.251V106.725ZM500.903 106.725H504.555V110.377H500.903V106.725ZM500.903 110.377H504.555V114.029H500.903V110.377ZM504.539 110.377H508.191V114.029H504.539V110.377ZM508.191 110.377H511.842V114.029H508.191V110.377ZM508.191 106.725H511.842V110.377H508.191V106.725ZM511.826 110.377H515.478V114.029H511.826V110.377ZM504.539 106.725H508.191V110.377H504.539V106.725ZM500.903 103.09H504.555V106.741H500.903V103.09ZM504.539 103.09H508.191V106.741H504.539V103.09ZM508.191 103.09H511.842V106.741H508.191V103.09ZM508.191 99.4377H511.842V103.09H508.191V99.4377ZM504.539 99.4377H508.191V103.09H504.539V99.4377ZM500.903 99.4377H504.555V103.09H500.903V99.4377ZM500.903 95.8019H504.555V99.4537H500.903V95.8019ZM500.903 92.1502H504.555V95.8019H500.903V92.1502ZM500.903 88.5144H504.555V92.1662H500.903V88.5144ZM500.903 84.8626H504.555V88.5144H500.903V84.8626ZM500.903 81.2268H504.555V84.8786H500.903V81.2268ZM504.539 81.2268H508.191V84.8786H504.539V81.2268ZM508.191 81.2268H511.842V84.8786H508.191V81.2268ZM508.191 84.8626H511.842V88.5144H508.191V84.8626ZM508.191 88.5144H511.842V92.1662H508.191V88.5144ZM508.191 92.1502H511.842V95.8019H508.191V92.1502ZM504.539 92.1502H508.191V95.8019H504.539V92.1502ZM504.539 95.8019H508.191V99.4537H504.539V95.8019ZM504.539 88.5144H508.191V92.1662H504.539V88.5144ZM504.539 84.8626H508.191V88.5144H504.539V84.8626ZM508.191 95.8019H511.842V99.4537H508.191V95.8019ZM508.191 77.575H511.842V81.2268H508.191V77.575ZM508.191 73.9392H511.842V77.591H508.191V73.9392ZM508.191 70.2874H511.842V73.9392H508.191V70.2874ZM508.191 66.6516H511.842V70.3034H508.191V66.6516ZM508.191 62.9998H511.842V66.6516H508.191V62.9998ZM500.903 62.9998H504.555V66.6516H500.903V62.9998ZM504.539 66.6516H508.191V70.3034H504.539V66.6516ZM504.539 70.2874H508.191V73.9392H504.539V70.2874ZM504.539 73.9392H508.191V77.591H504.539V73.9392ZM504.539 77.575H508.191V81.2268H504.539V77.575ZM500.903 77.575H504.555V81.2268H500.903V77.575ZM500.903 73.9392H504.555V77.591H500.903V73.9392ZM500.903 70.2874H504.555V73.9392H500.903V70.2874ZM500.903 66.6516H504.555V70.3034H500.903V66.6516ZM504.539 62.9998H508.191V66.6516H504.539V62.9998ZM497.251 103.09H500.903V106.741H497.251V103.09ZM497.251 99.4377H500.903V103.09H497.251V99.4377ZM497.251 95.8019H500.903V99.4537H497.251V95.8019ZM497.251 92.1502H500.903V95.8019H497.251V92.1502ZM497.251 88.5144H500.903V92.1662H497.251V88.5144ZM497.251 84.8626H500.903V88.5144H497.251V84.8626ZM497.251 81.2268H500.903V84.8786H497.251V81.2268ZM497.251 77.575H500.903V81.2268H497.251V77.575ZM497.251 73.9392H500.903V77.591H497.251V73.9392ZM497.251 70.2874H500.903V73.9392H497.251V70.2874ZM497.251 62.9998H500.903V66.6516H497.251V62.9998ZM497.251 66.6516H500.903V70.3034H497.251V66.6516ZM515.478 106.725H519.13V110.377H515.478V106.725ZM500.903 59.3481H504.555V62.9998H500.903V59.3481ZM504.539 59.3481H508.191V62.9998H504.539V59.3481ZM493.615 66.6516H497.267V70.3034H493.615V66.6516ZM511.826 66.6516H515.478V70.3034H511.826V66.6516ZM486.328 66.6516H489.98V70.3034H486.328V66.6516ZM489.964 66.6516H493.615V70.3034H489.964V66.6516ZM489.964 62.9998H493.615V66.6516H489.964V62.9998ZM493.615 62.9998H497.267V66.6516H493.615V62.9998ZM493.615 59.3481H497.267V62.9998H493.615V59.3481ZM497.251 59.3481H500.903V62.9998H497.251V59.3481ZM482.676 66.6516H486.328V70.3034H482.676V66.6516ZM493.615 70.2874H497.267V73.9392H493.615V70.2874ZM489.964 106.725H493.615V110.377H489.964V106.725ZM493.615 106.725H497.267V110.377H493.615V106.725ZM511.826 106.725H515.478V110.377H511.826V106.725ZM515.478 70.2874H519.13V73.9392H515.478V70.2874ZM511.826 70.2874H515.478V73.9392H511.826V70.2874ZM515.478 66.6516H519.13V70.3034H515.478V66.6516ZM489.964 70.2874H493.615V73.9392H489.964V70.2874ZM486.328 70.2874H489.98V73.9392H486.328V70.2874ZM482.676 70.2874H486.328V73.9392H482.676V70.2874ZM431.663 110.377H435.315V114.029H431.663V110.377ZM438.951 117.665H442.602V121.316H438.951V117.665ZM460.813 110.377H464.465V114.029H460.813V110.377ZM468.101 117.665H471.753V121.316H468.101V117.665ZM489.964 110.377H493.615V114.029H489.964V110.377ZM497.251 117.665H500.903V121.316H497.251V117.665ZM435.299 62.9998H438.951V66.6516H435.299V62.9998ZM438.951 59.3481H442.602V62.9998H438.951V59.3481ZM442.586 59.3481H446.238V62.9998H442.586V59.3481Z" fill="#FFD5FB"/>
</g>
</g>
<mask id="mask5_1_1641" style="mask-type:luminance" maskUnits="userSpaceOnUse" x="372" y="196" width="215" height="136">
<path d="M372.1 196.813H586.334V331.392H372.1V196.813Z" fill="white"/>
</mask>
<g mask="url(#mask5_1_1641)">
<mask id="mask6_1_1641" style="mask-type:luminance" maskUnits="userSpaceOnUse" x="372" y="196" width="215" height="137">
<path d="M586.338 196.813H372.1V332.121H586.338V196.813Z" fill="white"/>
</mask>
<g mask="url(#mask6_1_1641)">
<path d="M385.487 296.511H388.595V299.618H385.487V296.511ZM385.487 293.403H388.595V296.511H385.487V293.403ZM385.487 290.296H388.595V293.403H385.487V290.296ZM385.487 287.205H388.595V290.312H385.487V287.205ZM385.487 284.098H388.595V287.205H385.487V284.098ZM385.487 280.99H388.595V284.098H385.487V280.99ZM385.487 277.883H388.595V280.99H385.487V277.883ZM385.487 274.776H388.595V277.883H385.487V274.776ZM385.487 271.669H388.595V274.776H385.487V271.669ZM385.487 268.578H388.595V271.685H385.487V268.578ZM388.595 268.578H391.702V271.685H388.595V268.578ZM391.702 268.578H394.809V271.685H391.702V268.578ZM382.396 268.578H385.503V271.685H382.396V268.578ZM382.396 271.669H385.503V274.776H382.396V271.669ZM382.396 274.776H385.503V277.883H382.396V274.776ZM382.396 277.883H385.503V280.99H382.396V277.883ZM382.396 280.99H385.503V284.098H382.396V280.99ZM382.396 284.098H385.503V287.205H382.396V284.098ZM382.396 287.205H385.503V290.312H382.396V287.205ZM382.396 290.296H385.503V293.403H382.396V290.296ZM382.396 293.403H385.503V296.511H382.396V293.403ZM388.595 293.403H391.702V296.511H388.595V293.403ZM391.702 293.403H394.809V296.511H391.702V293.403ZM391.702 290.296H394.809V293.403H391.702V290.296ZM391.702 287.205H394.809V290.312H391.702V287.205ZM391.702 284.098H394.809V287.205H391.702V284.098ZM391.702 280.99H394.809V284.098H391.702V280.99ZM391.702 277.883H394.809V280.99H391.702V277.883ZM391.702 274.776H394.809V277.883H391.702V274.776ZM391.702 271.669H394.809V274.776H391.702V271.669ZM388.595 271.669H391.702V274.776H388.595V271.669ZM388.595 274.776H391.702V277.883H388.595V274.776ZM388.595 277.883H391.702V280.99H388.595V277.883ZM388.595 280.99H391.702V284.098H388.595V280.99ZM388.595 284.098H391.702V287.205H388.595V284.098ZM388.595 287.205H391.702V290.312H388.595V287.205ZM388.595 290.296H391.702V293.403H388.595V290.296ZM388.595 296.511H391.702V299.618H388.595V296.511ZM391.702 296.511H394.809V299.618H391.702V296.511ZM391.702 299.618H394.809V302.725H391.702V299.618ZM388.595 299.618H391.702V302.725H388.595V299.618ZM394.809 293.403H397.916V296.511H394.809V293.403ZM397.916 293.403H401.023V296.511H397.916V293.403ZM401.023 293.403H404.131V296.511H401.023V293.403ZM391.702 265.47H394.809V268.578H391.702V265.47ZM391.702 262.363H394.809V265.47H391.702V262.363ZM391.702 259.256H394.809V262.363H391.702V259.256ZM391.702 256.149H394.809V259.256H391.702V256.149ZM382.396 262.363H385.503V265.47H382.396V262.363ZM382.396 265.47H385.503V268.578H382.396V265.47ZM385.487 265.47H388.595V268.578H385.487V265.47ZM385.487 262.363H388.595V265.47H385.487V262.363ZM388.595 262.363H391.702V265.47H388.595V262.363ZM388.595 259.256H391.702V262.363H388.595V259.256ZM388.595 256.149H391.702V259.256H388.595V256.149ZM388.595 265.47H391.702V268.578H388.595V265.47ZM397.916 249.95H401.023V253.057H397.916V249.95ZM397.916 253.041H401.023V256.149H397.916V253.041ZM394.809 253.041H397.916V256.149H394.809V253.041ZM401.023 249.95H404.131V253.057H401.023V249.95ZM404.115 249.95H407.222V253.057H404.115V249.95ZM404.115 253.041H407.222V256.149H404.115V253.041ZM401.023 253.041H404.131V256.149H401.023V253.041ZM404.115 256.149H407.222V259.256H404.115V256.149ZM410.329 256.149H413.436V259.256H410.329V256.149ZM410.329 259.256H413.436V262.363H410.329V259.256ZM407.222 259.256H410.329V262.363H407.222V259.256ZM407.222 256.149H410.329V259.256H407.222V256.149ZM385.487 259.256H388.595V262.363H385.487V259.256ZM379.289 293.403H382.396V296.511H379.289V293.403ZM376.182 293.403H379.289V296.511H376.182V293.403ZM376.182 290.296H379.289V293.403H376.182V290.296ZM379.289 290.296H382.396V293.403H379.289V290.296ZM394.809 290.296H397.916V293.403H394.809V290.296ZM397.916 290.296H401.023V293.403H397.916V290.296ZM401.023 290.296H404.131V293.403H401.023V290.296ZM404.115 290.296H407.222V293.403H404.115V290.296ZM394.809 299.618H397.916V302.725H394.809V299.618ZM394.809 296.511H397.916V299.618H394.809V296.511ZM397.916 296.511H401.023V299.618H397.916V296.511ZM401.023 256.149H404.131V259.256H401.023V256.149ZM404.115 259.256H407.222V262.363H404.115V259.256ZM410.329 262.363H413.436V265.47H410.329V262.363ZM407.222 262.363H410.329V265.47H407.222V262.363ZM410.329 265.47H413.436V268.578H410.329V265.47ZM407.222 249.95H410.329V253.057H407.222V249.95ZM410.329 253.041H413.436V256.149H410.329V253.041ZM407.222 253.041H410.329V256.149H407.222V253.041ZM413.436 256.149H416.544V259.256H413.436V256.149ZM413.436 259.256H416.544V262.363H413.436V259.256ZM413.436 262.363H416.544V265.47H413.436V262.363ZM404.115 268.578H407.222V271.685H404.115V268.578ZM401.023 268.578H404.131V271.685H401.023V268.578ZM397.916 268.578H401.023V271.685H397.916V268.578ZM394.809 268.578H397.916V271.685H394.809V268.578ZM394.809 271.669H397.916V274.776H394.809V271.669ZM397.916 271.669H401.023V274.776H397.916V271.669ZM401.023 271.669H404.131V274.776H401.023V271.669ZM404.115 271.669H407.222V274.776H404.115V271.669ZM407.222 268.578H410.329V271.685H407.222V268.578ZM407.222 271.669H410.329V274.776H407.222V271.669ZM413.436 265.47H416.544V268.578H413.436V265.47ZM394.809 256.149H397.916V259.256H394.809V256.149ZM391.702 253.041H394.809V256.149H391.702V253.041ZM394.809 249.95H397.916V253.057H394.809V249.95Z" fill="#FFD5FB"/>
<path d="M422.706 299.618H425.813V302.725H422.706V299.618ZM425.813 299.618H428.92V302.725H425.813V299.618ZM419.614 296.511H422.722V299.618H419.614V296.511ZM422.706 296.511H425.813V299.618H422.706V296.511ZM425.813 296.511H428.92V299.618H425.813V296.511ZM428.92 296.511H432.027V299.618H428.92V296.511ZM416.507 293.403H419.614V296.511H416.507V293.403ZM419.614 293.403H422.722V296.511H419.614V293.403ZM419.614 290.296H422.722V293.403H419.614V290.296ZM422.706 290.296H425.813V293.403H422.706V290.296ZM422.706 293.403H425.813V296.511H422.706V293.403ZM425.813 293.403H428.92V296.511H425.813V293.403ZM428.92 293.403H432.027V296.511H428.92V293.403ZM428.92 290.296H432.027V293.403H428.92V290.296ZM432.027 293.403H435.134V296.511H432.027V293.403ZM425.813 290.296H428.92V293.403H425.813V290.296ZM422.706 287.205H425.813V290.312H422.706V287.205ZM425.813 287.205H428.92V290.312H425.813V287.205ZM428.92 287.205H432.027V290.312H428.92V287.205ZM428.92 284.098H432.027V287.205H428.92V284.098ZM425.813 284.098H428.92V287.205H425.813V284.098ZM422.706 284.098H425.813V287.205H422.706V284.098ZM422.706 280.99H425.813V284.098H422.706V280.99ZM422.706 277.883H425.813V280.99H422.706V277.883ZM422.706 274.776H425.813V277.883H422.706V274.776ZM422.706 271.669H425.813V274.776H422.706V271.669ZM422.706 268.578H425.813V271.685H422.706V268.578ZM425.813 268.578H428.92V271.685H425.813V268.578ZM428.92 268.578H432.027V271.685H428.92V268.578ZM428.92 271.669H432.027V274.776H428.92V271.669ZM428.92 274.776H432.027V277.883H428.92V274.776ZM428.92 277.883H432.027V280.99H428.92V277.883ZM425.813 277.883H428.92V280.99H425.813V277.883ZM425.813 280.99H428.92V284.098H425.813V280.99ZM425.813 274.776H428.92V277.883H425.813V274.776ZM425.813 271.669H428.92V274.776H425.813V271.669ZM428.92 280.99H432.027V284.098H428.92V280.99ZM428.92 265.47H432.027V268.578H428.92V265.47ZM428.92 262.363H432.027V265.47H428.92V262.363ZM428.92 259.256H432.027V262.363H428.92V259.256ZM428.92 256.149H432.027V259.256H428.92V256.149ZM422.706 253.041H425.813V256.149H422.706V253.041ZM425.813 256.149H428.92V259.256H425.813V256.149ZM425.813 259.256H428.92V262.363H425.813V259.256ZM425.813 262.363H428.92V265.47H425.813V262.363ZM425.813 265.47H428.92V268.578H425.813V265.47ZM422.706 265.47H425.813V268.578H422.706V265.47ZM422.706 262.363H425.813V265.47H422.706V262.363ZM422.706 259.256H425.813V262.363H422.706V259.256ZM422.706 256.149H425.813V259.256H422.706V256.149ZM419.614 287.205H422.722V290.312H419.614V287.205ZM419.614 284.098H422.722V287.205H419.614V284.098ZM419.614 280.99H422.722V284.098H419.614V280.99ZM419.614 277.883H422.722V280.99H419.614V277.883ZM419.614 274.776H422.722V277.883H419.614V274.776ZM419.614 271.669H422.722V274.776H419.614V271.669ZM419.614 268.578H422.722V271.685H419.614V268.578ZM419.614 265.47H422.722V268.578H419.614V265.47ZM419.614 262.363H422.722V265.47H419.614V262.363ZM419.614 259.256H422.722V262.363H419.614V259.256ZM419.614 253.041H422.722V256.149H419.614V253.041ZM419.614 256.149H422.722V259.256H419.614V256.149ZM416.507 256.149H419.614V259.256H416.507V256.149ZM413.4 259.256H416.507V262.363H413.4V259.256ZM416.507 259.256H419.614V262.363H416.507V259.256ZM413.4 290.296H416.507V293.403H413.4V290.296ZM416.507 290.296H419.614V293.403H416.507V290.296ZM413.4 256.149H416.507V259.256H413.4V256.149ZM432.027 290.296H435.134V293.403H432.027V290.296ZM413.4 293.403H416.507V296.511H413.4V293.403ZM419.614 299.618H422.722V302.725H419.614V299.618ZM416.507 253.041H419.614V256.149H416.507V253.041ZM432.027 253.041H435.134V256.149H432.027V253.041ZM435.134 249.95H438.242V253.057H435.134V249.95ZM435.134 253.041H438.242V256.149H435.134V253.041ZM438.242 253.041H441.349V256.149H438.242V253.041ZM438.242 249.95H441.349V253.057H438.242V249.95ZM441.333 249.95H444.44V253.057H441.333V249.95ZM441.333 253.041H444.44V256.149H441.333V253.041ZM444.44 253.041H447.547V256.149H444.44V253.041ZM444.44 249.95H447.547V253.057H444.44V249.95ZM447.547 253.041H450.655V256.149H447.547V253.041ZM441.333 256.149H444.44V259.256H441.333V256.149ZM438.242 256.149H441.349V259.256H438.242V256.149ZM441.333 259.256H444.44V262.363H441.333V259.256ZM444.44 259.256H447.547V262.363H444.44V259.256ZM447.547 259.256H450.655V262.363H447.547V259.256ZM447.547 256.149H450.655V259.256H447.547V256.149ZM444.44 256.149H447.547V259.256H444.44V256.149ZM422.706 249.95H425.813V253.057H422.706V249.95ZM419.614 249.95H422.722V253.057H419.614V249.95ZM432.027 256.149H435.134V259.256H432.027V256.149ZM428.92 253.041H432.027V256.149H428.92V253.041ZM432.027 249.95H435.134V253.057H432.027V249.95Z" fill="#FFD5FB"/>
<path d="M484.771 253.057H481.663V249.95H484.771V253.057ZM481.663 253.057H478.556V249.95H481.663V253.057ZM487.878 256.149H484.771V253.057H487.878V256.149ZM484.771 256.149H481.663V253.057H484.771V256.149ZM481.663 256.149H478.556V253.057H481.663V256.149ZM478.556 256.149H475.449V253.057H478.556V256.149ZM490.969 259.256H487.878V256.149H490.969V259.256ZM487.878 259.256H484.771V256.149H487.878V259.256ZM487.878 262.363H484.771V259.256H487.878V262.363ZM484.771 262.363H481.663V259.256H484.771V262.363ZM484.771 259.256H481.663V256.149H484.771V259.256ZM481.663 259.256H478.556V256.149H481.663V259.256ZM478.556 259.256H475.449V256.149H478.556V259.256ZM478.556 262.363H475.449V259.256H478.556V262.363ZM475.449 259.256H472.342V256.149H475.449V259.256ZM481.663 262.363H478.556V259.256H481.663V262.363ZM484.771 265.47H481.663V262.363H484.771V265.47ZM481.663 265.47H478.556V262.363H481.663V265.47ZM478.556 265.47H475.449V262.363H478.556V265.47ZM478.556 268.578H475.449V265.47H478.556V268.578ZM481.663 268.578H478.556V265.47H481.663V268.578ZM484.771 268.578H481.663V265.47H484.771V268.578ZM484.771 271.685H481.663V268.578H484.771V271.685ZM484.771 274.776H481.663V271.685H484.771V274.776ZM484.771 277.883H481.663V274.776H484.771V277.883ZM484.771 280.99H481.663V277.883H484.771V280.99ZM484.771 284.098H481.663V280.99H484.771V284.098ZM481.663 284.098H478.556V280.99H481.663V284.098ZM478.556 284.098H475.449V280.99H478.556V284.098ZM478.556 280.99H475.449V277.883H478.556V280.99ZM478.556 277.883H475.449V274.776H478.556V277.883ZM478.556 274.776H475.449V271.685H478.556V274.776ZM481.663 274.776H478.556V271.685H481.663V274.776ZM481.663 271.685H478.556V268.578H481.663V271.685ZM481.663 277.883H478.556V274.776H481.663V277.883ZM481.663 280.99H478.556V277.883H481.663V280.99ZM478.556 271.685H475.449V268.578H478.556V271.685ZM478.556 287.205H475.449V284.098H478.556V287.205ZM478.556 290.312H475.449V287.205H478.556V290.312ZM478.556 293.403H475.449V290.312H478.556V293.403ZM478.556 296.511H475.449V293.403H478.556V296.511ZM484.771 299.618H481.663V296.511H484.771V299.618ZM481.663 296.511H478.556V293.403H481.663V296.511ZM481.663 293.403H478.556V290.312H481.663V293.403ZM481.663 290.312H478.556V287.205H481.663V290.312ZM481.663 287.205H478.556V284.098H481.663V287.205ZM484.771 287.205H481.663V284.098H484.771V287.205ZM484.771 290.312H481.663V287.205H484.771V290.312ZM484.771 293.403H481.663V290.312H484.771V293.403ZM484.771 296.511H481.663V293.403H484.771V296.511ZM481.663 299.618H478.556V296.511H481.663V299.618ZM487.878 265.47H484.771V262.363H487.878V265.47ZM487.878 268.578H484.771V265.47H487.878V268.578ZM487.878 271.685H484.771V268.578H487.878V271.685ZM487.878 274.776H484.771V271.685H487.878V274.776ZM487.878 277.883H484.771V274.776H487.878V277.883ZM487.878 280.99H484.771V277.883H487.878V280.99ZM487.878 284.098H484.771V280.99H487.878V284.098ZM487.878 287.205H484.771V284.098H487.878V287.205ZM487.878 290.312H484.771V287.205H487.878V290.312ZM487.878 293.403H484.771V290.312H487.878V293.403ZM487.878 299.618H484.771V296.511H487.878V299.618ZM487.878 296.511H484.771V293.403H487.878V296.511ZM484.771 302.725H481.663V299.618H484.771V302.725ZM481.663 302.725H478.556V299.618H481.663V302.725ZM490.969 296.511H487.878V293.403H490.969V296.511ZM459.929 253.057H456.822V249.95H459.929V253.057ZM456.822 253.057H453.714V249.95H456.822V253.057ZM463.036 256.149H459.929V253.057H463.036V256.149ZM459.929 256.149H456.822V253.057H459.929V256.149ZM456.822 256.149H453.714V253.057H456.822V256.149ZM453.714 256.149H450.623V253.057H453.714V256.149ZM463.036 259.256H459.929V256.149H463.036V259.256ZM463.036 262.363H459.929V259.256H463.036V262.363ZM459.929 262.363H456.822V259.256H459.929V262.363ZM459.929 259.256H456.822V256.149H459.929V259.256ZM456.822 259.256H453.714V256.149H456.822V259.256ZM453.714 259.256H450.623V256.149H453.714V259.256ZM453.714 262.363H450.623V259.256H453.714V262.363ZM450.623 259.256H447.516V256.149H450.623V259.256ZM456.822 262.363H453.714V259.256H456.822V262.363ZM459.929 265.47H456.822V262.363H459.929V265.47ZM456.822 265.47H453.714V262.363H456.822V265.47ZM453.714 265.47H450.623V262.363H453.714V265.47ZM453.714 268.578H450.623V265.47H453.714V268.578ZM456.822 268.578H453.714V265.47H456.822V268.578ZM459.929 268.578H456.822V265.47H459.929V268.578ZM459.929 271.685H456.822V268.578H459.929V271.685ZM459.929 274.776H456.822V271.685H459.929V274.776ZM459.929 277.883H456.822V274.776H459.929V277.883ZM459.929 280.99H456.822V277.883H459.929V280.99ZM459.929 284.098H456.822V280.99H459.929V284.098ZM456.822 284.098H453.714V280.99H456.822V284.098ZM453.714 284.098H450.623V280.99H453.714V284.098ZM453.714 280.99H450.623V277.883H453.714V280.99ZM453.714 277.883H450.623V274.776H453.714V277.883ZM453.714 274.776H450.623V271.685H453.714V274.776ZM456.822 274.776H453.714V271.685H456.822V274.776ZM456.822 271.685H453.714V268.578H456.822V271.685ZM456.822 277.883H453.714V274.776H456.822V277.883ZM456.822 280.99H453.714V277.883H456.822V280.99ZM453.714 271.685H450.623V268.578H453.714V271.685ZM453.714 287.205H450.623V284.098H453.714V287.205ZM453.714 290.312H450.623V287.205H453.714V290.312ZM453.714 293.403H450.623V290.312H453.714V293.403ZM453.714 296.511H450.623V293.403H453.714V296.511ZM459.929 299.618H456.822V296.511H459.929V299.618ZM456.822 296.511H453.714V293.403H456.822V296.511ZM456.822 293.403H453.714V290.312H456.822V293.403ZM456.822 290.312H453.714V287.205H456.822V290.312ZM456.822 287.205H453.714V284.098H456.822V287.205ZM459.929 287.205H456.822V284.098H459.929V287.205ZM459.929 290.312H456.822V287.205H459.929V290.312ZM459.929 293.403H456.822V290.312H459.929V293.403ZM459.929 296.511H456.822V293.403H459.929V296.511ZM456.822 299.618H453.714V296.511H456.822V299.618ZM463.036 265.47H459.929V262.363H463.036V265.47ZM463.036 268.578H459.929V265.47H463.036V268.578ZM463.036 271.685H459.929V268.578H463.036V271.685ZM463.036 274.776H459.929V271.685H463.036V274.776ZM463.036 277.883H459.929V274.776H463.036V277.883ZM463.036 280.99H459.929V277.883H463.036V280.99ZM463.036 284.098H459.929V280.99H463.036V284.098ZM463.036 287.205H459.929V284.098H463.036V287.205ZM463.036 290.312H459.929V287.205H463.036V290.312ZM463.036 293.403H459.929V290.312H463.036V293.403ZM463.036 299.618H459.929V296.511H463.036V299.618ZM463.036 296.511H459.929V293.403H463.036V296.511ZM447.516 262.363H444.409V259.256H447.516V262.363ZM459.929 302.725H456.822V299.618H459.929V302.725ZM456.822 302.725H453.714V299.618H456.822V302.725ZM466.143 296.511H463.036V293.403H466.143V296.511ZM450.623 296.511H447.516V293.403H450.623V296.511ZM494.076 293.403H490.969V290.312H494.076V293.403ZM490.969 293.403H487.878V290.312H490.969V293.403ZM472.342 296.511H469.251V293.403H472.342V296.511ZM469.251 296.511H466.143V293.403H469.251V296.511ZM466.143 299.618H463.036V296.511H466.143V299.618ZM463.036 302.725H459.929V299.618H463.036V302.725ZM475.449 296.511H472.342V293.403H475.449V296.511ZM466.143 293.403H463.036V290.312H466.143V293.403ZM494.076 262.363H490.969V259.256H494.076V262.363ZM490.969 262.363H487.878V259.256H490.969V262.363ZM450.623 262.363H447.516V259.256H450.623V262.363ZM447.516 293.403H444.409V290.312H447.516V293.403ZM450.623 293.403H447.516V290.312H450.623V293.403ZM475.449 262.363H472.342V259.256H475.449V262.363ZM447.516 296.511H444.409V293.403H447.516V296.511ZM469.251 293.403H466.143V290.312H469.251V293.403ZM472.342 293.403H469.251V290.312H472.342V293.403ZM475.449 293.403H472.342V290.312H475.449V293.403ZM494.076 259.256H490.969V256.149H494.076V259.256ZM469.251 256.149H472.342V259.256H469.251V256.149ZM469.251 259.256H472.342V262.363H469.251V259.256ZM475.449 296.511H478.556V299.618H475.449V296.511ZM475.449 299.618H478.556V302.725H475.449V299.618Z" fill="#FFD5FB"/>
<path d="M487.832 296.511H490.939V299.618H487.832V296.511ZM487.832 299.618H490.939V302.725H487.832V299.618ZM490.939 296.511H494.046V299.618H490.939V296.511ZM506.459 280.99H509.567V284.098H506.459V280.99ZM509.567 277.883H512.674V280.99H509.567V277.883ZM506.459 277.883H509.567V280.99H506.459V277.883ZM509.567 274.776H512.674V277.883H509.567V274.776ZM512.674 274.776H515.781V277.883H512.674V274.776ZM512.674 271.685H515.781V274.776H512.674V271.685ZM515.781 271.685H518.872V274.776H515.781V271.685ZM515.781 274.776H518.872V277.883H515.781V274.776ZM515.781 268.577H518.872V271.685H515.781V268.577ZM497.154 262.363H500.245V265.47H497.154V262.363ZM500.245 262.363H503.352V265.47H500.245V262.363ZM500.245 265.47H503.352V268.577H500.245V265.47ZM503.352 262.363H506.459V265.47H503.352V262.363ZM494.046 262.363H497.154V265.47H494.046V262.363ZM494.046 265.47H497.154V268.577H494.046V265.47ZM500.245 287.205H503.352V290.312H500.245V287.205ZM500.245 284.098H503.352V287.205H500.245V284.098ZM503.352 284.098H506.459V287.205H503.352V284.098ZM503.352 280.99H506.459V284.098H503.352V280.99ZM503.352 274.776H506.459V277.883H503.352V274.776ZM503.352 271.685H506.459V274.776H503.352V271.685ZM503.352 268.577H506.459V271.685H503.352V268.577ZM503.352 265.47H506.459V268.577H503.352V265.47ZM500.245 268.577H503.352V271.685H500.245V268.577ZM500.245 271.685H503.352V274.776H500.245V271.685ZM500.245 274.776H503.352V277.883H500.245V274.776ZM497.154 271.685H500.245V274.776H497.154V271.685ZM497.154 268.577H500.245V271.685H497.154V268.577ZM497.154 265.47H500.245V268.577H497.154V265.47ZM494.046 268.577H497.154V271.685H494.046V268.577ZM490.939 293.403H494.046V296.511H490.939V293.403ZM494.046 290.312H497.154V293.403H494.046V290.312ZM494.046 293.403H497.154V296.511H494.046V293.403ZM497.154 293.403H500.245V296.511H497.154V293.403ZM500.245 293.403H503.352V296.511H500.245V293.403ZM503.352 293.403H506.459V296.511H503.352V293.403ZM503.352 290.312H506.459V293.403H503.352V290.312ZM500.245 290.312H503.352V293.403H500.245V290.312ZM497.154 290.312H500.245V293.403H497.154V290.312ZM506.459 293.403H509.567V296.511H506.459V293.403ZM509.567 293.403H512.674V296.511H509.567V293.403ZM509.567 296.511H512.674V299.618H509.567V296.511ZM509.567 299.618H512.674V302.725H509.567V299.618ZM506.459 299.618H509.567V302.725H506.459V299.618ZM506.459 296.511H509.567V299.618H506.459V296.511ZM515.781 290.312H518.872V293.403H515.781V290.312ZM515.781 293.403H518.872V296.511H515.781V293.403ZM512.674 293.403H515.781V296.511H512.674V293.403ZM518.872 290.312H521.98V293.403H518.872V290.312ZM521.98 290.312H525.087V293.403H521.98V290.312ZM518.872 293.403H521.98V296.511H518.872V293.403ZM518.872 287.205H521.98V290.312H518.872V287.205ZM521.98 284.098H525.087V287.205H521.98V284.098ZM521.98 287.205H525.087V290.312H521.98V287.205ZM525.087 284.098H528.194V287.205H525.087V284.098ZM528.194 280.99H531.301V284.098H528.194V280.99ZM528.194 277.883H531.301V280.99H528.194V277.883ZM525.087 274.776H528.194V277.883H525.087V274.776ZM521.98 274.776H525.087V277.883H521.98V274.776ZM521.98 277.883H525.087V280.99H521.98V277.883ZM521.98 280.99H525.087V284.098H521.98V280.99ZM525.087 280.99H528.194V284.098H525.087V280.99ZM525.087 277.883H528.194V280.99H525.087V277.883ZM518.872 274.776H521.98V277.883H518.872V274.776ZM518.872 271.685H521.98V274.776H518.872V271.685ZM521.98 271.685H525.087V274.776H521.98V271.685ZM518.872 268.577H521.98V271.685H518.872V268.577ZM525.087 262.363H528.194V265.47H525.087V262.363ZM506.459 249.95H509.567V253.057H506.459V249.95ZM506.459 253.057H509.567V256.149H506.459V253.057ZM509.567 253.057H512.674V256.149H509.567V253.057ZM509.567 249.95H512.674V253.057H509.567V249.95ZM503.352 256.149H506.459V259.256H503.352V256.149ZM500.245 256.149H503.352V259.256H500.245V256.149ZM503.352 259.256H506.459V262.363H503.352V259.256ZM500.245 259.256H503.352V262.363H500.245V259.256ZM512.674 256.149H515.781V259.256H512.674V256.149ZM515.781 259.256H518.872V262.363H515.781V259.256ZM515.781 256.149H518.872V259.256H515.781V256.149ZM512.674 249.95H515.781V253.057H512.674V249.95ZM515.781 249.95H518.872V253.057H515.781V249.95ZM515.781 253.057H518.872V256.149H515.781V253.057ZM512.674 253.057H515.781V256.149H512.674V253.057ZM518.872 253.057H521.98V256.149H518.872V253.057ZM528.194 256.149H531.301V259.256H528.194V256.149ZM521.98 256.149H525.087V259.256H521.98V256.149ZM518.872 256.149H521.98V259.256H518.872V256.149ZM521.98 259.256H525.087V262.363H521.98V259.256ZM525.087 259.256H528.194V262.363H525.087V259.256ZM518.872 259.256H521.98V262.363H518.872V259.256ZM497.154 259.256H500.245V262.363H497.154V259.256ZM512.674 296.511H515.781V299.618H512.674V296.511ZM525.087 287.205H528.194V290.312H525.087V287.205ZM528.194 284.098H531.301V287.205H528.194V284.098ZM531.301 253.057H534.408V256.149H531.301V253.057ZM503.352 296.511H506.459V299.618H503.352V296.511ZM497.154 287.205H500.245V290.312H497.154V287.205ZM506.459 274.776H509.567V277.883H506.459V274.776ZM506.459 271.685H509.567V274.776H506.459V271.685ZM509.567 271.685H512.674V274.776H509.567V271.685ZM506.459 268.577H509.567V271.685H506.459V268.577ZM503.352 277.883H506.459V280.99H503.352V277.883ZM528.194 253.057H531.301V256.149H528.194V253.057ZM528.194 249.95H531.301V253.057H528.194V249.95ZM531.301 249.95H534.408V253.057H531.301V249.95ZM521.98 265.47H525.087V268.577H521.98V265.47ZM521.98 262.363H525.087V265.47H521.98V262.363ZM515.781 296.511H518.872V299.618H515.781V296.511ZM512.674 299.618H515.781V302.725H512.674V299.618ZM518.872 265.47H521.98V268.577H518.872V265.47ZM512.674 268.577H515.781V271.685H512.674V268.577ZM515.781 265.47H518.872V268.577H515.781V265.47ZM518.872 262.363H521.98V265.47H518.872V262.363ZM531.301 256.149H534.408V259.256H531.301V256.149ZM528.194 246.843H531.301V249.95H528.194V246.843ZM531.301 246.843H534.408V249.95H531.301V246.843ZM494.046 271.685H497.154V274.776H494.046V271.685ZM494.046 274.776H497.154V277.883H494.046V274.776ZM497.154 274.776H500.245V277.883H497.154V274.776ZM500.245 277.883H503.352V280.99H500.245V277.883ZM497.154 277.883H500.245V280.99H497.154V277.883ZM528.194 274.776H531.301V277.883H528.194V274.776ZM525.087 271.685H528.194V274.776H525.087V271.685ZM500.245 296.511H503.352V299.618H500.245V296.511ZM503.352 299.618H506.459V302.725H503.352V299.618ZM518.872 277.883H521.98V280.99H518.872V277.883ZM518.872 280.99H521.98V284.098H518.872V280.99ZM518.872 284.098H521.98V287.205H518.872V284.098ZM512.674 228.216V225.108H515.781V228.216H512.674ZM509.567 228.216V225.108H512.674V228.216H509.567ZM509.567 231.323V228.216H512.674V231.323H509.567ZM512.674 231.323V228.216H515.781V231.323H512.674ZM506.459 228.216V225.108H509.567V228.216H506.459ZM503.352 225.108V222.001H506.459V225.108H503.352ZM506.459 225.108V222.001H509.567V225.108H506.459ZM503.352 222.001V218.894H506.459V222.001H503.352ZM515.781 231.323V228.216H518.872V231.323H515.781ZM515.781 228.216V225.108H518.872V228.216H515.781ZM518.872 228.216V225.108H521.98V228.216H518.872ZM518.872 225.108V222.001H521.98V225.108H518.872ZM515.781 225.108V222.001H518.872V225.108H515.781ZM521.98 225.108V222.001H525.087V225.108H521.98ZM521.98 222.001V218.894H525.087V222.001H521.98ZM518.872 222.001V218.894H521.98V222.001H518.872ZM506.459 231.323V228.216H509.567V231.323H506.459ZM503.352 228.216V225.108H506.459V228.216H503.352ZM500.245 222.001V218.894H503.352V222.001H500.245ZM500.245 225.108V222.001H503.352V225.108H500.245ZM509.567 234.43V231.323H512.674V234.43H509.567ZM512.674 234.43V231.323H515.781V234.43H512.674ZM521.98 228.216V225.108H525.087V228.216H521.98ZM518.872 231.323V228.216H521.98V231.323H518.872ZM515.781 234.43V231.323H518.872V234.43H515.781ZM506.459 234.43V231.323H509.567V234.43H506.459ZM503.352 231.323V228.216H506.459V231.323H503.352ZM500.245 228.216V225.108H503.352V228.216H500.245ZM497.154 225.108V222.001H500.245V225.108H497.154ZM497.154 222.001V218.894H500.245V222.001H497.154ZM525.087 225.108V222.001H528.194V225.108H525.087ZM525.087 222.001V218.894H528.194V222.001H525.087ZM509.567 237.521V234.43H512.674V237.521H509.567ZM512.674 237.521V234.43H515.781V237.521H512.674Z" fill="#FFD5FB"/>
<path d="M540.568 299.618H543.676V302.725H540.568V299.618ZM543.676 299.618H546.783V302.725H543.676V299.618ZM537.477 296.511H540.584V299.618H537.477V296.511ZM540.568 296.511H543.676V299.618H540.568V296.511ZM543.676 296.511H546.783V299.618H543.676V296.511ZM546.783 296.511H549.89V299.618H546.783V296.511ZM534.37 293.403H537.477V296.511H534.37V293.403ZM537.477 293.403H540.584V296.511H537.477V293.403ZM537.477 290.296H540.584V293.403H537.477V290.296ZM540.568 290.296H543.676V293.403H540.568V290.296ZM540.568 293.403H543.676V296.511H540.568V293.403ZM543.676 293.403H546.783V296.511H543.676V293.403ZM546.783 293.403H549.89V296.511H546.783V293.403ZM546.783 290.296H549.89V293.403H546.783V290.296ZM543.676 290.296H546.783V293.403H543.676V290.296ZM540.568 287.205H543.676V290.312H540.568V287.205ZM543.676 287.205H546.783V290.312H543.676V287.205ZM546.783 287.205H549.89V290.312H546.783V287.205ZM546.783 284.098H549.89V287.205H546.783V284.098ZM543.676 284.098H546.783V287.205H543.676V284.098ZM540.568 284.098H543.676V287.205H540.568V284.098ZM540.568 280.99H543.676V284.098H540.568V280.99ZM540.568 277.883H543.676V280.99H540.568V277.883ZM540.568 274.776H543.676V277.883H540.568V274.776ZM540.568 271.669H543.676V274.776H540.568V271.669ZM540.568 268.577H543.676V271.685H540.568V268.577ZM543.676 268.577H546.783V271.685H543.676V268.577ZM546.783 268.577H549.89V271.685H546.783V268.577ZM546.783 271.669H549.89V274.776H546.783V271.669ZM546.783 274.776H549.89V277.883H546.783V274.776ZM546.783 277.883H549.89V280.99H546.783V277.883ZM543.676 277.883H546.783V280.99H543.676V277.883ZM543.676 280.99H546.783V284.098H543.676V280.99ZM543.676 274.776H546.783V277.883H543.676V274.776ZM543.676 271.669H546.783V274.776H543.676V271.669ZM546.783 280.99H549.89V284.098H546.783V280.99ZM546.783 265.47H549.89V268.577H546.783V265.47ZM546.783 262.363H549.89V265.47H546.783V262.363ZM546.783 259.256H549.89V262.363H546.783V259.256ZM546.783 256.149H549.89V259.256H546.783V256.149ZM546.783 253.041H549.89V256.149H546.783V253.041ZM540.568 253.041H543.676V256.149H540.568V253.041ZM543.676 256.149H546.783V259.256H543.676V256.149ZM543.676 259.256H546.783V262.363H543.676V259.256ZM543.676 262.363H546.783V265.47H543.676V262.363ZM543.676 265.47H546.783V268.577H543.676V265.47ZM540.568 265.47H543.676V268.577H540.568V265.47ZM540.568 262.363H543.676V265.47H540.568V262.363ZM540.568 259.256H543.676V262.363H540.568V259.256ZM540.568 256.149H543.676V259.256H540.568V256.149ZM543.676 253.041H546.783V256.149H543.676V253.041ZM537.477 287.205H540.584V290.312H537.477V287.205ZM537.477 284.098H540.584V287.205H537.477V284.098ZM537.477 280.99H540.584V284.098H537.477V280.99ZM537.477 277.883H540.584V280.99H537.477V277.883ZM537.477 274.776H540.584V277.883H537.477V274.776ZM537.477 271.669H540.584V274.776H537.477V271.669ZM537.477 268.577H540.584V271.685H537.477V268.577ZM537.477 265.47H540.584V268.577H537.477V265.47ZM537.477 262.363H540.584V265.47H537.477V262.363ZM537.477 259.256H540.584V262.363H537.477V259.256ZM537.477 253.041H540.584V256.149H537.477V253.041ZM537.477 256.149H540.584V259.256H537.477V256.149ZM552.997 290.296H556.105V293.403H552.997V290.296ZM540.568 249.95H543.676V253.057H540.568V249.95ZM543.676 249.95H546.783V253.057H543.676V249.95ZM537.477 237.521H540.584V240.628H537.477V237.521ZM540.568 237.521H543.676V240.628H540.568V237.521ZM543.676 237.521H546.783V240.628H543.676V237.521ZM546.783 237.521H549.89V240.628H546.783V237.521ZM546.783 234.414H549.89V237.521H546.783V234.414ZM546.783 231.323H549.89V234.43H546.783V231.323ZM546.783 228.216H549.89V231.323H546.783V228.216ZM543.676 228.216H546.783V231.323H543.676V228.216ZM540.568 228.216H543.676V231.323H540.568V228.216ZM537.477 228.216H540.584V231.323H537.477V228.216ZM537.477 231.323H540.584V234.43H537.477V231.323ZM537.477 234.414H540.584V237.521H537.477V234.414ZM540.568 234.414H543.676V237.521H540.568V234.414ZM543.676 234.414H546.783V237.521H543.676V234.414ZM543.676 231.323H546.783V234.43H543.676V231.323ZM540.568 231.323H543.676V234.43H540.568V231.323ZM549.89 293.403H552.997V296.511H549.89V293.403ZM534.37 256.149H537.477V259.256H534.37V256.149ZM531.263 256.149H534.37V259.256H531.263V256.149ZM531.263 259.256H534.37V262.363H531.263V259.256ZM534.37 259.256H537.477V262.363H534.37V259.256ZM549.89 256.149H552.997V259.256H549.89V256.149ZM552.997 256.149H556.105V259.256H552.997V256.149ZM552.997 259.256H556.105V262.363H552.997V259.256ZM549.89 259.256H552.997V262.363H549.89V259.256ZM531.263 290.296H534.37V293.403H531.263V290.296ZM534.37 290.296H537.477V293.403H534.37V290.296ZM549.89 290.296H552.997V293.403H549.89V290.296ZM531.263 293.403H534.37V296.511H531.263V293.403ZM537.477 299.618H540.584V302.725H537.477V299.618Z" fill="#FFD5FB"/>
<path d="M565.371 296.51H568.479V299.618H565.371V296.51ZM568.479 296.51H571.586V299.618H568.479V296.51ZM556.066 293.403H559.173V296.51H556.066V293.403ZM559.173 293.403H562.28V296.51H559.173V293.403ZM559.173 290.296H562.28V293.403H559.173V290.296ZM562.264 290.296H565.371V293.403H562.264V290.296ZM562.264 293.403H565.371V296.51H562.264V293.403ZM565.371 293.403H568.479V296.51H565.371V293.403ZM568.479 293.403H571.586V296.51H568.479V293.403ZM568.479 290.296H571.586V293.403H568.479V290.296ZM565.371 290.296H568.479V293.403H565.371V290.296ZM562.264 287.205H565.371V290.312H562.264V287.205ZM565.371 287.205H568.479V290.312H565.371V287.205ZM568.479 287.205H571.586V290.312H568.479V287.205ZM568.479 284.098H571.586V287.205H568.479V284.098ZM565.371 284.098H568.479V287.205H565.371V284.098ZM562.264 284.098H565.371V287.205H562.264V284.098ZM562.264 280.99H565.371V284.098H562.264V280.99ZM562.264 277.883H565.371V280.99H562.264V277.883ZM562.264 274.776H565.371V277.883H562.264V274.776ZM562.264 271.669H565.371V274.776H562.264V271.669ZM562.264 268.577H565.371V271.685H562.264V268.577ZM565.371 268.577H568.479V271.685H565.371V268.577ZM568.479 268.577H571.586V271.685H568.479V268.577ZM568.479 271.669H571.586V274.776H568.479V271.669ZM568.479 274.776H571.586V277.883H568.479V274.776ZM568.479 277.883H571.586V280.99H568.479V277.883ZM565.371 277.883H568.479V280.99H565.371V277.883ZM565.371 280.99H568.479V284.098H565.371V280.99ZM565.371 274.776H568.479V277.883H565.371V274.776ZM565.371 271.669H568.479V274.776H565.371V271.669ZM568.479 280.99H571.586V284.098H568.479V280.99ZM568.479 265.47H571.586V268.577H568.479V265.47ZM568.479 262.363H571.586V265.47H568.479V262.363ZM568.479 259.256H571.586V262.363H568.479V259.256ZM568.479 256.149H571.586V259.256H568.479V256.149ZM568.479 253.041H571.586V256.149H568.479V253.041ZM562.264 253.041H565.371V256.149H562.264V253.041ZM565.371 256.149H568.479V259.256H565.371V256.149ZM565.371 259.256H568.479V262.363H565.371V259.256ZM565.371 262.363H568.479V265.47H565.371V262.363ZM565.371 265.47H568.479V268.577H565.371V265.47ZM562.264 265.47H565.371V268.577H562.264V265.47ZM562.264 262.363H565.371V265.47H562.264V262.363ZM562.264 259.256H565.371V262.363H562.264V259.256ZM562.264 256.149H565.371V259.256H562.264V256.149ZM565.371 253.041H568.479V256.149H565.371V253.041ZM559.173 287.205H562.28V290.312H559.173V287.205ZM559.173 284.098H562.28V287.205H559.173V284.098ZM559.173 280.99H562.28V284.098H559.173V280.99ZM559.173 277.883H562.28V280.99H559.173V277.883ZM559.173 274.776H562.28V277.883H559.173V274.776ZM559.173 271.669H562.28V274.776H559.173V271.669ZM559.173 268.577H562.28V271.685H559.173V268.577ZM559.173 265.47H562.28V268.577H559.173V265.47ZM559.173 262.363H562.28V265.47H559.173V262.363ZM559.173 259.256H562.28V262.363H559.173V259.256ZM559.173 253.041H562.28V256.149H559.173V253.041ZM559.173 256.149H562.28V259.256H559.173V256.149ZM552.958 290.296H556.066V293.403H552.958V290.296ZM556.066 290.296H559.173V293.403H556.066V290.296ZM552.958 293.403H556.066V296.51H552.958V293.403ZM552.958 249.95H556.066V253.057H552.958V249.95ZM556.066 249.95H559.173V253.057H556.066V249.95ZM556.066 253.041H559.173V256.149H556.066V253.041ZM552.958 253.041H556.066V256.149H552.958V253.041ZM571.586 253.041H574.693V256.149H571.586V253.041ZM571.586 249.95H574.693V253.057H571.586V249.95ZM574.693 249.95H577.8V253.057H574.693V249.95ZM574.693 253.041H577.8V256.149H574.693V253.041ZM559.173 249.95H562.28V253.057H559.173V249.95ZM562.264 249.95H565.371V253.057H562.264V249.95ZM565.371 249.95H568.479V253.057H565.371V249.95ZM568.479 249.95H571.586V253.057H568.479V249.95ZM568.479 246.843H571.586V249.95H568.479V246.843ZM568.479 243.736H571.586V246.843H568.479V243.736ZM568.479 240.628H571.586V243.736H568.479V240.628ZM565.371 240.628H568.479V243.736H565.371V240.628ZM562.264 240.628H565.371V243.736H562.264V240.628ZM562.264 243.736H565.371V246.843H562.264V243.736ZM562.264 246.843H565.371V249.95H562.264V246.843ZM565.371 246.843H568.479V249.95H565.371V246.843ZM565.371 243.736H568.479V246.843H565.371V243.736ZM559.173 246.843H562.28V249.95H559.173V246.843ZM559.173 243.736H562.28V246.843H559.173V243.736ZM559.173 240.628H562.28V243.736H559.173V240.628ZM568.479 234.414H571.586V237.521H568.479V234.414ZM565.371 234.414H568.479V237.521H565.371V234.414ZM565.371 237.521H568.479V240.628H565.371V237.521ZM568.479 237.521H571.586V240.628H568.479V237.521ZM568.479 231.323H571.586V234.43H568.479V231.323ZM562.264 237.521H565.371V240.628H562.264V237.521ZM577.8 249.95H580.908V253.057H577.8V249.95ZM577.8 253.041H580.908V256.149H577.8V253.041ZM577.8 290.296H580.908V293.403H577.8V290.296ZM577.8 293.403H580.908V296.51H577.8V293.403ZM574.693 293.403H577.8V296.51H574.693V293.403ZM571.586 296.51H574.693V299.618H571.586V296.51ZM568.479 299.618H571.586V302.725H568.479V299.618ZM565.371 299.618H568.479V302.725H565.371V299.618ZM580.892 253.041H583.999V256.149H580.892V253.041ZM580.892 249.95H583.999V253.057H580.892V249.95ZM571.586 290.296H574.693V293.403H571.586V290.296ZM574.693 290.296H577.8V293.403H574.693V290.296ZM580.892 290.296H583.999V293.403H580.892V290.296ZM571.586 293.403H574.693V296.51H571.586V293.403ZM571.586 299.618H574.693V302.725H571.586V299.618ZM574.693 296.51H577.8V299.618H574.693V296.51Z" fill="#FFD5FB"/>
</g>
</g>
<mask id="mask7_1_1641" style="mask-type:luminance" maskUnits="userSpaceOnUse" x="82" y="23" width="59" height="60">
<path d="M82.0054 23.5765H140.434V82.0052H82.0054V23.5765Z" fill="white"/>
</mask>
<g mask="url(#mask7_1_1641)">
<mask id="mask8_1_1641" style="mask-type:luminance" maskUnits="userSpaceOnUse" x="60" y="4" width="98" height="98">
<path d="M60.9033 46.8247L115.368 4.41263L157.78 58.8772L103.315 101.289L60.9033 46.8247Z" fill="white"/>
</mask>
<g mask="url(#mask8_1_1641)">
<mask id="mask9_1_1641" style="mask-type:luminance" maskUnits="userSpaceOnUse" x="60" y="4" width="98" height="98">
<path d="M60.9033 46.8247L115.368 4.41263L157.78 58.8772L103.315 101.289L60.9033 46.8247Z" fill="white"/>
</mask>
<g mask="url(#mask9_1_1641)">
<path d="M88.0434 25.6907L89.8493 24.2812L92.6723 27.905L94.4781 26.4996L100.112 33.7351L101.918 32.3296L104.733 35.9414L106.539 34.5359L109.358 38.1597L111.167 36.7542L112.573 38.5601L114.379 37.1546L115.784 38.9605L119.432 36.1216L120.838 37.9274L124.461 35.1045L125.867 36.9104L129.491 34.0874L130.9 35.8933L138.124 30.2675L139.529 32.0733L135.905 34.8963L137.315 36.7022L131.885 40.9306L133.29 42.7364L127.873 46.9568L129.278 48.7627L127.472 50.1722L128.878 51.978L125.254 54.801L128.077 58.4247L126.271 59.8302L127.701 61.6681L125.895 63.0776L130.123 68.5072L128.317 69.9127L132.546 75.3423L130.74 76.7478L133.555 80.3635L131.749 81.769L126.111 74.5335L124.305 75.9389L120.425 70.9578L118.619 72.3632L116.865 70.1089L115.06 71.5143L112.237 67.8906L110.431 69.3L109.025 67.4902L107.215 68.8996L105.81 67.0937L102.154 69.9407L100.749 68.1348L97.1329 70.9457L95.7274 69.1399L88.4919 74.7777L87.0865 72.9678L83.4627 75.7908L82.0532 73.9849L89.2887 68.3511L87.8833 66.5452L93.3129 62.3168L91.9075 60.5109L95.5312 57.688L94.1258 55.8821L95.9316 54.4726L94.5262 52.6667L96.3321 51.2613L94.9226 49.4554L96.7325 48.05L95.323 46.2441L97.1289 44.8346L94.31 41.2108L96.1158 39.8054L91.8594 34.3397L93.6653 32.9342L88.0314 25.6987L88.0434 25.6907Z" fill="#FFD5FB"/>
</g>
</g>
</g>
<mask id="mask10_1_1641" style="mask-type:luminance" maskUnits="userSpaceOnUse" x="434" y="139" width="60" height="59">
<path d="M434.628 139.409H493.057V197.838H434.628V139.409Z" fill="white"/>
</mask>
<g mask="url(#mask10_1_1641)">
<mask id="mask11_1_1641" style="mask-type:luminance" maskUnits="userSpaceOnUse" x="413" y="119" width="98" height="98">
<path d="M413.538 162.117L468.003 119.704L510.415 174.169L455.95 216.581L413.538 162.117Z" fill="white"/>
</mask>
<g mask="url(#mask11_1_1641)">
<mask id="mask12_1_1641" style="mask-type:luminance" maskUnits="userSpaceOnUse" x="413" y="119" width="98" height="98">
<path d="M413.538 162.117L468.003 119.704L510.415 174.169L455.95 216.581L413.538 162.117Z" fill="white"/>
</mask>
<g mask="url(#mask12_1_1641)">
<path d="M440.678 140.983L442.484 139.573L445.307 143.197L447.112 141.791L452.746 149.027L454.552 147.621L457.367 151.233L459.173 149.828L461.996 153.452L463.802 152.046L465.207 153.852L467.013 152.446L468.419 154.252L472.066 151.413L473.472 153.219L477.096 150.396L478.505 152.202L482.129 149.379L483.534 151.185L490.758 145.559L492.167 147.365L488.543 150.188L489.949 151.994L484.519 156.222L485.925 158.028L480.507 162.249L481.913 164.055L480.107 165.464L481.512 167.27L477.888 170.089L480.711 173.713L478.905 175.122L480.339 176.96L478.529 178.369L482.757 183.799L480.952 185.205L485.18 190.634L483.374 192.04L486.189 195.655L484.383 197.061L478.745 189.825L476.939 191.231L473.063 186.25L471.254 187.655L469.5 185.401L467.694 186.806L464.871 183.182L463.065 184.588L461.66 182.782L459.854 184.191L458.444 182.386L454.788 185.233L453.383 183.427L449.767 186.238L448.362 184.432L441.126 190.066L439.721 188.26L436.097 191.083L434.688 189.277L441.927 183.643L440.518 181.837L445.947 177.609L444.542 175.799L448.166 172.98L446.76 171.174L448.566 169.764L447.16 167.959L448.966 166.553L447.557 164.747L449.367 163.342L447.957 161.532L449.763 160.126L446.944 156.503L448.75 155.097L444.494 149.632L446.3 148.226L440.666 140.991L440.678 140.983Z" fill="#FFD5FB"/>
</g>
</g>
</g>
<mask id="mask13_1_1641" style="mask-type:luminance" maskUnits="userSpaceOnUse" x="27" y="237" width="41" height="41">
<path d="M27.6772 237.815H67.6548V277.793H27.6772V237.815Z" fill="white"/>
</mask>
<g mask="url(#mask13_1_1641)">
<mask id="mask14_1_1641" style="mask-type:luminance" maskUnits="userSpaceOnUse" x="27" y="237" width="42" height="42">
<path d="M27.3091 238.588L67.5549 237.159L68.9844 277.4L28.7426 278.83L27.3091 238.588Z" fill="white"/>
</mask>
<g mask="url(#mask14_1_1641)">
<mask id="mask15_1_1641" style="mask-type:luminance" maskUnits="userSpaceOnUse" x="27" y="237" width="42" height="42">
<path d="M27.3091 238.588L67.5549 237.159L68.9844 277.4L28.7426 278.83L27.3091 238.588Z" fill="white"/>
</mask>
<g mask="url(#mask15_1_1641)">
<path d="M46.4324 237.907L47.7057 237.863L47.7938 240.418L49.0672 240.37L49.2474 245.471L50.5207 245.423L50.6128 247.97L51.8861 247.926L51.9742 250.476L53.2475 250.432L53.2956 251.706L54.5649 251.662L54.6129 252.931L57.1796 252.843L57.2276 254.112L59.7783 254.024L59.8263 255.297L62.377 255.205L62.425 256.479L67.5143 256.294L67.5584 257.568L65.0077 257.66L65.0518 258.933L61.2238 259.069L61.2718 260.343L57.4519 260.479L57.4999 261.748L56.2266 261.796L56.2706 263.07L53.716 263.158L53.8081 265.712L52.5348 265.756L52.5828 267.054L51.3095 267.098L51.4456 270.926L50.1723 270.97L50.3085 274.798L49.0351 274.842L49.1272 277.388L47.8539 277.432L47.6737 272.335L46.4004 272.379L46.2763 268.868L45.0029 268.916L44.9469 267.326L43.6736 267.37L43.5815 264.819L42.3081 264.863L42.2641 263.59L40.9908 263.634L40.9467 262.361L38.368 262.453L38.324 261.184L35.7774 261.272L35.7333 259.998L30.636 260.183L30.588 258.909L28.0373 259.001L27.9893 257.728L33.0906 257.544L33.0425 256.274L36.8705 256.138L36.8264 254.865L39.3771 254.773L39.333 253.5L40.6064 253.456L40.5623 252.182L41.8316 252.138L41.7876 250.865L43.0609 250.821L43.0169 249.547L44.2862 249.499L44.1981 246.949L45.4714 246.901L45.3313 243.053L46.6046 243.009L46.4244 237.907H46.4324Z" fill="#FFD5FB"/>
</g>
</g>
</g>
</g>
</svg>
