<svg width="63" height="63" viewBox="0 0 63 63" fill="none" xmlns="http://www.w3.org/2000/svg">
<g clip-path="url(#clip0_1_2367)">
<path d="M61.8982 18.7566C61.8982 18.7566 61.2877 14.4461 59.4072 12.5533C57.026 10.0623 54.364 10.0501 53.1429 9.90353C44.3997 9.26855 31.2727 9.26855 31.2727 9.26855H31.2483C31.2483 9.26855 18.1213 9.26855 9.37815 9.90353C8.15704 10.0501 5.49501 10.0623 3.11384 12.5533C1.23332 14.4461 0.634979 18.7566 0.634979 18.7566C0.634979 18.7566 0 23.8242 0 28.8796V33.6176C0 38.673 0.622768 43.7406 0.622768 43.7406C0.622768 43.7406 1.23332 48.0511 3.10163 49.9438C5.4828 52.4349 8.60885 52.3494 10.0009 52.6181C15.0075 53.0943 31.2605 53.2409 31.2605 53.2409C31.2605 53.2409 44.3997 53.2164 53.1429 52.5937C54.364 52.4471 57.026 52.4349 59.4072 49.9438C61.2877 48.0511 61.8982 43.7406 61.8982 43.7406C61.8982 43.7406 62.521 38.6852 62.521 33.6176V28.8796C62.521 23.8242 61.8982 18.7566 61.8982 18.7566ZM24.8008 39.369V21.7972L41.6888 30.6136L24.8008 39.369Z" fill="white"/>
</g>
<defs>
<clipPath id="clip0_1_2367">
<rect width="62.521" height="62.521" fill="white"/>
</clipPath>
</defs>
</svg>
