<svg width="655" height="329" viewBox="0 0 655 329" fill="none" xmlns="http://www.w3.org/2000/svg">
<g clip-path="url(#clip0_1_1639)">
<mask id="mask0_1_1639" style="mask-type:luminance" maskUnits="userSpaceOnUse" x="0" y="-17" width="655" height="371">
<path d="M654.815 -16.6569H0V353.95H654.815V-16.6569Z" fill="white"/>
</mask>
<g mask="url(#mask0_1_1639)">
<mask id="mask1_1_1639" style="mask-type:luminance" maskUnits="userSpaceOnUse" x="253" y="139" width="354" height="187">
<path d="M253.266 139.55H606.605V325.707H253.266V139.55Z" fill="white"/>
</mask>
<g mask="url(#mask1_1_1639)">
<path d="M601.843 149.33V144.46H597.035V139.657H552.72V144.46H543.038V149.263H533.357V154.062H523.671V158.865H518.868V163.669H514.061V168.61H509.254V173.414H499.572V178.217H494.765V183.016H489.958V187.819H485.155V192.622H480.348V197.564H475.541V202.367H470.734V207.171H465.931V211.969H461.124V216.773H456.107V221.576H451.299V231.249H446.492V236.053H441.689V240.856H436.882V245.655H432.075V250.458H427.129V255.261H422.322V264.935H417.515V269.738H413.557V260.981H418.365V251.307H423.172V236.83H427.974V227.157H432.782V212.68H437.589V198.413H442.396V179.133H447.199V164.656H452.006V154.983H456.813V149.263H446.282V158.937H441.475V163.74H437.517V158.937H427.129V163.74H417.448V168.61H403.804V163.807H394.123V159.008H379.634V154.205H369.953V149.402H355.464V144.46H320.902V149.263H306.413V154.062H296.732V158.865H291.924V163.669H287.117V168.61H282.243V183.087H277.436V193.61H282.243V208.087H287.046V212.89H291.853V217.693H296.66V222.492H336.168V217.693H345.85V212.89H350.657V208.087H355.464V198.413H360.267V183.087H355.464V173.414H335.247V183.936H349.736V202.367H344.933V207.171H340.197V211.969H335.39V216.773H302.455V211.969H297.648V207.171H292.841V202.367H288.038V179.133H292.841V169.459H297.648V164.656H302.455V159.853H312.137V155.054H345.072V159.853H359.56V164.656H364.368V169.459H378.856V174.263H393.345V179.061H413.557V174.263H427.129V183.016H422.322V187.819H417.515V192.622H412.712V197.564H407.905V202.367H403.098V212.041H398.152V216.844H393.345V221.647H388.538V226.446H383.735V231.249H378.928V236.053H374.121V245.726H369.175V250.53H364.368V255.333H359.56V260.132H354.758V264.935H349.95V269.738H345.143V274.541H340.197V279.34H335.39V284.144H330.583V288.947H325.78V293.75H320.973V298.549H311.22V303.352H306.413V308.155H301.606V312.959H287.046V317.757H268.599V313.379H263.797V309.424H273.478V294.103H258.068V298.902H253.266V314.228H258.068V319.031H262.876V323.834H297.577V319.031H307.263V314.228H312.065V309.424H321.751V304.626H326.554V299.822H331.361V295.019H336.168V290.077H340.976V285.274H345.778V280.471H350.585V275.672H355.393V270.869H360.2V266.065H365.003V261.262H369.81V256.463H374.617V251.66H379.42V246.857H384.227V242.053H389.034V232.38H393.841V227.577H398.644V222.778H403.451V217.975H408.258V213.171H412.216V221.929H407.409V231.602H402.606V246.079H398.152V255.471H393.345V269.948H388.538V284.425H383.735V303.705H378.928V313.379H374.121V318.182H369.175V328.704H374.899V323.901H379.706V319.031H384.509V314.228H389.316V309.424H394.123V304.626H398.93V299.822H403.733V290.077H408.54V285.274H413.347V280.471H418.154V275.672H422.957V270.869H427.764V261.195H432.571V256.392H437.379V251.589H442.181V246.785H446.989V241.986H451.796V237.183H456.598V232.38H461.406V227.577H466.213V217.903H471.02V213.1H475.823V208.301H480.63V203.498H485.437V198.695H490.244V193.891H495.047V189.092H499.854V184.289H504.661V179.486H514.343V174.683H519.15V169.884H523.957V165.081H528.76V160.277H538.446V155.474H548.691V150.675H558.377V145.376H586.433V150.179H591.24V154.983H596.047V168.61H591.24V178.284H586.433V187.962H581.626V192.761H576.823V197.564H567.137V202.367H562.334V207.171H552.648V212.89H567.987V208.087H572.794V203.283H582.475V198.484H587.282V193.681H592.09V188.878H596.892V184.075H601.699V174.33H606.507V149.33H601.843ZM407.762 275.6V279.555H403.804V275.6H407.762ZM408.683 274.751V270.797H412.641V274.751H408.683ZM417.448 203.283V212.041H413.486V203.283H417.448ZM418.293 202.367V198.413H422.251V202.367H418.293ZM436.739 168.61H432.782V164.656H436.739V168.61ZM427.974 169.459H431.936V173.414H427.974V169.459Z" fill="#FFD5FB"/>
</g>
<mask id="mask2_1_1639" style="mask-type:luminance" maskUnits="userSpaceOnUse" x="0" y="0" width="360" height="277">
<path d="M0 0.0137939H359.461V276.039H0V0.0137939Z" fill="white"/>
</mask>
<g mask="url(#mask2_1_1639)">
<path d="M343.287 4.996V9.94225H328.36V14.893H318.383V19.8392H309.127V14.893H299.15V9.94225H284.219V4.996H259.315V0.0452881H228.813V4.996H194V9.94225H174.119V14.893H164.142V19.8392H149.215V24.7899H139.238V29.7362H134.288V34.6869H124.312V39.6331H114.335V44.5794H109.38V49.5301H104.43V54.4763H99.4752V59.4271H94.5249V64.3733H89.5702V69.61H84.6199V74.5562H79.6696V79.5069H74.6433V89.4754H69.6215V99.4439H64.6667V134.867H69.6215V144.836H74.5717V149.787H84.5483V154.733H94.5249V159.684H115.122V154.733H135.004V149.787H144.98V144.836H154.957V139.89H159.912V134.943H164.862V129.993H169.812V125.046H174.767V120.096H179.717V115.149H184.672V110.199H189.622V105.252H194.577V95.284H199.527V85.3156H204.482V70.3249H209.432V34.8299H203.762V49.7446H198.812V64.6593H193.857V74.6277H188.907V79.5784H183.952V89.5469H179.002V94.4931H174.047V104.462H169.097V109.412H164.142V114.359H159.192V119.309H154.241V124.256H149.287V129.206H144.265V134.152H139.31V139.099H129.333V144.049H119.357V148.996H85.1923V144.192H80.242V139.246H75.2917V100.159H80.242V90.1903H85.1923V80.2219H90.147V75.2756H95.0973V70.3249H100.052V65.3072H105.002V60.3564H109.957V55.4102H114.907V50.4639H119.862V45.5132H129.839V40.567H134.789V35.6163H144.766V30.67H154.742V25.7193H169.669V20.7731H184.6V15.8223H204.482V10.8761H268.5V15.8223H293.551V20.7731H303.528V25.0759H298.573V30.0221H293.551V34.9729H283.575V39.9191H278.62V44.8698H273.67V49.8161H263.693V54.7668H258.738V59.713H253.788V64.6593H248.838V69.61H243.883V74.5562H233.906V79.5069H228.956V84.4532H224.001V89.4039H218.908V94.3502H213.953V99.3009H209.003V104.247H204.048V114.216H199.098V119.166H194.143V124.113H189.193V129.059H184.238V134.01H179.288V144.192H174.338V149.139H169.383V159.107H164.433V164.058H159.478V169.004H154.528V178.973H149.573V183.923H144.265V188.87H139.31V198.838H134.36V203.789H129.405V208.735H124.455V213.681H119.5V223.65H114.55V228.6H109.595V233.547H104.645V238.497H99.6943V243.444H94.7396V248.394H89.7893V253.341H84.8345V258.291H74.6433V263.237H64.6667V268.188H25.5519V263.237H15.5753V253.988H25.5519V249.038H30.5022V244.091H35.4569V238.426H30.5022V233.475H9.97659V238.426H4.95028V243.372H0V253.988H4.95028V263.957H9.90504V268.903H14.8553V273.849H29.7867V278.8H55.3385V273.849H75.2157V268.903H85.1923V263.957H95.1689V259.006H105.145V254.06H110.1V249.109H120.077V244.163H125.027V239.212H129.982V234.266H134.932V229.315H139.887V224.369H144.837V219.423H149.787V214.472H154.742V209.526H159.692V204.575H164.647V199.629H169.598V194.678H174.552V189.732H179.503V184.781H184.457V174.813H189.408V169.866H194.362V164.916H199.313V154.952H204.263V150.001H209.218V145.055H214.168V135.086H219.123V130.136H224.073V125.189H229.028V115.221H233.978V110.27H238.933V100.302H243.883V95.3555H248.838V90.4048H253.788V85.4585H258.738V80.5123H263.693V75.5616H268.643V65.3072H273.598V60.3564H278.548V55.4102H289.245V50.4639H294.195V45.5132H299.15V40.567H304.1V35.6163H314.077V30.67H318.383V40.6385H323.334V79.7214H318.383V94.6361H313.433V99.5868H308.478V109.555H303.528V114.502H298.573V119.452H293.551V124.398H288.525V129.349H283.575V134.295H278.62V139.246H273.67V144.192H263.693V149.139H254.432V144.192H223.93V149.139H218.908V154.804H223.858V159.755H253.717V174.026H248.762V178.973H243.812V183.923H238.861V188.87H233.906V193.82H228.956V198.766H224.001V208.735H218.908V213.681H213.953V223.65H209.003V233.618H204.048V259.149H209.003V269.118H218.908V274.068H228.885V279.015H249.482V274.068H264.409V269.118H274.385V264.171H284.219V259.221H289.173V254.274H294.124V249.324H299.079V244.377H304.029V239.427H308.979V234.48H313.934V229.534H318.884V224.583H323.839V214.472H328.789V204.504H333.744V174.026H328.074V183.995H323.119V198.909H318.169V208.878H313.214V218.775H308.264V223.726H303.313V233.69H298.359V238.64H293.551V243.587H288.525V248.537H283.575V253.483H273.598V258.434H268.643V263.38H258.667V268.331H224.507V258.363H219.552V254.06H224.507V244.091H229.457V239.141H234.407V234.194H239.362V229.244H244.312V219.275H249.267V214.472H254.217V209.526H259.172V204.575H264.122V194.607H269.077V179.692H274.027V164.129H269.077V154.876H274.027V149.93H289.245V144.983H299.222V139.89H304.172V134.943H309.127V129.993H319.103V125.046H324.054V120.096H329.004V110.127H333.959V105.181H338.909V95.2125H343.864V54.6953H338.909V44.7983H333.959V34.8299H329.004V29.8792H324.054V25.5763H329.004V20.6301H338.98V15.6794H353.912V10.7331H358.862V4.996H343.287ZM243.74 149.858V154.161H229.457V149.858H243.74Z" fill="#FFD5FB"/>
</g>
<mask id="mask3_1_1639" style="mask-type:luminance" maskUnits="userSpaceOnUse" x="338" y="-17" width="251" height="176">
<path d="M338.855 -16.2324H588.418V158.352H338.855V-16.2324Z" fill="white"/>
</mask>
<g mask="url(#mask3_1_1639)">
<mask id="mask4_1_1639" style="mask-type:luminance" maskUnits="userSpaceOnUse" x="338" y="-17" width="251" height="176">
<path d="M588.418 -16.6569H338.855V158.352H588.418V-16.6569Z" fill="white"/>
</mask>
<g mask="url(#mask4_1_1639)">
<path d="M356.081 110.567H360.159V114.642H356.081V110.567ZM356.081 106.51H360.159V110.585H356.081V106.51ZM356.081 102.435H360.159V106.51H356.081V102.435ZM356.081 98.3784H360.159V102.453H356.081V98.3784ZM356.081 94.3034H360.159V98.3784H356.081V94.3034ZM356.081 90.2463H360.159V94.3213H356.081V90.2463ZM356.081 86.1714H360.159V90.2463H356.081V86.1714ZM356.081 82.1143H360.159V86.1892H356.081V82.1143ZM356.081 78.0393H360.159V82.1143H356.081V78.0393ZM356.081 73.9822H360.159V78.0572H356.081V73.9822ZM360.159 73.9822H364.237V78.0572H360.159V73.9822ZM364.22 73.9822H368.298V78.0572H364.22V73.9822ZM352.021 73.9822H356.099V78.0572H352.021V73.9822ZM352.021 78.0393H356.099V82.1143H352.021V78.0393ZM352.021 82.1143H356.099V86.1892H352.021V82.1143ZM352.021 86.1714H356.099V90.2463H352.021V86.1714ZM352.021 90.2463H356.099V94.3213H352.021V90.2463ZM352.021 94.3034H356.099V98.3784H352.021V94.3034ZM352.021 98.3784H356.099V102.453H352.021V98.3784ZM352.021 102.435H356.099V106.51H352.021V102.435ZM352.021 106.51H356.099V110.585H352.021V106.51ZM360.159 106.51H364.237V110.585H360.159V106.51ZM364.22 106.51H368.298V110.585H364.22V106.51ZM364.22 102.435H368.298V106.51H364.22V102.435ZM364.22 98.3784H368.298V102.453H364.22V98.3784ZM364.22 94.3034H368.298V98.3784H364.22V94.3034ZM364.22 90.2463H368.298V94.3213H364.22V90.2463ZM364.22 86.1714H368.298V90.2463H364.22V86.1714ZM364.22 82.1143H368.298V86.1892H364.22V82.1143ZM364.22 78.0393H368.298V82.1143H364.22V78.0393ZM360.159 78.0393H364.237V82.1143H360.159V78.0393ZM360.159 82.1143H364.237V86.1892H360.159V82.1143ZM360.159 86.1714H364.237V90.2463H360.159V86.1714ZM360.159 90.2463H364.237V94.3213H360.159V90.2463ZM360.159 94.3034H364.237V98.3784H360.159V94.3034ZM360.159 98.3784H364.237V102.453H360.159V98.3784ZM360.159 102.435H364.237V106.51H360.159V102.435ZM360.159 110.567H364.237V114.642H360.159V110.567ZM364.22 110.567H368.298V114.642H364.22V110.567ZM364.22 114.642H368.298V118.717H364.22V114.642ZM360.159 114.642H364.237V118.717H360.159V114.642ZM368.298 106.51H372.376V110.585H368.298V106.51ZM372.358 106.51H376.437V110.585H372.358V106.51ZM376.437 106.51H380.515V110.585H376.437V106.51ZM364.22 69.9073H368.298V73.9822H364.22V69.9073ZM364.22 65.8502H368.298V69.9252H364.22V65.8502ZM364.22 61.7752H368.298V65.8502H364.22V61.7752ZM364.22 57.7182H368.298V61.7931H364.22V57.7182ZM352.021 65.8502H356.099V69.9252H352.021V65.8502ZM352.021 69.9073H356.099V73.9822H352.021V69.9073ZM356.081 69.9073H360.159V73.9822H356.081V69.9073ZM356.081 65.8502H360.159V69.9252H356.081V65.8502ZM360.159 65.8502H364.237V69.9252H360.159V65.8502ZM360.159 61.7752H364.237V65.8502H360.159V61.7752ZM360.159 57.7182H364.237V61.7931H360.159V57.7182ZM360.159 69.9073H364.237V73.9822H360.159V69.9073ZM372.358 49.5682H376.437V53.6432H372.358V49.5682ZM372.358 53.6432H376.437V57.7182H372.358V53.6432ZM368.298 53.6432H372.376V57.7182H368.298V53.6432ZM376.437 49.5682H380.515V53.6432H376.437V49.5682ZM380.497 49.5682H384.575V53.6432H380.497V49.5682ZM380.497 53.6432H384.575V57.7182H380.497V53.6432ZM376.437 53.6432H380.515V57.7182H376.437V53.6432ZM380.497 57.7182H384.575V61.7931H380.497V57.7182ZM388.636 57.7182H392.714V61.7931H388.636V57.7182ZM388.636 61.7752H392.714V65.8502H388.636V61.7752ZM384.575 61.7752H388.654V65.8502H384.575V61.7752ZM384.575 57.7182H388.654V61.7931H384.575V57.7182ZM356.081 61.7752H360.159V65.8502H356.081V61.7752ZM347.942 106.51H352.021V110.585H347.942V106.51ZM343.882 106.51H347.96V110.585H343.882V106.51ZM343.882 102.435H347.96V106.51H343.882V102.435ZM347.942 102.435H352.021V106.51H347.942V102.435ZM368.298 102.435H372.376V106.51H368.298V102.435ZM372.358 102.435H376.437V106.51H372.358V102.435ZM376.437 102.435H380.515V106.51H376.437V102.435ZM380.497 102.435H384.575V106.51H380.497V102.435ZM368.298 114.642H372.376V118.717H368.298V114.642ZM368.298 110.567H372.376V114.642H368.298V110.567ZM372.358 110.567H376.437V114.642H372.358V110.567ZM376.437 57.7182H380.515V61.7931H376.437V57.7182ZM380.497 61.7752H384.575V65.8502H380.497V61.7752ZM388.636 65.8502H392.714V69.9252H388.636V65.8502ZM384.575 65.8502H388.654V69.9252H384.575V65.8502ZM388.636 69.9073H392.714V73.9822H388.636V69.9073ZM384.575 49.5682H388.654V53.6432H384.575V49.5682ZM388.636 53.6432H392.714V57.7182H388.636V53.6432ZM384.575 53.6432H388.654V57.7182H384.575V53.6432ZM392.714 57.7182H396.792V61.7931H392.714V57.7182ZM392.714 61.7752H396.792V65.8502H392.714V61.7752ZM392.714 65.8502H396.792V69.9252H392.714V65.8502ZM380.497 73.9822H384.575V78.0572H380.497V73.9822ZM376.437 73.9822H380.515V78.0572H376.437V73.9822ZM372.358 73.9822H376.437V78.0572H372.358V73.9822ZM368.298 73.9822H372.376V78.0572H368.298V73.9822ZM368.298 78.0393H372.376V82.1143H368.298V78.0393ZM372.358 78.0393H376.437V82.1143H372.358V78.0393ZM376.437 78.0393H380.515V82.1143H376.437V78.0393ZM380.497 78.0393H384.575V82.1143H380.497V78.0393ZM384.575 73.9822H388.654V78.0572H384.575V73.9822ZM384.575 78.0393H388.654V82.1143H384.575V78.0393ZM392.714 69.9073H396.792V73.9822H392.714V69.9073ZM368.298 57.7182H372.376V61.7931H368.298V57.7182ZM364.22 53.6432H368.298V57.7182H364.22V53.6432ZM368.298 49.5682H372.376V53.6432H368.298V49.5682Z" fill="#FFD5FB"/>
<path d="M392.659 114.642H396.719V118.717H392.659V114.642ZM392.659 110.585H396.719V114.642H392.659V110.585ZM396.719 110.585H400.798V114.642H396.719V110.585ZM400.798 106.51H404.858V110.585H400.798V106.51ZM400.798 102.453H404.858V106.51H400.798V102.453ZM404.858 102.453H408.936V106.51H404.858V102.453ZM412.997 94.3213H417.075V98.3784H412.997V94.3213ZM408.936 94.3213H412.997V98.3784H408.936V94.3213ZM417.075 86.1892H421.135V90.2463H417.075V86.1892ZM421.135 86.1892H425.214V90.2463H421.135V86.1892ZM429.274 78.0572H433.352V82.1143H429.274V78.0572ZM425.214 78.0572H429.274V82.1143H425.214V78.0572ZM433.352 69.9252H437.413V73.9822H433.352V69.9252ZM437.413 69.9252H441.491V73.9822H437.413V69.9252ZM441.491 61.7931H445.551V65.8502H441.491V61.7931ZM445.551 61.7931H449.63V65.8502H445.551V61.7931ZM449.63 53.6432H453.708V57.7182H449.63V53.6432ZM453.708 53.6432H457.768V57.7182H453.708V53.6432ZM453.708 49.5861H457.768V53.6432H453.708V49.5861ZM449.63 49.5861H453.708V53.6432H449.63V49.5861ZM445.551 57.7182H449.63V61.7931H445.551V57.7182ZM441.491 57.7182H445.551V61.7931H441.491V57.7182ZM433.352 65.8502H437.413V69.9252H433.352V65.8502ZM437.413 65.8502H441.491V69.9252H437.413V65.8502ZM425.214 73.9822H429.274V78.0572H425.214V73.9822ZM429.274 73.9822H433.352V78.0572H429.274V73.9822ZM417.075 82.1143H421.135V86.1892H417.075V82.1143ZM421.135 82.1143H425.214V86.1892H421.135V82.1143ZM412.997 90.2463H417.075V94.3213H412.997V90.2463ZM404.858 98.3784H408.936V102.453H404.858V98.3784ZM408.936 98.3784H412.997V102.453H408.936V98.3784ZM412.997 98.3784H417.075V102.453H412.997V98.3784ZM417.075 98.3784H421.135V102.453H417.075V98.3784ZM417.075 102.453H421.135V106.51H417.075V102.453ZM412.997 102.453H417.075V106.51H412.997V102.453ZM408.936 102.453H412.997V106.51H408.936V102.453ZM412.997 106.51H417.075V110.585H412.997V106.51ZM417.075 106.51H421.135V110.585H417.075V106.51ZM417.075 110.585H421.135V114.642H417.075V110.585ZM417.075 114.642H421.135V118.717H417.075V114.642ZM421.135 114.642H425.214V118.717H421.135V114.642ZM421.135 110.585H425.214V114.642H421.135V110.585ZM425.214 110.585H429.274V114.642H425.214V110.585ZM425.214 114.642H429.274V118.717H425.214V114.642ZM429.274 114.642H433.352V118.717H429.274V114.642ZM429.274 110.585H433.352V114.642H429.274V110.585ZM433.352 110.585H437.413V114.642H433.352V110.585ZM437.413 110.585H441.491V114.642H437.413V110.585ZM437.413 114.642H441.491V118.717H437.413V114.642ZM433.352 114.642H437.413V118.717H433.352V114.642ZM441.491 110.585H445.551V114.642H441.491V110.585ZM445.551 110.585H449.63V114.642H445.551V110.585ZM441.491 114.642H445.551V118.717H441.491V114.642ZM425.214 102.453H429.274V106.51H425.214V102.453ZM429.274 102.453H433.352V106.51H429.274V102.453ZM433.352 102.453H437.413V106.51H433.352V102.453ZM437.413 102.453H441.491V106.51H437.413V102.453ZM445.551 106.51H449.63V110.585H445.551V106.51ZM441.491 106.51H445.551V110.585H441.491V106.51ZM437.413 106.51H441.491V110.585H437.413V106.51ZM433.352 106.51H437.413V110.585H433.352V106.51ZM429.274 106.51H433.352V110.585H429.274V106.51ZM425.214 106.51H429.274V110.585H425.214V106.51ZM421.135 106.51H425.214V110.585H421.135V106.51ZM449.63 102.453H453.708V106.51H449.63V102.453ZM453.708 102.453H457.768V106.51H453.708V102.453ZM449.63 106.51H453.708V110.585H449.63V106.51ZM453.708 98.3784H457.768V102.453H453.708V98.3784ZM453.708 94.3213H457.768V98.3784H453.708V94.3213ZM449.63 98.3784H453.708V102.453H449.63V98.3784ZM437.413 57.7182H441.491V61.7931H437.413V57.7182ZM433.352 57.7182H437.413V61.7931H433.352V57.7182ZM429.274 57.7182H433.352V61.7931H429.274V57.7182ZM425.214 57.7182H429.274V61.7931H425.214V57.7182ZM421.135 57.7182H425.214V61.7931H421.135V57.7182ZM417.075 57.7182H421.135V61.7931H417.075V57.7182ZM412.997 57.7182H417.075V61.7931H412.997V57.7182ZM408.936 57.7182H412.997V61.7931H408.936V57.7182ZM404.858 57.7182H408.936V61.7931H404.858V57.7182ZM404.858 61.7931H408.936V65.8502H404.858V61.7931ZM408.936 61.7931H412.997V65.8502H408.936V61.7931ZM412.997 61.7931H417.075V65.8502H412.997V61.7931ZM417.075 61.7931H421.135V65.8502H417.075V61.7931ZM421.135 61.7931H425.214V65.8502H421.135V61.7931ZM425.214 61.7931H429.274V65.8502H425.214V61.7931ZM429.274 61.7931H433.352V65.8502H429.274V61.7931ZM433.352 61.7931H437.413V65.8502H433.352V61.7931ZM437.413 61.7931H441.491V65.8502H437.413V61.7931ZM400.798 61.7931H404.858V65.8502H400.798V61.7931ZM396.719 61.7931H400.798V65.8502H396.719V61.7931ZM392.659 61.7931H396.719V65.8502H392.659V61.7931ZM396.719 57.7182H400.798V61.7931H396.719V57.7182ZM400.798 57.7182H404.858V61.7931H400.798V57.7182ZM400.798 53.6432H404.858V57.7182H400.798V53.6432ZM404.858 49.5861H408.936V53.6432H404.858V49.5861ZM404.858 53.6432H408.936V57.7182H404.858V53.6432ZM408.936 53.6432H412.997V57.7182H408.936V53.6432ZM408.936 49.5861H412.997V53.6432H408.936V49.5861ZM412.997 49.5861H417.075V53.6432H412.997V49.5861ZM412.997 53.6432H417.075V57.7182H412.997V53.6432ZM417.075 49.5861H421.135V53.6432H417.075V49.5861ZM421.135 49.5861H425.214V53.6432H421.135V49.5861ZM421.135 53.6432H425.214V57.7182H421.135V53.6432ZM417.075 53.6432H421.135V57.7182H417.075V53.6432ZM425.214 49.5861H429.274V53.6432H425.214V49.5861ZM429.274 49.5861H433.352V53.6432H429.274V49.5861ZM429.274 53.6432H433.352V57.7182H429.274V53.6432ZM425.214 53.6432H429.274V57.7182H425.214V53.6432ZM392.659 65.8502H396.719V69.9252H392.659V65.8502ZM396.719 65.8502H400.798V69.9252H396.719V65.8502ZM396.719 69.9252H400.798V73.9822H396.719V69.9252ZM392.659 69.9252H396.719V73.9822H392.659V69.9252ZM408.936 106.51H412.997V110.585H408.936V106.51ZM421.135 102.453H425.214V106.51H421.135V102.453ZM441.491 102.453H445.551V106.51H441.491V102.453ZM445.551 102.453H449.63V106.51H445.551V102.453ZM412.997 110.585H417.075V114.642H412.997V110.585ZM396.719 106.51H400.798V110.585H396.719V106.51ZM412.997 86.1892H417.075V90.2463H412.997V86.1892ZM417.075 90.2463H421.135V94.3213H417.075V90.2463ZM421.135 78.0572H425.214V82.1143H421.135V78.0572ZM425.214 82.1143H429.274V86.1892H425.214V82.1143ZM429.274 69.9252H433.352V73.9822H429.274V69.9252ZM433.352 73.9822H437.413V78.0572H433.352V73.9822ZM441.491 65.8502H445.551V69.9252H441.491V65.8502ZM445.551 53.6432H449.63V57.7182H445.551V53.6432ZM449.63 57.7182H453.708V61.7931H449.63V57.7182ZM400.798 65.8502H404.858V69.9252H400.798V65.8502ZM433.352 53.6432H437.413V57.7182H433.352V53.6432ZM408.936 90.2463H412.997V94.3213H408.936V90.2463ZM404.858 94.3213H408.936V98.3784H404.858V94.3213ZM400.798 98.3784H404.858V102.453H400.798V98.3784ZM396.719 102.453H400.798V106.51H396.719V102.453ZM392.659 106.51H396.719V110.585H392.659V106.51ZM388.581 110.585H392.659V114.642H388.581V110.585ZM388.581 114.642H392.659V118.717H388.581V114.642ZM425.214 21.115V17.0579H429.274V21.115H425.214ZM421.135 21.115V17.0579H425.214V21.115H421.135ZM421.135 25.19V21.115H425.214V25.19H421.135ZM425.214 25.19V21.115H429.274V25.19H425.214ZM417.075 21.115V17.0579H421.135V21.115H417.075ZM412.997 17.0579V12.983H417.075V17.0579H412.997ZM417.075 17.0579V12.983H421.135V17.0579H417.075ZM412.997 12.983V8.9259H417.075V12.983H412.997ZM429.274 25.19V21.115H433.352V25.19H429.274ZM429.274 21.115V17.0579H433.352V21.115H429.274ZM433.352 21.115V17.0579H437.413V21.115H433.352ZM433.352 17.0579V12.983H437.413V17.0579H433.352ZM429.274 17.0579V12.983H433.352V17.0579H429.274ZM437.413 17.0579V12.983H441.491V17.0579H437.413ZM437.413 12.983V8.9259H441.491V12.983H437.413ZM433.352 12.983V8.9259H437.413V12.983H433.352ZM417.075 25.19V21.115H421.135V25.19H417.075ZM412.997 21.115V17.0579H417.075V21.115H412.997ZM408.936 12.983V8.9259H412.997V12.983H408.936ZM408.936 17.0579V12.983H412.997V17.0579H408.936ZM421.135 29.2471V25.19H425.214V29.2471H421.135ZM425.214 29.2471V25.19H429.274V29.2471H425.214ZM437.413 21.115V17.0579H441.491V21.115H437.413ZM433.352 25.19V21.115H437.413V25.19H433.352ZM429.274 29.2471V25.19H433.352V29.2471H429.274ZM417.075 29.2471V25.19H421.135V29.2471H417.075ZM412.997 25.19V21.115H417.075V25.19H412.997ZM408.936 21.115V17.0579H412.997V21.115H408.936ZM404.858 17.0579V12.983H408.936V17.0579H404.858ZM404.858 12.983V8.9259H408.936V12.983H404.858ZM441.491 17.0579V12.983H445.551V17.0579H441.491ZM441.491 12.983V8.9259H445.551V12.983H441.491ZM421.135 33.322V29.2471H425.214V33.322H421.135ZM425.214 33.322V29.2471H429.274V33.322H425.214Z" fill="#FFD5FB"/>
<path d="M465.841 114.642H469.919V118.717H465.841V114.642ZM469.919 114.642H473.998V118.717H469.919V114.642ZM461.781 110.567H465.859V114.642H461.781V110.567ZM465.841 110.567H469.919V114.642H465.841V110.567ZM469.919 110.567H473.998V114.642H469.919V110.567ZM473.98 110.567H478.058V114.642H473.98V110.567ZM457.702 106.51H461.781V110.585H457.702V106.51ZM461.781 106.51H465.859V110.585H461.781V106.51ZM461.781 102.435H465.859V106.51H461.781V102.435ZM465.841 102.435H469.919V106.51H465.841V102.435ZM465.841 106.51H469.919V110.585H465.841V106.51ZM469.919 106.51H473.998V110.585H469.919V106.51ZM473.98 106.51H478.058V110.585H473.98V106.51ZM473.98 102.435H478.058V106.51H473.98V102.435ZM469.919 102.435H473.998V106.51H469.919V102.435ZM465.841 98.3783H469.919V102.453H465.841V98.3783ZM469.919 98.3783H473.998V102.453H469.919V98.3783ZM473.98 98.3783H478.058V102.453H473.98V98.3783ZM473.98 94.3034H478.058V98.3783H473.98V94.3034ZM469.919 94.3034H473.998V98.3783H469.919V94.3034ZM465.841 94.3034H469.919V98.3783H465.841V94.3034ZM465.841 90.2463H469.919V94.3212H465.841V90.2463ZM465.841 86.1713H469.919V90.2463H465.841V86.1713ZM465.841 82.1142H469.919V86.1892H465.841V82.1142ZM465.841 78.0393H469.919V82.1142H465.841V78.0393ZM465.841 73.9822H469.919V78.0571H465.841V73.9822ZM469.919 73.9822H473.998V78.0571H469.919V73.9822ZM473.98 73.9822H478.058V78.0571H473.98V73.9822ZM473.98 78.0393H478.058V82.1142H473.98V78.0393ZM473.98 82.1142H478.058V86.1892H473.98V82.1142ZM473.98 86.1713H478.058V90.2463H473.98V86.1713ZM469.919 86.1713H473.998V90.2463H469.919V86.1713ZM469.919 90.2463H473.998V94.3212H469.919V90.2463ZM469.919 82.1142H473.998V86.1892H469.919V82.1142ZM469.919 78.0393H473.998V82.1142H469.919V78.0393ZM473.98 90.2463H478.058V94.3212H473.98V90.2463ZM473.98 69.9072H478.058V73.9822H473.98V69.9072ZM473.98 65.8501H478.058V69.9251H473.98V65.8501ZM473.98 61.7752H478.058V65.8501H473.98V61.7752ZM473.98 57.7181H478.058V61.7931H473.98V57.7181ZM473.98 53.6432H478.058V57.7181H473.98V53.6432ZM465.841 53.6432H469.919V57.7181H465.841V53.6432ZM469.919 57.7181H473.998V61.7931H469.919V57.7181ZM469.919 61.7752H473.998V65.8501H469.919V61.7752ZM469.919 65.8501H473.998V69.9251H469.919V65.8501ZM469.919 69.9072H473.998V73.9822H469.919V69.9072ZM465.841 69.9072H469.919V73.9822H465.841V69.9072ZM465.841 65.8501H469.919V69.9251H465.841V65.8501ZM465.841 61.7752H469.919V65.8501H465.841V61.7752ZM465.841 57.7181H469.919V61.7931H465.841V57.7181ZM469.919 53.6432H473.998V57.7181H469.919V53.6432ZM461.781 98.3783H465.859V102.453H461.781V98.3783ZM461.781 94.3034H465.859V98.3783H461.781V94.3034ZM461.781 90.2463H465.859V94.3212H461.781V90.2463ZM461.781 86.1713H465.859V90.2463H461.781V86.1713ZM461.781 82.1142H465.859V86.1892H461.781V82.1142ZM461.781 78.0393H465.859V82.1142H461.781V78.0393ZM461.781 73.9822H465.859V78.0571H461.781V73.9822ZM461.781 69.9072H465.859V73.9822H461.781V69.9072ZM461.781 65.8501H465.859V69.9251H461.781V65.8501ZM461.781 61.7752H465.859V65.8501H461.781V61.7752ZM461.781 53.6432H465.859V57.7181H461.781V53.6432ZM461.781 57.7181H465.859V61.7931H461.781V57.7181ZM482.119 102.435H486.197V106.51H482.119V102.435ZM465.841 49.5682H469.919V53.6432H465.841V49.5682ZM469.919 49.5682H473.998V53.6432H469.919V49.5682ZM461.781 33.3041H465.859V37.3791H461.781V33.3041ZM465.841 33.3041H469.919V37.3791H465.841V33.3041ZM469.919 33.3041H473.998V37.3791H469.919V33.3041ZM473.98 33.3041H478.058V37.3791H473.98V33.3041ZM473.98 29.247H478.058V33.322H473.98V29.247ZM473.98 25.1721H478.058V29.247H473.98V25.1721ZM473.98 21.115H478.058V25.1899H473.98V21.115ZM469.919 21.115H473.998V25.1899H469.919V21.115ZM465.841 21.115H469.919V25.1899H465.841V21.115ZM461.781 21.115H465.859V25.1899H461.781V21.115ZM461.781 25.1721H465.859V29.247H461.781V25.1721ZM461.781 29.247H465.859V33.322H461.781V29.247ZM465.841 29.247H469.919V33.322H465.841V29.247ZM469.919 29.247H473.998V33.322H469.919V29.247ZM469.919 25.1721H473.998V29.247H469.919V25.1721ZM465.841 25.1721H469.919V29.247H465.841V25.1721ZM478.058 106.51H482.136V110.585H478.058V106.51ZM457.702 57.7181H461.781V61.7931H457.702V57.7181ZM453.642 57.7181H457.72V61.7931H453.642V57.7181ZM453.642 61.7752H457.72V65.8501H453.642V61.7752ZM457.702 61.7752H461.781V65.8501H457.702V61.7752ZM478.058 57.7181H482.136V61.7931H478.058V57.7181ZM482.119 57.7181H486.197V61.7931H482.119V57.7181ZM482.119 61.7752H486.197V65.8501H482.119V61.7752ZM478.058 61.7752H482.136V65.8501H478.058V61.7752ZM453.642 102.435H457.72V106.51H453.642V102.435ZM457.702 102.435H461.781V106.51H457.702V102.435ZM478.058 102.435H482.136V106.51H478.058V102.435ZM453.642 106.51H457.72V110.585H453.642V106.51ZM461.781 114.642H465.859V118.717H461.781V114.642Z" fill="#FFD5FB"/>
<path d="M494.276 114.642H498.354V118.717H494.276V114.642ZM498.354 114.642H502.432V118.717H498.354V114.642ZM490.215 110.567H494.294V114.642H490.215V110.567ZM494.276 110.567H498.354V114.642H494.276V110.567ZM498.354 110.567H502.432V114.642H498.354V110.567ZM502.414 110.567H506.493V114.642H502.414V110.567ZM486.137 106.51H490.215V110.585H486.137V106.51ZM490.215 106.51H494.294V110.585H490.215V106.51ZM490.215 102.435H494.294V106.51H490.215V102.435ZM494.276 102.435H498.354V106.51H494.276V102.435ZM494.276 106.51H498.354V110.585H494.276V106.51ZM498.354 106.51H502.432V110.585H498.354V106.51ZM502.414 106.51H506.493V110.585H502.414V106.51ZM502.414 102.435H506.493V106.51H502.414V102.435ZM506.493 106.51H510.571V110.585H506.493V106.51ZM498.354 102.435H502.432V106.51H498.354V102.435ZM494.276 98.3784H498.354V102.453H494.276V98.3784ZM498.354 98.3784H502.432V102.453H498.354V98.3784ZM502.414 98.3784H506.493V102.453H502.414V98.3784ZM502.414 94.3034H506.493V98.3784H502.414V94.3034ZM498.354 94.3034H502.432V98.3784H498.354V94.3034ZM494.276 94.3034H498.354V98.3784H494.276V94.3034ZM494.276 90.2463H498.354V94.3213H494.276V90.2463ZM494.276 86.1714H498.354V90.2463H494.276V86.1714ZM494.276 82.1143H498.354V86.1892H494.276V82.1143ZM494.276 78.0393H498.354V82.1143H494.276V78.0393ZM494.276 73.9822H498.354V78.0572H494.276V73.9822ZM498.354 73.9822H502.432V78.0572H498.354V73.9822ZM502.414 73.9822H506.493V78.0572H502.414V73.9822ZM502.414 78.0393H506.493V82.1143H502.414V78.0393ZM502.414 82.1143H506.493V86.1892H502.414V82.1143ZM502.414 86.1714H506.493V90.2463H502.414V86.1714ZM498.354 86.1714H502.432V90.2463H498.354V86.1714ZM498.354 90.2463H502.432V94.3213H498.354V90.2463ZM498.354 82.1143H502.432V86.1892H498.354V82.1143ZM498.354 78.0393H502.432V82.1143H498.354V78.0393ZM502.414 90.2463H506.493V94.3213H502.414V90.2463ZM502.414 69.9073H506.493V73.9822H502.414V69.9073ZM502.414 65.8502H506.493V69.9252H502.414V65.8502ZM502.414 61.7752H506.493V65.8502H502.414V61.7752ZM502.414 57.7182H506.493V61.7931H502.414V57.7182ZM502.414 53.6432H506.493V57.7182H502.414V53.6432ZM494.276 53.6432H498.354V57.7182H494.276V53.6432ZM498.354 57.7182H502.432V61.7931H498.354V57.7182ZM498.354 61.7752H502.432V65.8502H498.354V61.7752ZM498.354 65.8502H502.432V69.9252H498.354V65.8502ZM498.354 69.9073H502.432V73.9822H498.354V69.9073ZM494.276 69.9073H498.354V73.9822H494.276V69.9073ZM494.276 65.8502H498.354V69.9252H494.276V65.8502ZM494.276 61.7752H498.354V65.8502H494.276V61.7752ZM494.276 57.7182H498.354V61.7931H494.276V57.7182ZM498.354 53.6432H502.432V57.7182H498.354V53.6432ZM490.215 98.3784H494.294V102.453H490.215V98.3784ZM490.215 94.3034H494.294V98.3784H490.215V94.3034ZM490.215 90.2463H494.294V94.3213H490.215V90.2463ZM490.215 86.1714H494.294V90.2463H490.215V86.1714ZM490.215 82.1143H494.294V86.1892H490.215V82.1143ZM490.215 78.0393H494.294V82.1143H490.215V78.0393ZM490.215 73.9822H494.294V78.0572H490.215V73.9822ZM490.215 69.9073H494.294V73.9822H490.215V69.9073ZM490.215 65.8502H494.294V69.9252H490.215V65.8502ZM490.215 61.7752H494.294V65.8502H490.215V61.7752ZM490.215 53.6432H494.294V57.7182H490.215V53.6432ZM490.215 57.7182H494.294V61.7931H490.215V57.7182ZM498.354 49.5682H502.432V53.6432H498.354V49.5682ZM486.137 57.7182H490.215V61.7931H486.137V57.7182ZM526.83 114.642H530.909V118.717H526.83V114.642ZM530.909 114.642H534.987V118.717H530.909V114.642ZM522.77 110.567H526.848V114.642H522.77V110.567ZM526.83 110.567H530.909V114.642H526.83V110.567ZM530.909 110.567H534.987V114.642H530.909V110.567ZM534.969 110.567H539.047V114.642H534.969V110.567ZM518.692 106.51H522.77V110.585H518.692V106.51ZM522.77 106.51H526.848V110.585H522.77V106.51ZM522.77 102.435H526.848V106.51H522.77V102.435ZM526.83 102.435H530.909V106.51H526.83V102.435ZM526.83 106.51H530.909V110.585H526.83V106.51ZM530.909 106.51H534.987V110.585H530.909V106.51ZM534.969 106.51H539.047V110.585H534.969V106.51ZM534.969 102.435H539.047V106.51H534.969V102.435ZM539.047 106.51H543.126V110.585H539.047V106.51ZM530.909 102.435H534.987V106.51H530.909V102.435ZM526.83 98.3784H530.909V102.453H526.83V98.3784ZM530.909 98.3784H534.987V102.453H530.909V98.3784ZM534.969 98.3784H539.047V102.453H534.969V98.3784ZM534.969 94.3034H539.047V98.3784H534.969V94.3034ZM530.909 94.3034H534.987V98.3784H530.909V94.3034ZM526.83 94.3034H530.909V98.3784H526.83V94.3034ZM526.83 90.2463H530.909V94.3213H526.83V90.2463ZM526.83 86.1714H530.909V90.2463H526.83V86.1714ZM526.83 82.1143H530.909V86.1892H526.83V82.1143ZM526.83 78.0393H530.909V82.1143H526.83V78.0393ZM526.83 73.9822H530.909V78.0572H526.83V73.9822ZM530.909 73.9822H534.987V78.0572H530.909V73.9822ZM534.969 73.9822H539.047V78.0572H534.969V73.9822ZM534.969 78.0393H539.047V82.1143H534.969V78.0393ZM534.969 82.1143H539.047V86.1892H534.969V82.1143ZM534.969 86.1714H539.047V90.2463H534.969V86.1714ZM530.909 86.1714H534.987V90.2463H530.909V86.1714ZM530.909 90.2463H534.987V94.3213H530.909V90.2463ZM530.909 82.1143H534.987V86.1892H530.909V82.1143ZM530.909 78.0393H534.987V82.1143H530.909V78.0393ZM534.969 90.2463H539.047V94.3213H534.969V90.2463ZM534.969 69.9073H539.047V73.9822H534.969V69.9073ZM534.969 65.8502H539.047V69.9252H534.969V65.8502ZM534.969 61.7752H539.047V65.8502H534.969V61.7752ZM534.969 57.7182H539.047V61.7931H534.969V57.7182ZM534.969 53.6432H539.047V57.7182H534.969V53.6432ZM526.83 53.6432H530.909V57.7182H526.83V53.6432ZM530.909 57.7182H534.987V61.7931H530.909V57.7182ZM530.909 61.7752H534.987V65.8502H530.909V61.7752ZM530.909 65.8502H534.987V69.9252H530.909V65.8502ZM530.909 69.9073H534.987V73.9822H530.909V69.9073ZM526.83 69.9073H530.909V73.9822H526.83V69.9073ZM526.83 65.8502H530.909V69.9252H526.83V65.8502ZM526.83 61.7752H530.909V65.8502H526.83V61.7752ZM526.83 57.7182H530.909V61.7931H526.83V57.7182ZM530.909 53.6432H534.987V57.7182H530.909V53.6432ZM522.77 98.3784H526.848V102.453H522.77V98.3784ZM522.77 94.3034H526.848V98.3784H522.77V94.3034ZM522.77 90.2463H526.848V94.3213H522.77V90.2463ZM522.77 86.1714H526.848V90.2463H522.77V86.1714ZM522.77 82.1143H526.848V86.1892H522.77V82.1143ZM522.77 78.0393H526.848V82.1143H522.77V78.0393ZM522.77 73.9822H526.848V78.0572H522.77V73.9822ZM522.77 69.9073H526.848V73.9822H522.77V69.9073ZM522.77 65.8502H526.848V69.9252H522.77V65.8502ZM522.77 61.7752H526.848V65.8502H522.77V61.7752ZM522.77 53.6432H526.848V57.7182H522.77V53.6432ZM522.77 57.7182H526.848V61.7931H522.77V57.7182ZM526.83 49.5682H530.909V53.6432H526.83V49.5682ZM530.909 49.5682H534.987V53.6432H530.909V49.5682ZM518.692 57.7182H522.77V61.7931H518.692V57.7182ZM482.077 61.7752H486.155V65.8502H482.077V61.7752ZM486.137 61.7752H490.215V65.8502H486.137V61.7752ZM510.553 57.7182H514.631V61.7931H510.553V57.7182ZM514.631 57.7182H518.71V61.7931H514.631V57.7182ZM514.631 53.6432H518.71V57.7182H514.631V53.6432ZM518.692 53.6432H522.77V57.7182H518.692V53.6432ZM518.692 49.5682H522.77V53.6432H518.692V49.5682ZM522.77 49.5682H526.848V53.6432H522.77V49.5682ZM506.493 57.7182H510.571V61.7931H506.493V57.7182ZM518.692 61.7752H522.77V65.8502H518.692V61.7752ZM482.077 102.435H486.155V106.51H482.077V102.435ZM486.137 102.435H490.215V106.51H486.137V102.435ZM514.631 102.435H518.71V106.51H514.631V102.435ZM518.692 102.435H522.77V106.51H518.692V102.435ZM539.047 102.435H543.126V106.51H539.047V102.435ZM482.077 57.7182H486.155V61.7931H482.077V57.7182ZM506.493 102.435H510.571V106.51H506.493V102.435ZM514.631 61.7752H518.71V65.8502H514.631V61.7752ZM510.553 61.7752H514.631V65.8502H510.553V61.7752ZM506.493 61.7752H510.571V65.8502H506.493V61.7752ZM559.403 114.642H563.481V118.717H559.403V114.642ZM563.463 114.642H567.542V118.717H563.463V114.642ZM555.325 110.567H559.403V114.642H555.325V110.567ZM559.403 110.567H563.481V114.642H559.403V110.567ZM563.463 110.567H567.542V114.642H563.463V110.567ZM567.542 110.567H571.62V114.642H567.542V110.567ZM551.264 106.51H555.343V110.585H551.264V106.51ZM555.325 106.51H559.403V110.585H555.325V106.51ZM555.325 102.435H559.403V106.51H555.325V102.435ZM559.403 102.435H563.481V106.51H559.403V102.435ZM559.403 106.51H563.481V110.585H559.403V106.51ZM563.463 106.51H567.542V110.585H563.463V106.51ZM567.542 106.51H571.62V110.585H567.542V106.51ZM567.542 102.435H571.62V106.51H567.542V102.435ZM571.602 106.51H575.68V110.585H571.602V106.51ZM563.463 102.435H567.542V106.51H563.463V102.435ZM559.403 98.3784H563.481V102.453H559.403V98.3784ZM563.463 98.3784H567.542V102.453H563.463V98.3784ZM567.542 98.3784H571.62V102.453H567.542V98.3784ZM567.542 94.3034H571.62V98.3784H567.542V94.3034ZM563.463 94.3034H567.542V98.3784H563.463V94.3034ZM559.403 94.3034H563.481V98.3784H559.403V94.3034ZM559.403 90.2463H563.481V94.3213H559.403V90.2463ZM559.403 86.1714H563.481V90.2463H559.403V86.1714ZM559.403 82.1143H563.481V86.1892H559.403V82.1143ZM559.403 78.0393H563.481V82.1143H559.403V78.0393ZM559.403 73.9822H563.481V78.0572H559.403V73.9822ZM563.463 73.9822H567.542V78.0572H563.463V73.9822ZM567.542 73.9822H571.62V78.0572H567.542V73.9822ZM567.542 78.0393H571.62V82.1143H567.542V78.0393ZM567.542 82.1143H571.62V86.1892H567.542V82.1143ZM567.542 86.1714H571.62V90.2463H567.542V86.1714ZM563.463 86.1714H567.542V90.2463H563.463V86.1714ZM563.463 90.2463H567.542V94.3213H563.463V90.2463ZM563.463 82.1143H567.542V86.1892H563.463V82.1143ZM563.463 78.0393H567.542V82.1143H563.463V78.0393ZM567.542 90.2463H571.62V94.3213H567.542V90.2463ZM567.542 69.9073H571.62V73.9822H567.542V69.9073ZM567.542 65.8502H571.62V69.9252H567.542V65.8502ZM567.542 61.7752H571.62V65.8502H567.542V61.7752ZM567.542 57.7182H571.62V61.7931H567.542V57.7182ZM567.542 53.6432H571.62V57.7182H567.542V53.6432ZM559.403 53.6432H563.481V57.7182H559.403V53.6432ZM563.463 57.7182H567.542V61.7931H563.463V57.7182ZM563.463 61.7752H567.542V65.8502H563.463V61.7752ZM563.463 65.8502H567.542V69.9252H563.463V65.8502ZM563.463 69.9073H567.542V73.9822H563.463V69.9073ZM559.403 69.9073H563.481V73.9822H559.403V69.9073ZM559.403 65.8502H563.481V69.9252H559.403V65.8502ZM559.403 61.7752H563.481V65.8502H559.403V61.7752ZM559.403 57.7182H563.481V61.7931H559.403V57.7182ZM563.463 53.6432H567.542V57.7182H563.463V53.6432ZM555.325 98.3784H559.403V102.453H555.325V98.3784ZM555.325 94.3034H559.403V98.3784H555.325V94.3034ZM555.325 90.2463H559.403V94.3213H555.325V90.2463ZM555.325 86.1714H559.403V90.2463H555.325V86.1714ZM555.325 82.1143H559.403V86.1892H555.325V82.1143ZM555.325 78.0393H559.403V82.1143H555.325V78.0393ZM555.325 73.9822H559.403V78.0572H555.325V73.9822ZM555.325 69.9073H559.403V73.9822H555.325V69.9073ZM555.325 65.8502H559.403V69.9252H555.325V65.8502ZM555.325 61.7752H559.403V65.8502H555.325V61.7752ZM555.325 53.6432H559.403V57.7182H555.325V53.6432ZM555.325 57.7182H559.403V61.7931H555.325V57.7182ZM575.68 102.435H579.759V106.51H575.68V102.435ZM559.403 49.5682H563.481V53.6432H559.403V49.5682ZM563.463 49.5682H567.542V53.6432H563.463V49.5682ZM551.264 57.7182H555.343V61.7931H551.264V57.7182ZM571.602 57.7182H575.68V61.7931H571.602V57.7182ZM543.126 57.7182H547.204V61.7931H543.126V57.7182ZM547.186 57.7182H551.264V61.7931H547.186V57.7182ZM547.186 53.6432H551.264V57.7182H547.186V53.6432ZM551.264 53.6432H555.343V57.7182H551.264V53.6432ZM551.264 49.5682H555.343V53.6432H551.264V49.5682ZM555.325 49.5682H559.403V53.6432H555.325V49.5682ZM539.047 57.7182H543.126V61.7931H539.047V57.7182ZM551.264 61.7752H555.343V65.8502H551.264V61.7752ZM547.186 102.435H551.264V106.51H547.186V102.435ZM551.264 102.435H555.343V106.51H551.264V102.435ZM571.602 102.435H575.68V106.51H571.602V102.435ZM575.68 61.7752H579.759V65.8502H575.68V61.7752ZM571.602 61.7752H575.68V65.8502H571.602V61.7752ZM575.68 57.7182H579.759V61.7931H575.68V57.7182ZM547.186 61.7752H551.264V65.8502H547.186V61.7752ZM543.126 61.7752H547.204V65.8502H543.126V61.7752ZM539.047 61.7752H543.126V65.8502H539.047V61.7752ZM482.077 106.51H486.155V110.585H482.077V106.51ZM490.215 114.642H494.294V118.717H490.215V114.642ZM514.631 106.51H518.71V110.585H514.631V106.51ZM522.77 114.642H526.848V118.717H522.77V114.642ZM547.186 106.51H551.264V110.585H547.186V106.51ZM555.325 114.642H559.403V118.717H555.325V114.642ZM486.137 53.6432H490.215V57.7182H486.137V53.6432ZM490.215 49.5682H494.294V53.6432H490.215V49.5682ZM494.276 49.5682H498.354V53.6432H494.276V49.5682Z" fill="#FFD5FB"/>
</g>
</g>
<mask id="mask5_1_1639" style="mask-type:luminance" maskUnits="userSpaceOnUse" x="415" y="202" width="240" height="152">
<path d="M415.556 202.962H654.811V353.136H415.556V202.962Z" fill="white"/>
</mask>
<g mask="url(#mask5_1_1639)">
<mask id="mask6_1_1639" style="mask-type:luminance" maskUnits="userSpaceOnUse" x="415" y="202" width="240" height="152">
<path d="M654.815 202.962H415.556V353.95H654.815V202.962Z" fill="white"/>
</mask>
<g mask="url(#mask6_1_1639)">
<path d="M430.507 314.213H433.977V317.68H430.507V314.213ZM430.507 310.745H433.977V314.213H430.507V310.745ZM430.507 307.278H433.977V310.745H430.507V307.278ZM430.507 303.829H433.977V307.296H430.507V303.829ZM430.507 300.361H433.977V303.829H430.507V300.361ZM430.507 296.894H433.977V300.361H430.507V296.894ZM430.507 293.427H433.977V296.894H430.507V293.427ZM430.507 289.959H433.977V293.427H430.507V289.959ZM430.507 286.492H433.977V289.959H430.507V286.492ZM430.507 283.043H433.977V286.51H430.507V283.043ZM433.977 283.043H437.447V286.51H433.977V283.043ZM437.447 283.043H440.918V286.51H437.447V283.043ZM427.055 283.043H430.525V286.51H427.055V283.043ZM427.055 286.492H430.525V289.959H427.055V286.492ZM427.055 289.959H430.525V293.427H427.055V289.959ZM427.055 293.427H430.525V296.894H427.055V293.427ZM427.055 296.894H430.525V300.361H427.055V296.894ZM427.055 300.361H430.525V303.829H427.055V300.361ZM427.055 303.829H430.525V307.296H427.055V303.829ZM427.055 307.278H430.525V310.745H427.055V307.278ZM427.055 310.745H430.525V314.213H427.055V310.745ZM433.977 310.745H437.447V314.213H433.977V310.745ZM437.447 310.745H440.918V314.213H437.447V310.745ZM437.447 307.278H440.918V310.745H437.447V307.278ZM437.447 303.829H440.918V307.296H437.447V303.829ZM437.447 300.361H440.918V303.829H437.447V300.361ZM437.447 296.894H440.918V300.361H437.447V296.894ZM437.447 293.427H440.918V296.894H437.447V293.427ZM437.447 289.959H440.918V293.427H437.447V289.959ZM437.447 286.492H440.918V289.959H437.447V286.492ZM433.977 286.492H437.447V289.959H433.977V286.492ZM433.977 289.959H437.447V293.427H433.977V289.959ZM433.977 293.427H437.447V296.894H433.977V293.427ZM433.977 296.894H437.447V300.361H433.977V296.894ZM433.977 300.361H437.447V303.829H433.977V300.361ZM433.977 303.829H437.447V307.296H433.977V303.829ZM433.977 307.278H437.447V310.745H433.977V307.278ZM433.977 314.213H437.447V317.68H433.977V314.213ZM437.447 314.213H440.918V317.68H437.447V314.213ZM437.447 317.68H440.918V321.147H437.447V317.68ZM433.977 317.68H437.447V321.147H433.977V317.68ZM440.918 310.745H444.388V314.213H440.918V310.745ZM444.388 310.745H447.858V314.213H444.388V310.745ZM447.858 310.745H451.328V314.213H447.858V310.745ZM437.447 279.575H440.918V283.043H437.447V279.575ZM437.447 276.108H440.918V279.575H437.447V276.108ZM437.447 272.641H440.918V276.108H437.447V272.641ZM437.447 269.174H440.918V272.641H437.447V269.174ZM427.055 276.108H430.525V279.575H427.055V276.108ZM427.055 279.575H430.525V283.043H427.055V279.575ZM430.507 279.575H433.977V283.043H430.507V279.575ZM430.507 276.108H433.977V279.575H430.507V276.108ZM433.977 276.108H437.447V279.575H433.977V276.108ZM433.977 272.641H437.447V276.108H433.977V272.641ZM433.977 269.174H437.447V272.641H433.977V269.174ZM433.977 279.575H437.447V283.043H433.977V279.575ZM444.388 262.257H447.858V265.724H444.388V262.257ZM444.388 265.706H447.858V269.174H444.388V265.706ZM440.918 265.706H444.388V269.174H440.918V265.706ZM447.858 262.257H451.328V265.724H447.858V262.257ZM451.31 262.257H454.78V265.724H451.31V262.257ZM451.31 265.706H454.78V269.174H451.31V265.706ZM447.858 265.706H451.328V269.174H447.858V265.706ZM451.31 269.174H454.78V272.641H451.31V269.174ZM458.25 269.174H461.72V272.641H458.25V269.174ZM458.25 272.641H461.72V276.108H458.25V272.641ZM454.78 272.641H458.25V276.108H454.78V272.641ZM454.78 269.174H458.25V272.641H454.78V269.174ZM430.507 272.641H433.977V276.108H430.507V272.641ZM423.585 310.745H427.055V314.213H423.585V310.745ZM420.115 310.745H423.585V314.213H420.115V310.745ZM420.115 307.278H423.585V310.745H420.115V307.278ZM423.585 307.278H427.055V310.745H423.585V307.278ZM440.918 307.278H444.388V310.745H440.918V307.278ZM444.388 307.278H447.858V310.745H444.388V307.278ZM447.858 307.278H451.328V310.745H447.858V307.278ZM451.31 307.278H454.78V310.745H451.31V307.278ZM440.918 317.68H444.388V321.147H440.918V317.68ZM440.918 314.213H444.388V317.68H440.918V314.213ZM444.388 314.213H447.858V317.68H444.388V314.213ZM447.858 269.174H451.328V272.641H447.858V269.174ZM451.31 272.641H454.78V276.108H451.31V272.641ZM458.25 276.108H461.72V279.575H458.25V276.108ZM454.78 276.108H458.25V279.575H454.78V276.108ZM458.25 279.575H461.72V283.043H458.25V279.575ZM454.78 262.257H458.25V265.724H454.78V262.257ZM458.25 265.706H461.72V269.174H458.25V265.706ZM454.78 265.706H458.25V269.174H454.78V265.706ZM461.72 269.174H465.191V272.641H461.72V269.174ZM461.72 272.641H465.191V276.108H461.72V272.641ZM461.72 276.108H465.191V279.575H461.72V276.108ZM451.31 283.043H454.78V286.51H451.31V283.043ZM447.858 283.043H451.328V286.51H447.858V283.043ZM444.388 283.043H447.858V286.51H444.388V283.043ZM440.918 283.043H444.388V286.51H440.918V283.043ZM440.918 286.492H444.388V289.959H440.918V286.492ZM444.388 286.492H447.858V289.959H444.388V286.492ZM447.858 286.492H451.328V289.959H447.858V286.492ZM451.31 286.492H454.78V289.959H451.31V286.492ZM454.78 283.043H458.25V286.51H454.78V283.043ZM454.78 286.492H458.25V289.959H454.78V286.492ZM461.72 279.575H465.191V283.043H461.72V279.575ZM440.918 269.174H444.388V272.641H440.918V269.174ZM437.447 265.706H440.918V269.174H437.447V265.706ZM440.918 262.257H444.388V265.724H440.918V262.257Z" fill="#FFD5FB"/>
<path d="M472.072 317.68H475.542V321.147H472.072V317.68ZM475.542 317.68H479.012V321.147H475.542V317.68ZM468.62 314.213H472.09V317.68H468.62V314.213ZM472.072 314.213H475.542V317.68H472.072V314.213ZM475.542 314.213H479.012V317.68H475.542V314.213ZM479.012 314.213H482.483V317.68H479.012V314.213ZM465.15 310.745H468.62V314.213H465.15V310.745ZM468.62 310.745H472.09V314.213H468.62V310.745ZM468.62 307.278H472.09V310.745H468.62V307.278ZM472.072 307.278H475.542V310.745H472.072V307.278ZM472.072 310.745H475.542V314.213H472.072V310.745ZM475.542 310.745H479.012V314.213H475.542V310.745ZM479.012 310.745H482.483V314.213H479.012V310.745ZM479.012 307.278H482.483V310.745H479.012V307.278ZM482.483 310.745H485.953V314.213H482.483V310.745ZM475.542 307.278H479.012V310.745H475.542V307.278ZM472.072 303.829H475.542V307.296H472.072V303.829ZM475.542 303.829H479.012V307.296H475.542V303.829ZM479.012 303.829H482.483V307.296H479.012V303.829ZM479.012 300.361H482.483V303.829H479.012V300.361ZM475.542 300.361H479.012V303.829H475.542V300.361ZM472.072 300.361H475.542V303.829H472.072V300.361ZM472.072 296.894H475.542V300.361H472.072V296.894ZM472.072 293.427H475.542V296.894H472.072V293.427ZM472.072 289.96H475.542V293.427H472.072V289.96ZM472.072 286.492H475.542V289.96H472.072V286.492ZM472.072 283.043H475.542V286.51H472.072V283.043ZM475.542 283.043H479.012V286.51H475.542V283.043ZM479.012 283.043H482.483V286.51H479.012V283.043ZM479.012 286.492H482.483V289.96H479.012V286.492ZM479.012 289.96H482.483V293.427H479.012V289.96ZM479.012 293.427H482.483V296.894H479.012V293.427ZM475.542 293.427H479.012V296.894H475.542V293.427ZM475.542 296.894H479.012V300.361H475.542V296.894ZM475.542 289.96H479.012V293.427H475.542V289.96ZM475.542 286.492H479.012V289.96H475.542V286.492ZM479.012 296.894H482.483V300.361H479.012V296.894ZM479.012 279.576H482.483V283.043H479.012V279.576ZM479.012 276.108H482.483V279.576H479.012V276.108ZM479.012 272.641H482.483V276.108H479.012V272.641ZM479.012 269.174H482.483V272.641H479.012V269.174ZM472.072 265.706H475.542V269.174H472.072V265.706ZM475.542 269.174H479.012V272.641H475.542V269.174ZM475.542 272.641H479.012V276.108H475.542V272.641ZM475.542 276.108H479.012V279.576H475.542V276.108ZM475.542 279.576H479.012V283.043H475.542V279.576ZM472.072 279.576H475.542V283.043H472.072V279.576ZM472.072 276.108H475.542V279.576H472.072V276.108ZM472.072 272.641H475.542V276.108H472.072V272.641ZM472.072 269.174H475.542V272.641H472.072V269.174ZM468.62 303.829H472.09V307.296H468.62V303.829ZM468.62 300.361H472.09V303.829H468.62V300.361ZM468.62 296.894H472.09V300.361H468.62V296.894ZM468.62 293.427H472.09V296.894H468.62V293.427ZM468.62 289.96H472.09V293.427H468.62V289.96ZM468.62 286.492H472.09V289.96H468.62V286.492ZM468.62 283.043H472.09V286.51H468.62V283.043ZM468.62 279.576H472.09V283.043H468.62V279.576ZM468.62 276.108H472.09V279.576H468.62V276.108ZM468.62 272.641H472.09V276.108H468.62V272.641ZM468.62 265.706H472.09V269.174H468.62V265.706ZM468.62 269.174H472.09V272.641H468.62V269.174ZM465.15 269.174H468.62V272.641H465.15V269.174ZM461.68 272.641H465.15V276.108H461.68V272.641ZM465.15 272.641H468.62V276.108H465.15V272.641ZM461.68 307.278H465.15V310.745H461.68V307.278ZM465.15 307.278H468.62V310.745H465.15V307.278ZM461.68 269.174H465.15V272.641H461.68V269.174ZM482.483 307.278H485.953V310.745H482.483V307.278ZM461.68 310.745H465.15V314.213H461.68V310.745ZM468.62 317.68H472.09V321.147H468.62V317.68ZM465.15 265.706H468.62V269.174H465.15V265.706ZM482.483 265.706H485.953V269.174H482.483V265.706ZM485.953 262.257H489.423V265.724H485.953V262.257ZM485.953 265.706H489.423V269.174H485.953V265.706ZM489.423 265.706H492.893V269.174H489.423V265.706ZM489.423 262.257H492.893V265.724H489.423V262.257ZM492.875 262.257H496.345V265.724H492.875V262.257ZM492.875 265.706H496.345V269.174H492.875V265.706ZM496.345 265.706H499.815V269.174H496.345V265.706ZM496.345 262.257H499.815V265.724H496.345V262.257ZM499.815 265.706H503.285V269.174H499.815V265.706ZM492.875 269.174H496.345V272.641H492.875V269.174ZM489.423 269.174H492.893V272.641H489.423V269.174ZM492.875 272.641H496.345V276.108H492.875V272.641ZM496.345 272.641H499.815V276.108H496.345V272.641ZM499.815 272.641H503.285V276.108H499.815V272.641ZM499.815 269.174H503.285V272.641H499.815V269.174ZM496.345 269.174H499.815V272.641H496.345V269.174ZM472.072 262.257H475.542V265.724H472.072V262.257ZM468.62 262.257H472.09V265.724H468.62V262.257ZM482.483 269.174H485.953V272.641H482.483V269.174ZM479.012 265.706H482.483V269.174H479.012V265.706ZM482.483 262.257H485.953V265.724H482.483V262.257Z" fill="#FFD5FB"/>
<path d="M541.386 265.724H537.916V262.257H541.386V265.724ZM537.916 265.724H534.446V262.257H537.916V265.724ZM544.856 269.174H541.386V265.724H544.856V269.174ZM541.386 269.174H537.916V265.724H541.386V269.174ZM537.916 269.174H534.446V265.724H537.916V269.174ZM534.446 269.174H530.975V265.724H534.446V269.174ZM548.308 272.641H544.856V269.174H548.308V272.641ZM544.856 272.641H541.386V269.174H544.856V272.641ZM544.856 276.108H541.386V272.641H544.856V276.108ZM541.386 276.108H537.916V272.641H541.386V276.108ZM541.386 272.641H537.916V269.174H541.386V272.641ZM537.916 272.641H534.446V269.174H537.916V272.641ZM534.446 272.641H530.975V269.174H534.446V272.641ZM534.446 276.108H530.975V272.641H534.446V276.108ZM530.975 272.641H527.505V269.174H530.975V272.641ZM537.916 276.108H534.446V272.641H537.916V276.108ZM541.386 279.575H537.916V276.108H541.386V279.575ZM537.916 279.575H534.446V276.108H537.916V279.575ZM534.446 279.575H530.975V276.108H534.446V279.575ZM534.446 283.043H530.975V279.575H534.446V283.043ZM537.916 283.043H534.446V279.575H537.916V283.043ZM541.386 283.043H537.916V279.575H541.386V283.043ZM541.386 286.51H537.916V283.043H541.386V286.51ZM541.386 289.959H537.916V286.51H541.386V289.959ZM541.386 293.427H537.916V289.959H541.386V293.427ZM541.386 296.894H537.916V293.427H541.386V296.894ZM541.386 300.361H537.916V296.894H541.386V300.361ZM537.916 300.361H534.446V296.894H537.916V300.361ZM534.446 300.361H530.975V296.894H534.446V300.361ZM534.446 296.894H530.975V293.427H534.446V296.894ZM534.446 293.427H530.975V289.959H534.446V293.427ZM534.446 289.959H530.975V286.51H534.446V289.959ZM537.916 289.959H534.446V286.51H537.916V289.959ZM537.916 286.51H534.446V283.043H537.916V286.51ZM537.916 293.427H534.446V289.959H537.916V293.427ZM537.916 296.894H534.446V293.427H537.916V296.894ZM534.446 286.51H530.975V283.043H534.446V286.51ZM534.446 303.829H530.975V300.361H534.446V303.829ZM534.446 307.296H530.975V303.829H534.446V307.296ZM534.446 310.745H530.975V307.296H534.446V310.745ZM534.446 314.213H530.975V310.745H534.446V314.213ZM541.386 317.68H537.916V314.213H541.386V317.68ZM537.916 314.213H534.446V310.745H537.916V314.213ZM537.916 310.745H534.446V307.296H537.916V310.745ZM537.916 307.296H534.446V303.829H537.916V307.296ZM537.916 303.829H534.446V300.361H537.916V303.829ZM541.386 303.829H537.916V300.361H541.386V303.829ZM541.386 307.296H537.916V303.829H541.386V307.296ZM541.386 310.745H537.916V307.296H541.386V310.745ZM541.386 314.213H537.916V310.745H541.386V314.213ZM537.916 317.68H534.446V314.213H537.916V317.68ZM544.856 279.575H541.386V276.108H544.856V279.575ZM544.856 283.043H541.386V279.575H544.856V283.043ZM544.856 286.51H541.386V283.043H544.856V286.51ZM544.856 289.959H541.386V286.51H544.856V289.959ZM544.856 293.427H541.386V289.959H544.856V293.427ZM544.856 296.894H541.386V293.427H544.856V296.894ZM544.856 300.361H541.386V296.894H544.856V300.361ZM544.856 303.829H541.386V300.361H544.856V303.829ZM544.856 307.296H541.386V303.829H544.856V307.296ZM544.856 310.745H541.386V307.296H544.856V310.745ZM544.856 317.68H541.386V314.213H544.856V317.68ZM544.856 314.213H541.386V310.745H544.856V314.213ZM541.386 321.147H537.916V317.68H541.386V321.147ZM537.916 321.147H534.446V317.68H537.916V321.147ZM548.308 314.213H544.856V310.745H548.308V314.213ZM513.643 265.724H510.173V262.257H513.643V265.724ZM510.173 265.724H506.703V262.257H510.173V265.724ZM517.113 269.174H513.643V265.724H517.113V269.174ZM513.643 269.174H510.173V265.724H513.643V269.174ZM510.173 269.174H506.703V265.724H510.173V269.174ZM506.703 269.174H503.25V265.724H506.703V269.174ZM517.113 272.641H513.643V269.174H517.113V272.641ZM517.113 276.108H513.643V272.641H517.113V276.108ZM513.643 276.108H510.173V272.641H513.643V276.108ZM513.643 272.641H510.173V269.174H513.643V272.641ZM510.173 272.641H506.703V269.174H510.173V272.641ZM506.703 272.641H503.25V269.174H506.703V272.641ZM506.703 276.108H503.25V272.641H506.703V276.108ZM503.25 272.641H499.78V269.174H503.25V272.641ZM510.173 276.108H506.703V272.641H510.173V276.108ZM513.643 279.575H510.173V276.108H513.643V279.575ZM510.173 279.575H506.703V276.108H510.173V279.575ZM506.703 279.575H503.25V276.108H506.703V279.575ZM506.703 283.043H503.25V279.575H506.703V283.043ZM510.173 283.043H506.703V279.575H510.173V283.043ZM513.643 283.043H510.173V279.575H513.643V283.043ZM513.643 286.51H510.173V283.043H513.643V286.51ZM513.643 289.959H510.173V286.51H513.643V289.959ZM513.643 293.427H510.173V289.959H513.643V293.427ZM513.643 296.894H510.173V293.427H513.643V296.894ZM513.643 300.361H510.173V296.894H513.643V300.361ZM510.173 300.361H506.703V296.894H510.173V300.361ZM506.703 300.361H503.25V296.894H506.703V300.361ZM506.703 296.894H503.25V293.427H506.703V296.894ZM506.703 293.427H503.25V289.959H506.703V293.427ZM506.703 289.959H503.25V286.51H506.703V289.959ZM510.173 289.959H506.703V286.51H510.173V289.959ZM510.173 286.51H506.703V283.043H510.173V286.51ZM510.173 293.427H506.703V289.959H510.173V293.427ZM510.173 296.894H506.703V293.427H510.173V296.894ZM506.703 286.51H503.25V283.043H506.703V286.51ZM506.703 303.829H503.25V300.361H506.703V303.829ZM506.703 307.296H503.25V303.829H506.703V307.296ZM506.703 310.745H503.25V307.296H506.703V310.745ZM506.703 314.213H503.25V310.745H506.703V314.213ZM513.643 317.68H510.173V314.213H513.643V317.68ZM510.173 314.213H506.703V310.745H510.173V314.213ZM510.173 310.745H506.703V307.296H510.173V310.745ZM510.173 307.296H506.703V303.829H510.173V307.296ZM510.173 303.829H506.703V300.361H510.173V303.829ZM513.643 303.829H510.173V300.361H513.643V303.829ZM513.643 307.296H510.173V303.829H513.643V307.296ZM513.643 310.745H510.173V307.296H513.643V310.745ZM513.643 314.213H510.173V310.745H513.643V314.213ZM510.173 317.68H506.703V314.213H510.173V317.68ZM517.113 279.575H513.643V276.108H517.113V279.575ZM517.113 283.043H513.643V279.575H517.113V283.043ZM517.113 286.51H513.643V283.043H517.113V286.51ZM517.113 289.959H513.643V286.51H517.113V289.959ZM517.113 293.427H513.643V289.959H517.113V293.427ZM517.113 296.894H513.643V293.427H517.113V296.894ZM517.113 300.361H513.643V296.894H517.113V300.361ZM517.113 303.829H513.643V300.361H517.113V303.829ZM517.113 307.296H513.643V303.829H517.113V307.296ZM517.113 310.745H513.643V307.296H517.113V310.745ZM517.113 317.68H513.643V314.213H517.113V317.68ZM517.113 314.213H513.643V310.745H517.113V314.213ZM499.78 276.108H496.31V272.641H499.78V276.108ZM513.643 321.147H510.173V317.68H513.643V321.147ZM510.173 321.147H506.703V317.68H510.173V321.147ZM520.583 314.213H517.113V310.745H520.583V314.213ZM503.25 314.213H499.78V310.745H503.25V314.213ZM551.778 310.745H548.308V307.296H551.778V310.745ZM548.308 310.745H544.856V307.296H548.308V310.745ZM527.505 314.213H524.053V310.745H527.505V314.213ZM524.053 314.213H520.583V310.745H524.053V314.213ZM520.583 317.68H517.113V314.213H520.583V317.68ZM517.113 321.147H513.643V317.68H517.113V321.147ZM530.975 314.213H527.505V310.745H530.975V314.213ZM520.583 310.745H517.113V307.296H520.583V310.745ZM551.778 276.108H548.308V272.641H551.778V276.108ZM548.308 276.108H544.856V272.641H548.308V276.108ZM503.25 276.108H499.78V272.641H503.25V276.108ZM499.78 310.745H496.31V307.296H499.78V310.745ZM503.25 310.745H499.78V307.296H503.25V310.745ZM530.975 276.108H527.505V272.641H530.975V276.108ZM499.78 314.213H496.31V310.745H499.78V314.213ZM524.053 310.745H520.583V307.296H524.053V310.745ZM527.505 310.745H524.053V307.296H527.505V310.745ZM530.975 310.745H527.505V307.296H530.975V310.745ZM551.778 272.641H548.308V269.174H551.778V272.641ZM524.053 269.174H527.505V272.641H524.053V269.174ZM524.053 272.641H527.505V276.108H524.053V272.641ZM530.975 314.213H534.446V317.68H530.975V314.213ZM530.975 317.68H534.446V321.147H530.975V317.68Z" fill="#FFD5FB"/>
<path d="M544.805 314.213H548.275V317.68H544.805V314.213ZM544.805 317.68H548.275V321.147H544.805V317.68ZM548.275 314.213H551.745V317.68H548.275V314.213ZM565.608 296.894H569.078V300.361H565.608V296.894ZM569.078 293.427H572.548V296.894H569.078V293.427ZM565.608 293.427H569.078V296.894H565.608V293.427ZM569.078 289.959H572.548V293.427H569.078V289.959ZM572.548 289.959H576.018V293.427H572.548V289.959ZM572.548 286.51H576.018V289.959H572.548V286.51ZM576.018 286.51H579.47V289.959H576.018V286.51ZM576.018 289.959H579.47V293.427H576.018V289.959ZM576.018 283.043H579.47V286.51H576.018V283.043ZM555.215 276.108H558.667V279.575H555.215V276.108ZM558.667 276.108H562.137V279.575H558.667V276.108ZM558.667 279.575H562.137V283.043H558.667V279.575ZM562.137 276.108H565.608V279.575H562.137V276.108ZM551.745 276.108H555.215V279.575H551.745V276.108ZM551.745 279.575H555.215V283.043H551.745V279.575ZM558.667 303.829H562.137V307.296H558.667V303.829ZM558.667 300.361H562.137V303.829H558.667V300.361ZM562.137 300.361H565.608V303.829H562.137V300.361ZM562.137 296.894H565.608V300.361H562.137V296.894ZM562.137 289.959H565.608V293.427H562.137V289.959ZM562.137 286.51H565.608V289.959H562.137V286.51ZM562.137 283.043H565.608V286.51H562.137V283.043ZM562.137 279.575H565.608V283.043H562.137V279.575ZM558.667 283.043H562.137V286.51H558.667V283.043ZM558.667 286.51H562.137V289.959H558.667V286.51ZM558.667 289.959H562.137V293.427H558.667V289.959ZM555.215 286.51H558.667V289.959H555.215V286.51ZM555.215 283.043H558.667V286.51H555.215V283.043ZM555.215 279.575H558.667V283.043H555.215V279.575ZM551.745 283.043H555.215V286.51H551.745V283.043ZM548.275 310.745H551.745V314.213H548.275V310.745ZM551.745 307.296H555.215V310.745H551.745V307.296ZM551.745 310.745H555.215V314.213H551.745V310.745ZM555.215 310.745H558.667V314.213H555.215V310.745ZM558.667 310.745H562.137V314.213H558.667V310.745ZM562.137 310.745H565.608V314.213H562.137V310.745ZM562.137 307.296H565.608V310.745H562.137V307.296ZM558.667 307.296H562.137V310.745H558.667V307.296ZM555.215 307.296H558.667V310.745H555.215V307.296ZM565.608 310.745H569.078V314.213H565.608V310.745ZM569.078 310.745H572.548V314.213H569.078V310.745ZM569.078 314.213H572.548V317.68H569.078V314.213ZM569.078 317.68H572.548V321.147H569.078V317.68ZM565.608 317.68H569.078V321.147H565.608V317.68ZM565.608 314.213H569.078V317.68H565.608V314.213ZM576.018 307.296H579.47V310.745H576.018V307.296ZM576.018 310.745H579.47V314.213H576.018V310.745ZM572.548 310.745H576.018V314.213H572.548V310.745ZM579.47 307.296H582.94V310.745H579.47V307.296ZM582.94 307.296H586.41V310.745H582.94V307.296ZM579.47 310.745H582.94V314.213H579.47V310.745ZM579.47 303.829H582.94V307.296H579.47V303.829ZM582.94 300.361H586.41V303.829H582.94V300.361ZM582.94 303.829H586.41V307.296H582.94V303.829ZM586.41 300.361H589.88V303.829H586.41V300.361ZM589.88 296.894H593.351V300.361H589.88V296.894ZM589.88 293.427H593.351V296.894H589.88V293.427ZM586.41 289.959H589.88V293.427H586.41V289.959ZM582.94 289.959H586.41V293.427H582.94V289.959ZM582.94 293.427H586.41V296.894H582.94V293.427ZM582.94 296.894H586.41V300.361H582.94V296.894ZM586.41 296.894H589.88V300.361H586.41V296.894ZM586.41 293.427H589.88V296.894H586.41V293.427ZM579.47 289.959H582.94V293.427H579.47V289.959ZM579.47 286.51H582.94V289.959H579.47V286.51ZM582.94 286.51H586.41V289.959H582.94V286.51ZM579.47 283.043H582.94V286.51H579.47V283.043ZM586.41 276.108H589.88V279.575H586.41V276.108ZM565.608 262.257H569.078V265.724H565.608V262.257ZM565.608 265.724H569.078V269.174H565.608V265.724ZM569.078 265.724H572.548V269.174H569.078V265.724ZM569.078 262.257H572.548V265.724H569.078V262.257ZM562.137 269.174H565.608V272.641H562.137V269.174ZM558.667 269.174H562.137V272.641H558.667V269.174ZM562.137 272.641H565.608V276.108H562.137V272.641ZM558.667 272.641H562.137V276.108H558.667V272.641ZM572.548 269.174H576.018V272.641H572.548V269.174ZM576.018 272.641H579.47V276.108H576.018V272.641ZM576.018 269.174H579.47V272.641H576.018V269.174ZM572.548 262.257H576.018V265.724H572.548V262.257ZM576.018 262.257H579.47V265.724H576.018V262.257ZM576.018 265.724H579.47V269.174H576.018V265.724ZM572.548 265.724H576.018V269.174H572.548V265.724ZM579.47 265.724H582.94V269.174H579.47V265.724ZM589.88 269.174H593.351V272.641H589.88V269.174ZM582.94 269.174H586.41V272.641H582.94V269.174ZM579.47 269.174H582.94V272.641H579.47V269.174ZM582.94 272.641H586.41V276.108H582.94V272.641ZM586.41 272.641H589.88V276.108H586.41V272.641ZM579.47 272.641H582.94V276.108H579.47V272.641ZM555.215 272.641H558.667V276.108H555.215V272.641ZM572.548 314.213H576.018V317.68H572.548V314.213ZM586.41 303.829H589.88V307.296H586.41V303.829ZM589.88 300.361H593.351V303.829H589.88V300.361ZM593.351 265.724H596.821V269.174H593.351V265.724ZM562.137 314.213H565.608V317.68H562.137V314.213ZM555.215 303.829H558.667V307.296H555.215V303.829ZM565.608 289.959H569.078V293.427H565.608V289.959ZM565.608 286.51H569.078V289.959H565.608V286.51ZM569.078 286.51H572.548V289.959H569.078V286.51ZM565.608 283.043H569.078V286.51H565.608V283.043ZM562.137 293.427H565.608V296.894H562.137V293.427ZM589.88 265.724H593.351V269.174H589.88V265.724ZM589.88 262.257H593.351V265.724H589.88V262.257ZM593.351 262.257H596.821V265.724H593.351V262.257ZM582.94 279.575H586.41V283.043H582.94V279.575ZM582.94 276.108H586.41V279.575H582.94V276.108ZM576.018 314.213H579.47V317.68H576.018V314.213ZM572.548 317.68H576.018V321.147H572.548V317.68ZM579.47 279.575H582.94V283.043H579.47V279.575ZM572.548 283.043H576.018V286.51H572.548V283.043ZM576.018 279.575H579.47V283.043H576.018V279.575ZM579.47 276.108H582.94V279.575H579.47V276.108ZM593.351 269.174H596.821V272.641H593.351V269.174ZM589.88 258.79H593.351V262.257H589.88V258.79ZM593.351 258.79H596.821V262.257H593.351V258.79ZM551.745 286.51H555.215V289.959H551.745V286.51ZM551.745 289.959H555.215V293.427H551.745V289.959ZM555.215 289.959H558.667V293.427H555.215V289.959ZM558.667 293.427H562.137V296.894H558.667V293.427ZM555.215 293.427H558.667V296.894H555.215V293.427ZM589.88 289.959H593.351V293.427H589.88V289.959ZM586.41 286.51H589.88V289.959H586.41V286.51ZM558.667 314.213H562.137V317.68H558.667V314.213ZM562.137 317.68H565.608V321.147H562.137V317.68ZM579.47 293.427H582.94V296.894H579.47V293.427ZM579.47 296.894H582.94V300.361H579.47V296.894ZM579.47 300.361H582.94V303.829H579.47V300.361ZM572.548 238.004V234.536H576.018V238.004H572.548ZM569.078 238.004V234.536H572.548V238.004H569.078ZM569.078 241.471V238.004H572.548V241.471H569.078ZM572.548 241.471V238.004H576.018V241.471H572.548ZM565.608 238.004V234.536H569.078V238.004H565.608ZM562.137 234.536V231.069H565.608V234.536H562.137ZM565.608 234.536V231.069H569.078V234.536H565.608ZM562.137 231.069V227.602H565.608V231.069H562.137ZM576.018 241.471V238.004H579.47V241.471H576.018ZM576.018 238.004V234.536H579.47V238.004H576.018ZM579.47 238.004V234.536H582.94V238.004H579.47ZM579.47 234.536V231.069H582.94V234.536H579.47ZM576.018 234.536V231.069H579.47V234.536H576.018ZM582.94 234.536V231.069H586.41V234.536H582.94ZM582.94 231.069V227.602H586.41V231.069H582.94ZM579.47 231.069V227.602H582.94V231.069H579.47ZM565.608 241.471V238.004H569.078V241.471H565.608ZM562.137 238.004V234.536H565.608V238.004H562.137ZM558.667 231.069V227.602H562.137V231.069H558.667ZM558.667 234.536V231.069H562.137V234.536H558.667ZM569.078 244.938V241.471H572.548V244.938H569.078ZM572.548 244.938V241.471H576.018V244.938H572.548ZM582.94 238.004V234.536H586.41V238.004H582.94ZM579.47 241.471V238.004H582.94V241.471H579.47ZM576.018 244.938V241.471H579.47V244.938H576.018ZM565.608 244.938V241.471H569.078V244.938H565.608ZM562.137 241.471V238.004H565.608V241.471H562.137ZM558.667 238.004V234.536H562.137V238.004H558.667ZM555.215 234.536V231.069H558.667V234.536H555.215ZM555.215 231.069V227.602H558.667V231.069H555.215ZM586.41 234.536V231.069H589.88V234.536H586.41ZM586.41 231.069V227.602H589.88V231.069H586.41ZM569.078 248.388V244.938H572.548V248.388H569.078ZM572.548 248.388V244.938H576.018V248.388H572.548Z" fill="#FFD5FB"/>
<path d="M603.7 317.68H607.17V321.147H603.7V317.68ZM607.17 317.68H610.64V321.147H607.17V317.68ZM600.247 314.213H603.717V317.68H600.247V314.213ZM603.7 314.213H607.17V317.68H603.7V314.213ZM607.17 314.213H610.64V317.68H607.17V314.213ZM610.64 314.213H614.11V317.68H610.64V314.213ZM596.777 310.745H600.247V314.213H596.777V310.745ZM600.247 310.745H603.717V314.213H600.247V310.745ZM600.247 307.278H603.717V310.745H600.247V307.278ZM603.7 307.278H607.17V310.745H603.7V307.278ZM603.7 310.745H607.17V314.213H603.7V310.745ZM607.17 310.745H610.64V314.213H607.17V310.745ZM610.64 310.745H614.11V314.213H610.64V310.745ZM610.64 307.278H614.11V310.745H610.64V307.278ZM607.17 307.278H610.64V310.745H607.17V307.278ZM603.7 303.829H607.17V307.296H603.7V303.829ZM607.17 303.829H610.64V307.296H607.17V303.829ZM610.64 303.829H614.11V307.296H610.64V303.829ZM610.64 300.361H614.11V303.829H610.64V300.361ZM607.17 300.361H610.64V303.829H607.17V300.361ZM603.7 300.361H607.17V303.829H603.7V300.361ZM603.7 296.894H607.17V300.361H603.7V296.894ZM603.7 293.427H607.17V296.894H603.7V293.427ZM603.7 289.959H607.17V293.427H603.7V289.959ZM603.7 286.492H607.17V289.959H603.7V286.492ZM603.7 283.043H607.17V286.51H603.7V283.043ZM607.17 283.043H610.64V286.51H607.17V283.043ZM610.64 283.043H614.11V286.51H610.64V283.043ZM610.64 286.492H614.11V289.959H610.64V286.492ZM610.64 289.959H614.11V293.427H610.64V289.959ZM610.64 293.427H614.11V296.894H610.64V293.427ZM607.17 293.427H610.64V296.894H607.17V293.427ZM607.17 296.894H610.64V300.361H607.17V296.894ZM607.17 289.959H610.64V293.427H607.17V289.959ZM607.17 286.492H610.64V289.959H607.17V286.492ZM610.64 296.894H614.11V300.361H610.64V296.894ZM610.64 279.575H614.11V283.043H610.64V279.575ZM610.64 276.108H614.11V279.575H610.64V276.108ZM610.64 272.641H614.11V276.108H610.64V272.641ZM610.64 269.174H614.11V272.641H610.64V269.174ZM610.64 265.706H614.11V269.174H610.64V265.706ZM603.7 265.706H607.17V269.174H603.7V265.706ZM607.17 269.174H610.64V272.641H607.17V269.174ZM607.17 272.641H610.64V276.108H607.17V272.641ZM607.17 276.108H610.64V279.575H607.17V276.108ZM607.17 279.575H610.64V283.043H607.17V279.575ZM603.7 279.575H607.17V283.043H603.7V279.575ZM603.7 276.108H607.17V279.575H603.7V276.108ZM603.7 272.641H607.17V276.108H603.7V272.641ZM603.7 269.174H607.17V272.641H603.7V269.174ZM607.17 265.706H610.64V269.174H607.17V265.706ZM600.247 303.829H603.717V307.296H600.247V303.829ZM600.247 300.361H603.717V303.829H600.247V300.361ZM600.247 296.894H603.717V300.361H600.247V296.894ZM600.247 293.427H603.717V296.894H600.247V293.427ZM600.247 289.959H603.717V293.427H600.247V289.959ZM600.247 286.492H603.717V289.959H600.247V286.492ZM600.247 283.043H603.717V286.51H600.247V283.043ZM600.247 279.575H603.717V283.043H600.247V279.575ZM600.247 276.108H603.717V279.575H600.247V276.108ZM600.247 272.641H603.717V276.108H600.247V272.641ZM600.247 265.706H603.717V269.174H600.247V265.706ZM600.247 269.174H603.717V272.641H600.247V269.174ZM617.58 307.278H621.05V310.745H617.58V307.278ZM603.7 262.257H607.17V265.724H603.7V262.257ZM607.17 262.257H610.64V265.724H607.17V262.257ZM600.247 248.388H603.717V251.855H600.247V248.388ZM603.7 248.388H607.17V251.855H603.7V248.388ZM607.17 248.388H610.64V251.855H607.17V248.388ZM610.64 248.388H614.11V251.855H610.64V248.388ZM610.64 244.92H614.11V248.388H610.64V244.92ZM610.64 241.471H614.11V244.938H610.64V241.471ZM610.64 238.004H614.11V241.471H610.64V238.004ZM607.17 238.004H610.64V241.471H607.17V238.004ZM603.7 238.004H607.17V241.471H603.7V238.004ZM600.247 238.004H603.717V241.471H600.247V238.004ZM600.247 241.471H603.717V244.938H600.247V241.471ZM600.247 244.92H603.717V248.388H600.247V244.92ZM603.7 244.92H607.17V248.388H603.7V244.92ZM607.17 244.92H610.64V248.388H607.17V244.92ZM607.17 241.471H610.64V244.938H607.17V241.471ZM603.7 241.471H607.17V244.938H603.7V241.471ZM614.11 310.745H617.58V314.213H614.11V310.745ZM596.777 269.174H600.247V272.641H596.777V269.174ZM593.307 269.174H596.777V272.641H593.307V269.174ZM593.307 272.641H596.777V276.108H593.307V272.641ZM596.777 272.641H600.247V276.108H596.777V272.641ZM614.11 269.174H617.58V272.641H614.11V269.174ZM617.58 269.174H621.05V272.641H617.58V269.174ZM617.58 272.641H621.05V276.108H617.58V272.641ZM614.11 272.641H617.58V276.108H614.11V272.641ZM593.307 307.278H596.777V310.745H593.307V307.278ZM596.777 307.278H600.247V310.745H596.777V307.278ZM614.11 307.278H617.58V310.745H614.11V307.278ZM593.307 310.745H596.777V314.213H593.307V310.745ZM600.247 317.68H603.717V321.147H600.247V317.68Z" fill="#FFD5FB"/>
<path d="M631.4 314.213H634.87V317.68H631.4V314.213ZM634.87 314.213H638.34V317.68H634.87V314.213ZM621.007 310.745H624.477V314.213H621.007V310.745ZM624.477 310.745H627.947V314.213H624.477V310.745ZM624.477 307.278H627.947V310.745H624.477V307.278ZM627.93 307.278H631.4V310.745H627.93V307.278ZM627.93 310.745H631.4V314.213H627.93V310.745ZM631.4 310.745H634.87V314.213H631.4V310.745ZM634.87 310.745H638.34V314.213H634.87V310.745ZM634.87 307.278H638.34V310.745H634.87V307.278ZM631.4 307.278H634.87V310.745H631.4V307.278ZM627.93 303.829H631.4V307.296H627.93V303.829ZM631.4 303.829H634.87V307.296H631.4V303.829ZM634.87 303.829H638.34V307.296H634.87V303.829ZM634.87 300.361H638.34V303.829H634.87V300.361ZM631.4 300.361H634.87V303.829H631.4V300.361ZM627.93 300.361H631.4V303.829H627.93V300.361ZM627.93 296.894H631.4V300.361H627.93V296.894ZM627.93 293.427H631.4V296.894H627.93V293.427ZM627.93 289.959H631.4V293.427H627.93V289.959ZM627.93 286.492H631.4V289.959H627.93V286.492ZM627.93 283.043H631.4V286.51H627.93V283.043ZM631.4 283.043H634.87V286.51H631.4V283.043ZM634.87 283.043H638.34V286.51H634.87V283.043ZM634.87 286.492H638.34V289.959H634.87V286.492ZM634.87 289.959H638.34V293.427H634.87V289.959ZM634.87 293.427H638.34V296.894H634.87V293.427ZM631.4 293.427H634.87V296.894H631.4V293.427ZM631.4 296.894H634.87V300.361H631.4V296.894ZM631.4 289.959H634.87V293.427H631.4V289.959ZM631.4 286.492H634.87V289.959H631.4V286.492ZM634.87 296.894H638.34V300.361H634.87V296.894ZM634.87 279.575H638.34V283.043H634.87V279.575ZM634.87 276.108H638.34V279.575H634.87V276.108ZM634.87 272.641H638.34V276.108H634.87V272.641ZM634.87 269.174H638.34V272.641H634.87V269.174ZM634.87 265.706H638.34V269.174H634.87V265.706ZM627.93 265.706H631.4V269.174H627.93V265.706ZM631.4 269.174H634.87V272.641H631.4V269.174ZM631.4 272.641H634.87V276.108H631.4V272.641ZM631.4 276.108H634.87V279.575H631.4V276.108ZM631.4 279.575H634.87V283.043H631.4V279.575ZM627.93 279.575H631.4V283.043H627.93V279.575ZM627.93 276.108H631.4V279.575H627.93V276.108ZM627.93 272.641H631.4V276.108H627.93V272.641ZM627.93 269.174H631.4V272.641H627.93V269.174ZM631.4 265.706H634.87V269.174H631.4V265.706ZM624.477 303.829H627.947V307.296H624.477V303.829ZM624.477 300.361H627.947V303.829H624.477V300.361ZM624.477 296.894H627.947V300.361H624.477V296.894ZM624.477 293.427H627.947V296.894H624.477V293.427ZM624.477 289.959H627.947V293.427H624.477V289.959ZM624.477 286.492H627.947V289.959H624.477V286.492ZM624.477 283.043H627.947V286.51H624.477V283.043ZM624.477 279.575H627.947V283.043H624.477V279.575ZM624.477 276.108H627.947V279.575H624.477V276.108ZM624.477 272.641H627.947V276.108H624.477V272.641ZM624.477 265.706H627.947V269.174H624.477V265.706ZM624.477 269.174H627.947V272.641H624.477V269.174ZM617.537 307.278H621.007V310.745H617.537V307.278ZM621.007 307.278H624.477V310.745H621.007V307.278ZM617.537 310.745H621.007V314.213H617.537V310.745ZM617.537 262.257H621.007V265.724H617.537V262.257ZM621.007 262.257H624.477V265.724H621.007V262.257ZM621.007 265.706H624.477V269.174H621.007V265.706ZM617.537 265.706H621.007V269.174H617.537V265.706ZM638.34 265.706H641.81V269.174H638.34V265.706ZM638.34 262.257H641.81V265.724H638.34V262.257ZM641.81 262.257H645.28V265.724H641.81V262.257ZM641.81 265.706H645.28V269.174H641.81V265.706ZM624.477 262.257H627.947V265.724H624.477V262.257ZM627.93 262.257H631.4V265.724H627.93V262.257ZM631.4 262.257H634.87V265.724H631.4V262.257ZM634.87 262.257H638.34V265.724H634.87V262.257ZM634.87 258.79H638.34V262.257H634.87V258.79ZM634.87 255.322H638.34V258.79H634.87V255.322ZM634.87 251.855H638.34V255.322H634.87V251.855ZM631.4 251.855H634.87V255.322H631.4V251.855ZM627.93 251.855H631.4V255.322H627.93V251.855ZM627.93 255.322H631.4V258.79H627.93V255.322ZM627.93 258.79H631.4V262.257H627.93V258.79ZM631.4 258.79H634.87V262.257H631.4V258.79ZM631.4 255.322H634.87V258.79H631.4V255.322ZM624.477 258.79H627.947V262.257H624.477V258.79ZM624.477 255.322H627.947V258.79H624.477V255.322ZM624.477 251.855H627.947V255.322H624.477V251.855ZM634.87 244.92H638.34V248.388H634.87V244.92ZM631.4 244.92H634.87V248.388H631.4V244.92ZM631.4 248.388H634.87V251.855H631.4V248.388ZM634.87 248.388H638.34V251.855H634.87V248.388ZM634.87 241.471H638.34V244.938H634.87V241.471ZM627.93 248.388H631.4V251.855H627.93V248.388ZM645.28 262.257H648.75V265.724H645.28V262.257ZM645.28 265.706H648.75V269.174H645.28V265.706ZM645.28 307.278H648.75V310.745H645.28V307.278ZM645.28 310.745H648.75V314.213H645.28V310.745ZM641.81 310.745H645.28V314.213H641.81V310.745ZM638.34 314.213H641.81V317.68H638.34V314.213ZM634.87 317.68H638.34V321.147H634.87V317.68ZM631.4 317.68H634.87V321.147H631.4V317.68ZM648.732 265.706H652.203V269.174H648.732V265.706ZM648.732 262.257H652.203V265.724H648.732V262.257ZM638.34 307.278H641.81V310.745H638.34V307.278ZM641.81 307.278H645.28V310.745H641.81V307.278ZM648.732 307.278H652.203V310.745H648.732V307.278ZM638.34 310.745H641.81V314.213H638.34V310.745ZM638.34 317.68H641.81V321.147H638.34V317.68ZM641.81 314.213H645.28V317.68H641.81V314.213Z" fill="#FFD5FB"/>
</g>
</g>
<mask id="mask7_1_1639" style="mask-type:luminance" maskUnits="userSpaceOnUse" x="91" y="9" width="66" height="66">
<path d="M91.583 9.65155H156.836V74.8509H91.583V9.65155Z" fill="white"/>
</mask>
<g mask="url(#mask7_1_1639)">
<mask id="mask8_1_1639" style="mask-type:luminance" maskUnits="userSpaceOnUse" x="68" y="-12" width="109" height="109">
<path d="M68.0161 35.5937L128.842 -11.733L176.207 49.0429L115.381 96.3696L68.0161 35.5937Z" fill="white"/>
</mask>
<g mask="url(#mask8_1_1639)">
<mask id="mask9_1_1639" style="mask-type:luminance" maskUnits="userSpaceOnUse" x="68" y="-12" width="109" height="109">
<path d="M68.0161 35.5937L128.842 -11.733L176.207 49.0429L115.381 96.3696L68.0161 35.5937Z" fill="white"/>
</mask>
<g mask="url(#mask9_1_1639)">
<path d="M98.326 12.0108L100.343 10.438L103.495 14.4817L105.512 12.9133L111.804 20.9873L113.821 19.419L116.965 23.4493L118.981 21.8809L122.129 25.9246L124.151 24.3563L125.72 26.3714L127.737 24.8031L129.307 26.8182L133.38 23.6503L134.95 25.6655L138.997 22.5154L140.567 24.5305L144.614 21.3805L146.188 23.3956L154.255 17.1179L155.824 19.133L151.777 22.2831L153.352 24.2982L147.288 29.0166L148.857 31.0317L142.807 35.7411L144.377 37.7563L142.36 39.3291L143.929 41.3442L139.882 44.4943L143.035 48.5379L141.018 50.1063L142.615 52.1571L140.598 53.7299L145.32 59.7888L143.303 61.3571L148.026 67.4159L146.009 68.9842L149.153 73.019L147.136 74.5873L140.839 66.5133L138.823 68.0816L134.49 62.5233L132.473 64.0916L130.514 61.576L128.497 63.1443L125.345 59.1007L123.328 60.6734L121.758 58.6538L119.737 60.2266L118.167 58.2115L114.085 61.3884L112.515 59.3732L108.477 62.5099L106.907 60.4947L98.8269 66.7859L97.2573 64.7663L93.2103 67.9163L91.6362 65.9012L99.7168 59.6145L98.1472 57.5994L104.211 52.881L102.641 50.8658L106.688 47.7158L105.119 45.7007L107.135 44.1279L105.566 42.1127L107.583 40.5444L106.009 38.5293L108.03 36.961L106.456 34.9458L108.473 33.373L105.324 29.3293L107.341 27.761L102.588 21.662L104.604 20.0937L98.3126 12.0197L98.326 12.0108Z" fill="#FFD5FB"/>
</g>
</g>
</g>
<mask id="mask10_1_1639" style="mask-type:luminance" maskUnits="userSpaceOnUse" x="485" y="138" width="66" height="67">
<path d="M485.388 138.906H550.64V204.106H485.388V138.906Z" fill="white"/>
</mask>
<g mask="url(#mask10_1_1639)">
<mask id="mask11_1_1639" style="mask-type:luminance" maskUnits="userSpaceOnUse" x="461" y="116" width="110" height="110">
<path d="M461.834 164.245L522.66 116.919L570.025 177.694L509.2 225.021L461.834 164.245Z" fill="white"/>
</mask>
<g mask="url(#mask11_1_1639)">
<mask id="mask12_1_1639" style="mask-type:luminance" maskUnits="userSpaceOnUse" x="461" y="116" width="110" height="110">
<path d="M461.834 164.245L522.66 116.919L570.025 177.694L509.2 225.021L461.834 164.245Z" fill="white"/>
</mask>
<g mask="url(#mask12_1_1639)">
<path d="M492.144 140.662L494.161 139.09L497.313 143.133L499.33 141.565L505.622 149.639L507.639 148.071L510.782 152.101L512.799 150.533L515.952 154.576L517.969 153.008L519.538 155.023L521.555 153.455L523.125 155.47L527.198 152.302L528.768 154.317L532.815 151.167L534.389 153.182L538.436 150.032L540.006 152.047L548.073 145.769L549.647 147.785L545.6 150.935L547.169 152.95L541.106 157.668L542.675 159.683L536.625 164.393L538.195 166.408L536.178 167.981L537.747 169.996L533.7 173.141L536.853 177.185L534.836 178.758L536.437 180.809L534.416 182.382L539.138 188.44L537.121 190.009L541.844 196.068L539.827 197.636L542.97 201.671L540.954 203.239L534.657 195.165L532.641 196.733L528.312 191.175L526.291 192.743L524.332 190.228L522.315 191.796L519.163 187.752L517.146 189.321L515.576 187.305L513.559 188.878L511.985 186.863L507.903 190.04L506.333 188.025L502.295 191.161L500.725 189.146L492.645 195.433L491.075 193.418L487.028 196.568L485.454 194.553L493.539 188.266L491.965 186.251L498.029 181.533L496.459 179.513L500.506 176.367L498.937 174.352L500.953 172.779L499.384 170.764L501.401 169.196L499.826 167.181L501.848 165.613L500.274 163.593L502.29 162.025L499.142 157.981L501.159 156.413L496.406 150.314L498.422 148.745L492.131 140.671L492.144 140.662Z" fill="#FFD5FB"/>
</g>
</g>
</g>
<mask id="mask13_1_1639" style="mask-type:luminance" maskUnits="userSpaceOnUse" x="30" y="248" width="46" height="46">
<path d="M30.9097 248.716H75.5561V293.326H30.9097V248.716Z" fill="white"/>
</mask>
<g mask="url(#mask13_1_1639)">
<mask id="mask14_1_1639" style="mask-type:luminance" maskUnits="userSpaceOnUse" x="30" y="247" width="48" height="48">
<path d="M30.4985 249.578L75.4446 247.983L77.041 292.888L32.0994 294.483L30.4985 249.578Z" fill="white"/>
</mask>
<g mask="url(#mask14_1_1639)">
<mask id="mask15_1_1639" style="mask-type:luminance" maskUnits="userSpaceOnUse" x="30" y="247" width="48" height="48">
<path d="M30.4985 249.578L75.4446 247.983L77.041 292.888L32.0994 294.483L30.4985 249.578Z" fill="white"/>
</mask>
<g mask="url(#mask15_1_1639)">
<path d="M51.8554 248.819L53.2774 248.769L53.3758 251.62L54.7979 251.567L54.9991 257.259L56.4211 257.205L56.524 260.047L57.946 259.998L58.0444 262.844L59.4664 262.795L59.5201 264.216L60.9376 264.167L60.9913 265.583L63.8577 265.485L63.9114 266.901L66.7599 266.803L66.8136 268.224L69.6621 268.121L69.7158 269.542L75.3994 269.336L75.4486 270.757L72.6001 270.86L72.6493 272.281L68.3742 272.433L68.4279 273.854L64.1618 274.006L64.2155 275.422L62.7934 275.476L62.8426 276.897L59.9896 276.995L60.0925 279.845L58.6704 279.895L58.7241 281.342L57.3021 281.391L57.4541 285.663L56.0321 285.712L56.1841 289.984L54.7621 290.033L54.8649 292.875L53.4429 292.924L53.2417 287.236L51.8196 287.285L51.681 283.366L50.259 283.42L50.1964 281.646L48.7743 281.695L48.6715 278.849L47.2495 278.898L47.2003 277.477L45.7782 277.527L45.729 276.106L42.8492 276.208L42.8 274.792L39.956 274.89L39.9068 273.469L34.2142 273.675L34.1605 272.254L31.312 272.357L31.2583 270.936L36.9554 270.73L36.9017 269.314L41.1768 269.162L41.1276 267.741L43.9761 267.638L43.9269 266.218L45.3489 266.168L45.2998 264.748L46.7173 264.698L46.6681 263.278L48.0902 263.228L48.041 261.808L49.4585 261.754L49.3602 258.908L50.7822 258.854L50.6257 254.56L52.0477 254.511L51.8465 248.819H51.8554Z" fill="#FFD5FB"/>
</g>
</g>
</g>
</g>
</g>
<defs>
<clipPath id="clip0_1_1639">
<rect width="655" height="329" fill="white"/>
</clipPath>
</defs>
</svg>
